STIXTwoText-Regular.ufo
<glyph name="exclam" format="2">
  <advance width="283"/>
  <unicode hex="0021"/>
  <outline>
    <contour>
      <point x="158" y="170" type="line"/>
      <point x="191" y="538" type="line" smooth="yes"/>
      <point x="193" y="561"/>
      <point x="194" y="584"/>
      <point x="194" y="601" type="curve" smooth="yes"/>
      <point x="194" y="641"/>
      <point x="180" y="669"/>
      <point x="141" y="669" type="curve" smooth="yes"/>
      <point x="99" y="669"/>
      <point x="88" y="640"/>
      <point x="88" y="603" type="curve" smooth="yes"/>
      <point x="88" y="587"/>
      <point x="90" y="566"/>
      <point x="92" y="538" type="curve" smooth="yes"/>
      <point x="123" y="170" type="line"/>
    </contour>
    <contour>
      <point x="141" y="-8" type="curve" smooth="yes"/>
      <point x="179" y="-8"/>
      <point x="201" y="18"/>
      <point x="201" y="49" type="curve" smooth="yes"/>
      <point x="201" y="82"/>
      <point x="179" y="111"/>
      <point x="141" y="111" type="curve" smooth="yes"/>
      <point x="104" y="111"/>
      <point x="82" y="83"/>
      <point x="82" y="50" type="curve" smooth="yes"/>
      <point x="82" y="16"/>
      <point x="102" y="-8"/>
    </contour>
  </outline>
</glyph>
<glyph name="quotedbl" format="2">
  <advance width="334"/>
  <unicode hex="0022"/>
  <outline>
    <contour>
      <point x="238" y="504" type="line"/>
      <point x="287" y="688" type="line"/>
      <point x="287" y="706" type="line"/>
      <point x="200" y="706" type="line"/>
      <point x="200" y="504" type="line"/>
    </contour>
    <contour>
      <point x="91" y="504" type="line"/>
      <point x="140" y="688" type="line"/>
      <point x="140" y="706" type="line"/>
      <point x="53" y="706" type="line"/>
      <point x="53" y="504" type="line"/>
    </contour>
  </outline>
</glyph>
<glyph name="numbersign" format="2">
  <advance width="573"/>
  <unicode hex="0023"/>
  <outline>
    <contour>
      <point x="160" y="32" type="line"/>
      <point x="254" y="622" type="line"/>
      <point x="206" y="621" type="line"/>
      <point x="113" y="32" type="line"/>
    </contour>
    <contour>
      <point x="519" y="212" type="line"/>
      <point x="519" y="252" type="line"/>
      <point x="32" y="252" type="line"/>
      <point x="32" y="212" type="line"/>
    </contour>
    <contour>
      <point x="367" y="32" type="line"/>
      <point x="456" y="621" type="line"/>
      <point x="408" y="621" type="line"/>
      <point x="319" y="32" type="line"/>
    </contour>
    <contour>
      <point x="540" y="395" type="line"/>
      <point x="540" y="436" type="line"/>
      <point x="56" y="436" type="line"/>
      <point x="56" y="395" type="line"/>
    </contour>
  </outline>
</glyph>
<glyph name="dollar" format="2">
  <advance width="495"/>
  <unicode hex="0024"/>
  <outline>
    <contour>
      <point x="230" y="-7" type="curve" smooth="yes"/>
      <point x="365" y="-7"/>
      <point x="461" y="43"/>
      <point x="461" y="166" type="curve" smooth="yes"/>
      <point x="461" y="271"/>
      <point x="371" y="323"/>
      <point x="283" y="367" type="curve" smooth="yes"/>
      <point x="149" y="434"/>
      <point x="118" y="452"/>
      <point x="118" y="511" type="curve" smooth="yes"/>
      <point x="118" y="572"/>
      <point x="164" y="603"/>
      <point x="247" y="603" type="curve" smooth="yes"/>
      <point x="328" y="603"/>
      <point x="382" y="561"/>
      <point x="403" y="458" type="curve"/>
      <point x="432" y="458" type="line"/>
      <point x="432" y="588" type="line"/>
      <point x="381" y="621"/>
      <point x="322" y="639"/>
      <point x="245" y="639" type="curve" smooth="yes"/>
      <point x="118" y="639"/>
      <point x="39" y="579"/>
      <point x="39" y="489" type="curve" smooth="yes"/>
      <point x="39" y="405"/>
      <point x="89" y="353"/>
      <point x="245" y="280" type="curve" smooth="yes"/>
      <point x="336" y="237"/>
      <point x="375" y="206"/>
      <point x="375" y="142" type="curve" smooth="yes"/>
      <point x="375" y="65"/>
      <point x="331" y="31"/>
      <point x="225" y="31" type="curve" smooth="yes"/>
      <point x="144" y="31"/>
      <point x="86" y="72"/>
      <point x="64" y="192" type="curve"/>
      <point x="35" y="192" type="line"/>
      <point x="35" y="40" type="line"/>
      <point x="90" y="7"/>
      <point x="145" y="-7"/>
    </contour>
    <contour>
      <point x="267" y="-93" type="line"/>
      <point x="267" y="705" type="line"/>
      <point x="224" y="705" type="line"/>
      <point x="224" y="-93" type="line"/>
    </contour>
  </outline>
</glyph>
<glyph name="ampersand" format="2">
  <advance width="736"/>
  <unicode hex="0026"/>
  <anchor x="357" y="0" name="bottom"/>
  <anchor x="357" y="0" name="cedilla"/>
  <anchor x="553" y="0" name="ogonek"/>
  <anchor x="320" y="657" name="top"/>
  <outline>
    <contour>
      <point x="563" y="-14" type="curve" smooth="yes"/>
      <point x="629" y="-14"/>
      <point x="688" y="27"/>
      <point x="714" y="98" type="curve"/>
      <point x="697" y="109" type="line"/>
      <point x="670" y="69"/>
      <point x="640" y="53"/>
      <point x="599" y="53" type="curve" smooth="yes"/>
      <point x="541" y="53"/>
      <point x="504" y="91"/>
      <point x="450" y="153" type="curve" smooth="yes"/>
      <point x="366" y="251"/>
      <point x="235" y="454"/>
      <point x="235" y="552" type="curve" smooth="yes"/>
      <point x="235" y="600"/>
      <point x="266" y="632"/>
      <point x="315" y="632" type="curve" smooth="yes"/>
      <point x="366" y="632"/>
      <point x="393" y="593"/>
      <point x="393" y="543" type="curve" smooth="yes"/>
      <point x="393" y="484"/>
      <point x="366" y="440"/>
      <point x="273" y="397" type="curve"/>
      <point x="288" y="370" type="line"/>
      <point x="408" y="422"/>
      <point x="450" y="469"/>
      <point x="450" y="541" type="curve" smooth="yes"/>
      <point x="450" y="622"/>
      <point x="390" y="662"/>
      <point x="317" y="662" type="curve" smooth="yes"/>
      <point x="222" y="662"/>
      <point x="160" y="609"/>
      <point x="160" y="532" type="curve" smooth="yes"/>
      <point x="160" y="475"/>
      <point x="178" y="433"/>
      <point x="219" y="356" type="curve" smooth="yes"/>
      <point x="281" y="241"/>
      <point x="352" y="134"/>
      <point x="394" y="89" type="curve" smooth="yes"/>
      <point x="465" y="15"/>
      <point x="497" y="-14"/>
    </contour>
    <contour>
      <point x="204" y="-14" type="curve" smooth="yes"/>
      <point x="286" y="-14"/>
      <point x="340" y="12"/>
      <point x="412" y="86" type="curve"/>
      <point x="389" y="111" type="line"/>
      <point x="330" y="56"/>
      <point x="290" y="47"/>
      <point x="240" y="47" type="curve" smooth="yes"/>
      <point x="165" y="47"/>
      <point x="122" y="83"/>
      <point x="122" y="167" type="curve" smooth="yes"/>
      <point x="122" y="241"/>
      <point x="156" y="292"/>
      <point x="239" y="342" type="curve"/>
      <point x="224" y="373" type="line"/>
      <point x="86" y="296"/>
      <point x="30" y="236"/>
      <point x="30" y="142" type="curve" smooth="yes"/>
      <point x="30" y="41"/>
      <point x="92" y="-14"/>
    </contour>
    <contour>
      <point x="454" y="130" type="line"/>
      <point x="516" y="214"/>
      <point x="539" y="252"/>
      <point x="581" y="324" type="curve" smooth="yes"/>
      <point x="604" y="364"/>
      <point x="627" y="378"/>
      <point x="676" y="378" type="curve"/>
      <point x="676" y="409" type="line"/>
      <point x="456" y="409" type="line"/>
      <point x="456" y="378" type="line"/>
      <point x="503" y="378"/>
      <point x="518" y="366"/>
      <point x="518" y="337" type="curve" smooth="yes"/>
      <point x="518" y="293"/>
      <point x="494" y="249"/>
      <point x="431" y="152" type="curve"/>
    </contour>
  </outline>
</glyph>
<glyph name="quotesingle" format="2">
  <advance width="187"/>
  <unicode hex="0027"/>
  <outline>
    <contour>
      <point x="91" y="505" type="line"/>
      <point x="140" y="688" type="line"/>
      <point x="140" y="706" type="line"/>
      <point x="52" y="706" type="line"/>
      <point x="53" y="505" type="line"/>
    </contour>
  </outline>
</glyph>
<glyph name="parenleft" format="2">
  <advance width="343"/>
  <unicode hex="0028"/>
  <outline>
    <contour>
      <point x="312" y="-158" type="line"/>
      <point x="166" y="-62"/>
      <point x="112" y="73"/>
      <point x="112" y="274" type="curve" smooth="yes"/>
      <point x="112" y="473"/>
      <point x="166" y="607"/>
      <point x="312" y="704" type="curve"/>
      <point x="296" y="730" type="line"/>
      <point x="135" y="648"/>
      <point x="30" y="492"/>
      <point x="30" y="274" type="curve" smooth="yes"/>
      <point x="30" y="54"/>
      <point x="135" y="-103"/>
      <point x="296" y="-186" type="curve"/>
    </contour>
  </outline>
</glyph>
<glyph name="parenright" format="2">
  <advance width="343"/>
  <unicode hex="0029"/>
  <outline>
    <contour>
      <point x="47" y="-186" type="line"/>
      <point x="208" y="-103"/>
      <point x="313" y="54"/>
      <point x="313" y="274" type="curve" smooth="yes"/>
      <point x="313" y="492"/>
      <point x="208" y="648"/>
      <point x="47" y="730" type="curve"/>
      <point x="31" y="704" type="line"/>
      <point x="177" y="607"/>
      <point x="231" y="473"/>
      <point x="231" y="274" type="curve" smooth="yes"/>
      <point x="231" y="73"/>
      <point x="177" y="-62"/>
      <point x="31" y="-158" type="curve"/>
    </contour>
  </outline>
</glyph>
<glyph name="asterisk" format="2">
  <advance width="410"/>
  <unicode hex="002A"/>
  <outline>
    <contour>
      <point x="206" y="315" type="curve" smooth="yes"/>
      <point x="225" y="315"/>
      <point x="242" y="327"/>
      <point x="242" y="350" type="curve" smooth="yes"/>
      <point x="242" y="389"/>
      <point x="218" y="417"/>
      <point x="220" y="479" type="curve"/>
      <point x="221" y="480" type="line"/>
      <point x="268" y="447"/>
      <point x="305" y="388"/>
      <point x="335" y="388" type="curve" smooth="yes"/>
      <point x="355" y="388"/>
      <point x="372" y="406"/>
      <point x="372" y="426" type="curve" smooth="yes"/>
      <point x="372" y="473"/>
      <point x="298" y="468"/>
      <point x="232" y="502" type="curve"/>
      <point x="232" y="504" type="line"/>
      <point x="271" y="536"/>
      <point x="372" y="525"/>
      <point x="372" y="576" type="curve" smooth="yes"/>
      <point x="372" y="597"/>
      <point x="355" y="616"/>
      <point x="335" y="616" type="curve" smooth="yes"/>
      <point x="305" y="616"/>
      <point x="267" y="560"/>
      <point x="221" y="524" type="curve"/>
      <point x="220" y="525" type="line"/>
      <point x="218" y="588"/>
      <point x="242" y="614"/>
      <point x="242" y="654" type="curve" smooth="yes"/>
      <point x="242" y="678"/>
      <point x="225" y="689"/>
      <point x="206" y="689" type="curve" smooth="yes"/>
      <point x="189" y="689"/>
      <point x="169" y="678"/>
      <point x="169" y="653" type="curve" smooth="yes"/>
      <point x="169" y="615"/>
      <point x="190" y="592"/>
      <point x="190" y="526" type="curve"/>
      <point x="189" y="525" type="line"/>
      <point x="145" y="558"/>
      <point x="103" y="616"/>
      <point x="74" y="616" type="curve" smooth="yes"/>
      <point x="54" y="616"/>
      <point x="37" y="594"/>
      <point x="37" y="575" type="curve" smooth="yes"/>
      <point x="37" y="526"/>
      <point x="125" y="540"/>
      <point x="177" y="504" type="curve"/>
      <point x="177" y="502" type="line"/>
      <point x="131" y="469"/>
      <point x="37" y="476"/>
      <point x="37" y="427" type="curve" smooth="yes"/>
      <point x="37" y="409"/>
      <point x="54" y="389"/>
      <point x="74" y="388" type="curve" smooth="yes"/>
      <point x="108" y="387"/>
      <point x="140" y="455"/>
      <point x="189" y="480" type="curve"/>
      <point x="190" y="479" type="line"/>
      <point x="192" y="417"/>
      <point x="169" y="392"/>
      <point x="169" y="351" type="curve" smooth="yes"/>
      <point x="169" y="327"/>
      <point x="188" y="315"/>
    </contour>
  </outline>
</glyph>
<glyph name="plus" format="2">
  <advance width="720"/>
  <unicode hex="002B"/>
  <outline>
    <contour>
      <point x="396" y="-41" type="line"/>
      <point x="396" y="224" type="line"/>
      <point x="658" y="224" type="line"/>
      <point x="658" y="292" type="line"/>
      <point x="396" y="292" type="line"/>
      <point x="396" y="557" type="line"/>
      <point x="324" y="557" type="line"/>
      <point x="324" y="292" type="line"/>
      <point x="62" y="292" type="line"/>
      <point x="62" y="224" type="line"/>
      <point x="324" y="224" type="line"/>
      <point x="324" y="-41" type="line"/>
    </contour>
  </outline>
</glyph>
<glyph name="comma" format="2">
  <advance width="245"/>
  <unicode hex="002C"/>
  <outline>
    <contour>
      <point x="70" y="-132" type="line"/>
      <point x="110" y="-114"/>
      <point x="194" y="-80"/>
      <point x="194" y="33" type="curve" smooth="yes"/>
      <point x="194" y="88"/>
      <point x="167" y="121"/>
      <point x="117" y="121" type="curve" smooth="yes"/>
      <point x="77" y="121"/>
      <point x="55" y="94"/>
      <point x="55" y="62" type="curve" smooth="yes"/>
      <point x="55" y="33"/>
      <point x="71" y="8"/>
      <point x="110" y="8" type="curve" smooth="yes"/>
      <point x="121" y="8"/>
      <point x="130" y="10"/>
      <point x="141" y="14" type="curve"/>
      <point x="141" y="-67"/>
      <point x="95" y="-91"/>
      <point x="58" y="-107" type="curve"/>
    </contour>
  </outline>
</glyph>
<glyph name="period" format="2">
  <advance width="245"/>
  <unicode hex="002E"/>
  <outline>
    <contour>
      <point x="121" y="-8" type="curve" smooth="yes"/>
      <point x="161" y="-8"/>
      <point x="183" y="19"/>
      <point x="183" y="50" type="curve" smooth="yes"/>
      <point x="183" y="84"/>
      <point x="161" y="114"/>
      <point x="122" y="114" type="curve" smooth="yes"/>
      <point x="85" y="114"/>
      <point x="62" y="85"/>
      <point x="62" y="51" type="curve" smooth="yes"/>
      <point x="62" y="17"/>
      <point x="81" y="-8"/>
    </contour>
  </outline>
</glyph>
<glyph name="slash" format="2">
  <advance width="387"/>
  <unicode hex="002F"/>
  <outline>
    <contour>
      <point x="92" y="-89" type="line"/>
      <point x="352" y="709" type="line"/>
      <point x="297" y="709" type="line"/>
      <point x="36" y="-89" type="line"/>
    </contour>
  </outline>
</glyph>
<glyph name="zero" format="2">
  <advance width="495"/>
  <unicode hex="0030"/>
  <anchor x="247" y="0" name="bottom"/>
  <anchor x="247" y="0" name="cedilla"/>
  <anchor x="247" y="0" name="ogonek"/>
  <anchor x="250" y="657" name="top"/>
  <outline>
    <contour>
      <point x="247" y="-11" type="curve" smooth="yes"/>
      <point x="404" y="-11"/>
      <point x="468" y="146"/>
      <point x="468" y="317" type="curve" smooth="yes"/>
      <point x="468" y="523"/>
      <point x="378" y="642"/>
      <point x="249" y="642" type="curve" smooth="yes"/>
      <point x="104" y="642"/>
      <point x="27" y="510"/>
      <point x="27" y="320" type="curve" smooth="yes"/>
      <point x="27" y="143"/>
      <point x="86" y="-11"/>
    </contour>
    <contour>
      <point x="247" y="25" type="curve" smooth="yes"/>
      <point x="167" y="25"/>
      <point x="123" y="121"/>
      <point x="123" y="315" type="curve" smooth="yes"/>
      <point x="123" y="513"/>
      <point x="167" y="608"/>
      <point x="246" y="608" type="curve" smooth="yes"/>
      <point x="328" y="608"/>
      <point x="371" y="514"/>
      <point x="371" y="311" type="curve" smooth="yes"/>
      <point x="371" y="119"/>
      <point x="326" y="25"/>
    </contour>
  </outline>
</glyph>
<glyph name="one" format="2">
  <advance width="495"/>
  <unicode hex="0031"/>
  <anchor x="247" y="0" name="bottom"/>
  <anchor x="247" y="0" name="cedilla"/>
  <anchor x="247" y="0" name="ogonek"/>
  <anchor x="246" y="657" name="top"/>
  <outline>
    <contour>
      <point x="426" y="0" type="line"/>
      <point x="426" y="28" type="line"/>
      <point x="334" y="28"/>
      <point x="297" y="46"/>
      <point x="297" y="95" type="curve" smooth="yes"/>
      <point x="297" y="639" type="line"/>
      <point x="268" y="639" type="line"/>
      <point x="74" y="584" type="line"/>
      <point x="74" y="551" type="line"/>
      <point x="105" y="561"/>
      <point x="156" y="567"/>
      <point x="176" y="567" type="curve" smooth="yes"/>
      <point x="201" y="567"/>
      <point x="209" y="553"/>
      <point x="209" y="518" type="curve" smooth="yes"/>
      <point x="209" y="95" type="line" smooth="yes"/>
      <point x="209" y="45"/>
      <point x="174" y="28"/>
      <point x="80" y="28" type="curve"/>
      <point x="80" y="0" type="line"/>
    </contour>
  </outline>
</glyph>
<glyph name="three" format="2">
  <advance width="495"/>
  <unicode hex="0033"/>
  <anchor x="239" y="0" name="bottom"/>
  <anchor x="238" y="0" name="cedilla"/>
  <anchor x="238" y="0" name="ogonek"/>
  <anchor x="243" y="657" name="top"/>
  <outline>
    <contour>
      <point x="171" y="-13" type="curve" smooth="yes"/>
      <point x="317" y="-13"/>
      <point x="444" y="57"/>
      <point x="444" y="194" type="curve" smooth="yes"/>
      <point x="444" y="283"/>
      <point x="377" y="336"/>
      <point x="297" y="361" type="curve"/>
      <point x="297" y="364" type="line"/>
      <point x="360" y="404"/>
      <point x="405" y="441"/>
      <point x="405" y="510" type="curve" smooth="yes"/>
      <point x="405" y="586"/>
      <point x="346" y="644"/>
      <point x="244" y="644" type="curve" smooth="yes"/>
      <point x="162" y="644"/>
      <point x="100" y="598"/>
      <point x="63" y="511" type="curve"/>
      <point x="86" y="498" type="line"/>
      <point x="120" y="551"/>
      <point x="157" y="579"/>
      <point x="217" y="579" type="curve" smooth="yes"/>
      <point x="279" y="579"/>
      <point x="319" y="545"/>
      <point x="319" y="486" type="curve" smooth="yes"/>
      <point x="319" y="405"/>
      <point x="248" y="350"/>
      <point x="180" y="350" type="curve" smooth="yes"/>
      <point x="161" y="350" type="line"/>
      <point x="161" y="312" type="line"/>
      <point x="181" y="312" type="line" smooth="yes"/>
      <point x="277" y="312"/>
      <point x="362" y="253"/>
      <point x="362" y="164" type="curve" smooth="yes"/>
      <point x="362" y="66"/>
      <point x="301" y="37"/>
      <point x="238" y="37" type="curve" smooth="yes"/>
      <point x="187" y="37"/>
      <point x="138" y="86"/>
      <point x="98" y="86" type="curve" smooth="yes"/>
      <point x="72" y="86"/>
      <point x="59" y="63"/>
      <point x="59" y="42" type="curve" smooth="yes"/>
      <point x="59" y="16"/>
      <point x="81" y="-13"/>
    </contour>
  </outline>
</glyph>
<glyph name="four" format="2">
  <advance width="495"/>
  <unicode hex="0034"/>
  <anchor x="257" y="0" name="bottom"/>
  <anchor x="258" y="0" name="cedilla"/>
  <anchor x="258" y="0" name="ogonek"/>
  <anchor x="260" y="657" name="top"/>
  <outline>
    <contour>
      <point x="379" y="0" type="line"/>
      <point x="379" y="158" type="line"/>
      <point x="481" y="158" type="line"/>
      <point x="481" y="227" type="line"/>
      <point x="379" y="227" type="line"/>
      <point x="379" y="645" type="line"/>
      <point x="318" y="645" type="line"/>
      <point x="13" y="221" type="line"/>
      <point x="13" y="158" type="line"/>
      <point x="290" y="158" type="line"/>
      <point x="290" y="0" type="line"/>
    </contour>
    <contour>
      <point x="68" y="231" type="line"/>
      <point x="286" y="536" type="line"/>
      <point x="290" y="536" type="line"/>
      <point x="290" y="227" type="line"/>
      <point x="68" y="227" type="line"/>
    </contour>
  </outline>
</glyph>
<glyph name="five" format="2">
  <advance width="495"/>
  <unicode hex="0035"/>
  <anchor x="240" y="0" name="bottom"/>
  <anchor x="241" y="0" name="cedilla"/>
  <anchor x="241" y="0" name="ogonek"/>
  <anchor x="288" y="657" name="top"/>
  <outline>
    <contour>
      <point x="174" y="-13" type="curve" smooth="yes"/>
      <point x="333" y="-13"/>
      <point x="443" y="65"/>
      <point x="443" y="219" type="curve" smooth="yes"/>
      <point x="443" y="376"/>
      <point x="320" y="423"/>
      <point x="155" y="435" type="curve"/>
      <point x="182" y="549" type="line"/>
      <point x="417" y="549" type="line"/>
      <point x="433" y="630" type="line"/>
      <point x="159" y="630" type="line"/>
      <point x="97" y="369" type="line"/>
      <point x="109" y="354" type="line"/>
      <point x="241" y="351"/>
      <point x="370" y="327"/>
      <point x="370" y="179" type="curve" smooth="yes"/>
      <point x="370" y="75"/>
      <point x="307" y="37"/>
      <point x="236" y="37" type="curve" smooth="yes"/>
      <point x="172" y="37"/>
      <point x="139" y="86"/>
      <point x="99" y="86" type="curve" smooth="yes"/>
      <point x="74" y="86"/>
      <point x="59" y="66"/>
      <point x="59" y="43" type="curve" smooth="yes"/>
      <point x="59" y="6"/>
      <point x="97" y="-13"/>
    </contour>
  </outline>
</glyph>
<glyph name="six" format="2">
  <advance width="495"/>
  <unicode hex="0036"/>
  <anchor x="247" y="0" name="bottom"/>
  <anchor x="247" y="0" name="cedilla"/>
  <anchor x="256" y="0" name="ogonek"/>
  <anchor x="257" y="657" name="top"/>
  <outline>
    <contour>
      <point x="259" y="-12" type="curve" smooth="yes"/>
      <point x="385" y="-12"/>
      <point x="457" y="67"/>
      <point x="457" y="203" type="curve" smooth="yes"/>
      <point x="457" y="334"/>
      <point x="386" y="413"/>
      <point x="277" y="413" type="curve" smooth="yes"/>
      <point x="225" y="413"/>
      <point x="188" y="391"/>
      <point x="147" y="351" type="curve"/>
      <point x="140" y="352" type="line"/>
      <point x="165" y="498"/>
      <point x="277" y="596"/>
      <point x="417" y="617" type="curve"/>
      <point x="415" y="646" type="line"/>
      <point x="200" y="637"/>
      <point x="45" y="498"/>
      <point x="45" y="257" type="curve" smooth="yes"/>
      <point x="45" y="110"/>
      <point x="110" y="-12"/>
    </contour>
    <contour>
      <point x="263" y="23" type="curve" smooth="yes"/>
      <point x="176" y="23"/>
      <point x="135" y="112"/>
      <point x="135" y="236" type="curve" smooth="yes"/>
      <point x="135" y="323"/>
      <point x="189" y="355"/>
      <point x="247" y="355" type="curve" smooth="yes"/>
      <point x="330" y="355"/>
      <point x="370" y="285"/>
      <point x="370" y="195" type="curve" smooth="yes"/>
      <point x="370" y="68"/>
      <point x="330" y="23"/>
    </contour>
  </outline>
</glyph>
<glyph name="seven" format="2">
  <advance width="495"/>
  <unicode hex="0037"/>
  <anchor x="238" y="0" name="bottom"/>
  <anchor x="238" y="0" name="cedilla"/>
  <anchor x="238" y="0" name="ogonek"/>
  <anchor x="269" y="657" name="top"/>
  <outline>
    <contour>
      <point x="230" y="-8" type="line"/>
      <point x="464" y="599" type="line"/>
      <point x="464" y="630" type="line"/>
      <point x="82" y="630" type="line"/>
      <point x="42" y="477" type="line"/>
      <point x="73" y="474" type="line"/>
      <point x="100" y="539"/>
      <point x="108" y="549"/>
      <point x="164" y="549" type="curve" smooth="yes"/>
      <point x="387" y="549" type="line"/>
      <point x="151" y="-8" type="line"/>
    </contour>
  </outline>
</glyph>
<glyph name="eight" format="2">
  <advance width="495"/>
  <unicode hex="0038"/>
  <anchor x="247" y="0" name="bottom"/>
  <anchor x="247" y="0" name="cedilla"/>
  <anchor x="251" y="0" name="ogonek"/>
  <anchor x="250" y="657" name="top"/>
  <outline>
    <contour>
      <point x="246" y="-12" type="curve" smooth="yes"/>
      <point x="365" y="-12"/>
      <point x="448" y="45"/>
      <point x="448" y="150" type="curve" smooth="yes"/>
      <point x="448" y="233"/>
      <point x="409" y="281"/>
      <point x="283" y="356" type="curve"/>
      <point x="276" y="361" type="line"/>
      <point x="178" y="419"/>
      <point x="137" y="455"/>
      <point x="137" y="517" type="curve" smooth="yes"/>
      <point x="137" y="578"/>
      <point x="179" y="614"/>
      <point x="247" y="614" type="curve" smooth="yes"/>
      <point x="311" y="614"/>
      <point x="350" y="577"/>
      <point x="350" y="511" type="curve" smooth="yes"/>
      <point x="350" y="444"/>
      <point x="328" y="404"/>
      <point x="253" y="362" type="curve"/>
      <point x="295" y="340" type="line"/>
      <point x="295" y="352" type="line"/>
      <point x="388" y="403"/>
      <point x="424" y="436"/>
      <point x="424" y="509" type="curve" smooth="yes"/>
      <point x="424" y="588"/>
      <point x="348" y="647"/>
      <point x="249" y="647" type="curve" smooth="yes"/>
      <point x="139" y="647"/>
      <point x="59" y="590"/>
      <point x="59" y="499" type="curve" smooth="yes"/>
      <point x="59" y="428"/>
      <point x="83" y="387"/>
      <point x="195" y="311" type="curve"/>
      <point x="200" y="309" type="line"/>
      <point x="332" y="225"/>
      <point x="364" y="187"/>
      <point x="364" y="121" type="curve" smooth="yes"/>
      <point x="364" y="53"/>
      <point x="312" y="19"/>
      <point x="250" y="19" type="curve" smooth="yes"/>
      <point x="174" y="19"/>
      <point x="124" y="60"/>
      <point x="124" y="150" type="curve" smooth="yes"/>
      <point x="124" y="222"/>
      <point x="159" y="257"/>
      <point x="222" y="307" type="curve"/>
      <point x="183" y="328" type="line"/>
      <point x="183" y="316" type="line"/>
      <point x="90" y="254"/>
      <point x="46" y="222"/>
      <point x="46" y="142" type="curve" smooth="yes"/>
      <point x="46" y="40"/>
      <point x="130" y="-12"/>
    </contour>
  </outline>
</glyph>
<glyph name="less" format="2">
  <advance width="701"/>
  <unicode hex="003C"/>
  <outline>
    <contour>
      <point x="636" y="40" type="line"/>
      <point x="193" y="260" type="line"/>
      <point x="636" y="480" type="line"/>
      <point x="636" y="547" type="line"/>
      <point x="57" y="265" type="line"/>
      <point x="57" y="255" type="line"/>
      <point x="636" y="-25" type="line"/>
    </contour>
  </outline>
</glyph>
<glyph name="equal" format="2">
  <advance width="720"/>
  <unicode hex="003D"/>
  <outline>
    <contour>
      <point x="658" y="342" type="line"/>
      <point x="658" y="410" type="line"/>
      <point x="62" y="410" type="line"/>
      <point x="62" y="342" type="line"/>
    </contour>
    <contour>
      <point x="658" y="105" type="line"/>
      <point x="658" y="172" type="line"/>
      <point x="62" y="172" type="line"/>
      <point x="62" y="105" type="line"/>
    </contour>
  </outline>
</glyph>
<glyph name="greater" format="2">
  <advance width="701"/>
  <unicode hex="003E"/>
  <outline>
    <contour>
      <point x="650" y="255" type="line"/>
      <point x="650" y="265" type="line"/>
      <point x="71" y="547" type="line"/>
      <point x="71" y="480" type="line"/>
      <point x="513" y="260" type="line"/>
      <point x="71" y="40" type="line"/>
      <point x="71" y="-25" type="line"/>
    </contour>
  </outline>
</glyph>
<glyph name="at" format="2">
  <advance width="905"/>
  <unicode hex="0040"/>
  <outline>
    <contour>
      <point x="472" y="-186" type="curve" smooth="yes"/>
      <point x="559" y="-186"/>
      <point x="637" y="-168"/>
      <point x="727" y="-117" type="curve"/>
      <point x="714" y="-88" type="line"/>
      <point x="630" y="-128"/>
      <point x="554" y="-136"/>
      <point x="480" y="-136" type="curve" smooth="yes"/>
      <point x="262" y="-136"/>
      <point x="132" y="-2"/>
      <point x="132" y="226" type="curve" smooth="yes"/>
      <point x="132" y="453"/>
      <point x="268" y="582"/>
      <point x="468" y="582" type="curve" smooth="yes"/>
      <point x="653" y="582"/>
      <point x="779" y="461"/>
      <point x="779" y="266" type="curve" smooth="yes"/>
      <point x="779" y="128"/>
      <point x="743" y="50"/>
      <point x="661" y="50" type="curve" smooth="yes"/>
      <point x="630" y="50"/>
      <point x="623" y="75"/>
      <point x="623" y="103" type="curve" smooth="yes"/>
      <point x="627" y="439" type="line"/>
      <point x="581" y="439" type="line"/>
      <point x="555" y="396" type="line"/>
      <point x="548" y="396" type="line"/>
      <point x="527" y="422"/>
      <point x="497" y="445"/>
      <point x="449" y="445" type="curve" smooth="yes"/>
      <point x="311" y="445"/>
      <point x="247" y="317"/>
      <point x="247" y="191" type="curve" smooth="yes"/>
      <point x="247" y="32"/>
      <point x="324" y="-12"/>
      <point x="401" y="-12" type="curve" smooth="yes"/>
      <point x="461" y="-12"/>
      <point x="513" y="24"/>
      <point x="547" y="82" type="curve"/>
      <point x="552" y="82" type="line"/>
      <point x="560" y="17"/>
      <point x="584" y="-8"/>
      <point x="647" y="-8" type="curve" smooth="yes"/>
      <point x="768" y="-8"/>
      <point x="845" y="92"/>
      <point x="845" y="266" type="curve" smooth="yes"/>
      <point x="845" y="476"/>
      <point x="707" y="626"/>
      <point x="468" y="626" type="curve" smooth="yes"/>
      <point x="227" y="626"/>
      <point x="60" y="461"/>
      <point x="60" y="219" type="curve" smooth="yes"/>
      <point x="60" y="-28"/>
      <point x="207" y="-186"/>
    </contour>
    <contour>
      <point x="430" y="50" type="curve" smooth="yes"/>
      <point x="378" y="50"/>
      <point x="329" y="81"/>
      <point x="329" y="212" type="curve" smooth="yes"/>
      <point x="329" y="304"/>
      <point x="358" y="410"/>
      <point x="451" y="410" type="curve" smooth="yes"/>
      <point x="504" y="410"/>
      <point x="539" y="368"/>
      <point x="547" y="323" type="curve"/>
      <point x="545" y="137" type="line"/>
      <point x="529" y="96"/>
      <point x="493" y="50"/>
    </contour>
  </outline>
</glyph>
<glyph name="A" format="2">
  <advance width="718"/>
  <unicode hex="0041"/>
  <anchor x="336" y="0" name="bottom"/>
  <anchor x="337" y="0" name="cedilla"/>
  <anchor x="444" y="0" name="ogonek"/>
  <anchor x="354" y="657" name="top"/>
  <outline>
    <contour>
      <point x="213" y="0" type="line"/>
      <point x="213" y="30" type="line"/>
      <point x="166" y="30"/>
      <point x="146" y="36"/>
      <point x="146" y="64" type="curve" smooth="yes"/>
      <point x="146" y="82"/>
      <point x="151" y="97"/>
      <point x="157" y="113" type="curve"/>
      <point x="206" y="229" type="line"/>
      <point x="213" y="249" type="line"/>
      <point x="330" y="539" type="line"/>
      <point x="333" y="539" type="line"/>
      <point x="447" y="249" type="line"/>
      <point x="454" y="229" type="line"/>
      <point x="497" y="129" type="line" smooth="yes"/>
      <point x="510" y="99"/>
      <point x="514" y="81"/>
      <point x="514" y="67" type="curve" smooth="yes"/>
      <point x="514" y="32"/>
      <point x="475" y="30"/>
      <point x="445" y="30" type="curve"/>
      <point x="445" y="0" type="line"/>
      <point x="714" y="0" type="line"/>
      <point x="714" y="30" type="line"/>
      <point x="660" y="30"/>
      <point x="640" y="53"/>
      <point x="611" y="119" type="curve" smooth="yes"/>
      <point x="374" y="662" type="line"/>
      <point x="333" y="662" type="line"/>
      <point x="121" y="160" type="line" smooth="yes"/>
      <point x="73" y="46"/>
      <point x="59" y="30"/>
      <point x="3" y="30" type="curve"/>
      <point x="3" y="0" type="line"/>
    </contour>
    <contour>
      <point x="469" y="219" type="line"/>
      <point x="454" y="259" type="line"/>
      <point x="206" y="259" type="line"/>
      <point x="191" y="219" type="line"/>
    </contour>
  </outline>
</glyph>
<glyph name="C" format="2">
  <advance width="670"/>
  <unicode hex="0043"/>
  <anchor x="364" y="0" name="bottom"/>
  <anchor x="356" y="0" name="cedilla"/>
  <anchor x="357" y="0" name="ogonek"/>
  <anchor x="377" y="657" name="top"/>
  <outline>
    <contour>
      <point x="364" y="-11" type="curve" smooth="yes"/>
      <point x="495" y="-11"/>
      <point x="578" y="47"/>
      <point x="632" y="128" type="curve"/>
      <point x="608" y="149" type="line"/>
      <point x="552" y="88"/>
      <point x="485" y="52"/>
      <point x="393" y="52" type="curve" smooth="yes"/>
      <point x="252" y="52"/>
      <point x="154" y="138"/>
      <point x="154" y="338" type="curve" smooth="yes"/>
      <point x="154" y="516"/>
      <point x="235" y="626"/>
      <point x="379" y="626" type="curve" smooth="yes"/>
      <point x="482" y="626"/>
      <point x="553" y="571"/>
      <point x="575" y="440" type="curve"/>
      <point x="609" y="440" type="line"/>
      <point x="609" y="669" type="line"/>
      <point x="579" y="669" type="line"/>
      <point x="567" y="649"/>
      <point x="561" y="633"/>
      <point x="545" y="633" type="curve" smooth="yes"/>
      <point x="520" y="633"/>
      <point x="483" y="669"/>
      <point x="378" y="669" type="curve" smooth="yes"/>
      <point x="186" y="669"/>
      <point x="50" y="546"/>
      <point x="50" y="328" type="curve" smooth="yes"/>
      <point x="50" y="133"/>
      <point x="158" y="-11"/>
    </contour>
  </outline>
</glyph>
<glyph name="D" format="2">
  <advance width="730"/>
  <unicode hex="0044"/>
  <anchor x="322" y="0" name="bottom"/>
  <anchor x="321" y="0" name="cedilla"/>
  <anchor x="335" y="0" name="ogonek"/>
  <anchor x="343" y="657" name="top"/>
  <outline>
    <contour>
      <point x="321" y="0" type="line" smooth="yes"/>
      <point x="537" y="0"/>
      <point x="680" y="102"/>
      <point x="680" y="332" type="curve" smooth="yes"/>
      <point x="680" y="576"/>
      <point x="518" y="657"/>
      <point x="310" y="657" type="curve" smooth="yes"/>
      <point x="35" y="657" type="line"/>
      <point x="35" y="627" type="line"/>
      <point x="110" y="627"/>
      <point x="133" y="616"/>
      <point x="133" y="543" type="curve" smooth="yes"/>
      <point x="133" y="124" type="line" smooth="yes"/>
      <point x="133" y="43"/>
      <point x="123" y="30"/>
      <point x="35" y="30" type="curve"/>
      <point x="35" y="0" type="line"/>
    </contour>
    <contour>
      <point x="284" y="38" type="curve" smooth="yes"/>
      <point x="264" y="38"/>
      <point x="245" y="39"/>
      <point x="225" y="41" type="curve"/>
      <point x="225" y="614" type="line"/>
      <point x="244" y="616"/>
      <point x="258" y="616"/>
      <point x="274" y="616" type="curve" smooth="yes"/>
      <point x="481" y="616"/>
      <point x="575" y="513"/>
      <point x="575" y="323" type="curve" smooth="yes"/>
      <point x="575" y="98"/>
      <point x="466" y="38"/>
    </contour>
  </outline>
</glyph>
<glyph name="E" format="2">
  <advance width="626"/>
  <unicode hex="0045"/>
  <anchor x="320" y="0" name="bottom"/>
  <anchor x="325" y="0" name="cedilla"/>
  <anchor x="464" y="0" name="ogonek"/>
  <anchor x="320" y="657" name="top"/>
  <outline>
    <contour>
      <point x="570" y="0" type="line"/>
      <point x="598" y="186" type="line"/>
      <point x="566" y="186" type="line"/>
      <point x="527" y="67"/>
      <point x="509" y="43"/>
      <point x="354" y="44" type="curve"/>
      <point x="225" y="44" type="line"/>
      <point x="225" y="319" type="line"/>
      <point x="342" y="319" type="line" smooth="yes"/>
      <point x="434" y="319"/>
      <point x="454" y="308"/>
      <point x="454" y="226" type="curve"/>
      <point x="486" y="226" type="line"/>
      <point x="486" y="458" type="line"/>
      <point x="454" y="458" type="line"/>
      <point x="454" y="377"/>
      <point x="434" y="358"/>
      <point x="342" y="358" type="curve" smooth="yes"/>
      <point x="225" y="358" type="line"/>
      <point x="225" y="612" type="line"/>
      <point x="372" y="612" type="line" smooth="yes"/>
      <point x="495" y="612"/>
      <point x="520" y="593"/>
      <point x="535" y="493" type="curve"/>
      <point x="567" y="493" type="line"/>
      <point x="561" y="657" type="line"/>
      <point x="36" y="657" type="line"/>
      <point x="36" y="627" type="line"/>
      <point x="117" y="627"/>
      <point x="133" y="611"/>
      <point x="133" y="535" type="curve" smooth="yes"/>
      <point x="133" y="118" type="line" smooth="yes"/>
      <point x="133" y="40"/>
      <point x="117" y="30"/>
      <point x="36" y="30" type="curve"/>
      <point x="36" y="0" type="line"/>
    </contour>
  </outline>
</glyph>
<glyph name="H" format="2">
  <advance width="777"/>
  <unicode hex="0048"/>
  <anchor x="389" y="0" name="bottom"/>
  <anchor x="179" y="0" name="cedilla"/>
  <anchor x="600" y="0" name="ogonek"/>
  <anchor x="389" y="657" name="top"/>
  <outline>
    <contour>
      <point x="323" y="0" type="line"/>
      <point x="323" y="30" type="line"/>
      <point x="233" y="30"/>
      <point x="225" y="43"/>
      <point x="225" y="131" type="curve" smooth="yes"/>
      <point x="225" y="318" type="line"/>
      <point x="553" y="318" type="line"/>
      <point x="553" y="131" type="line" smooth="yes"/>
      <point x="553" y="44"/>
      <point x="545" y="30"/>
      <point x="456" y="30" type="curve"/>
      <point x="456" y="0" type="line"/>
      <point x="742" y="0" type="line"/>
      <point x="742" y="30" type="line"/>
      <point x="651" y="30"/>
      <point x="644" y="44"/>
      <point x="644" y="131" type="curve" smooth="yes"/>
      <point x="644" y="525" type="line" smooth="yes"/>
      <point x="644" y="604"/>
      <point x="647" y="627"/>
      <point x="742" y="627" type="curve"/>
      <point x="742" y="657" type="line"/>
      <point x="456" y="657" type="line"/>
      <point x="456" y="627" type="line"/>
      <point x="548" y="627"/>
      <point x="553" y="603"/>
      <point x="553" y="525" type="curve" smooth="yes"/>
      <point x="553" y="357" type="line"/>
      <point x="225" y="357" type="line"/>
      <point x="225" y="525" type="line" smooth="yes"/>
      <point x="225" y="603"/>
      <point x="228" y="627"/>
      <point x="323" y="627" type="curve"/>
      <point x="323" y="657" type="line"/>
      <point x="36" y="657" type="line"/>
      <point x="36" y="627" type="line"/>
      <point x="128" y="627"/>
      <point x="133" y="603"/>
      <point x="133" y="525" type="curve" smooth="yes"/>
      <point x="133" y="131" type="line" smooth="yes"/>
      <point x="133" y="42"/>
      <point x="126" y="30"/>
      <point x="36" y="30" type="curve"/>
      <point x="36" y="0" type="line"/>
    </contour>
  </outline>
</glyph>
<glyph name="I" format="2">
  <advance width="357"/>
  <unicode hex="0049"/>
  <anchor x="179" y="0" name="bottom"/>
  <anchor x="180" y="0" name="cedilla"/>
  <anchor x="167" y="0" name="ogonek"/>
  <anchor x="179" y="657" name="top"/>
  <outline>
    <contour>
      <point x="322" y="0" type="line"/>
      <point x="322" y="30" type="line"/>
      <point x="233" y="30"/>
      <point x="224" y="45"/>
      <point x="224" y="131" type="curve" smooth="yes"/>
      <point x="224" y="525" type="line" smooth="yes"/>
      <point x="224" y="603"/>
      <point x="227" y="627"/>
      <point x="322" y="627" type="curve"/>
      <point x="322" y="657" type="line"/>
      <point x="34" y="657" type="line"/>
      <point x="34" y="627" type="line"/>
      <point x="129" y="627"/>
      <point x="133" y="603"/>
      <point x="133" y="525" type="curve" smooth="yes"/>
      <point x="133" y="131" type="line" smooth="yes"/>
      <point x="133" y="45"/>
      <point x="124" y="30"/>
      <point x="34" y="30" type="curve"/>
      <point x="34" y="0" type="line"/>
    </contour>
  </outline>
</glyph>
<glyph name="J" format="2">
  <advance width="396"/>
  <unicode hex="004A"/>
  <anchor x="143" y="0" name="bottom"/>
  <anchor x="147" y="0" name="cedilla"/>
  <anchor x="134" y="0" name="ogonek"/>
  <anchor x="238" y="657" name="top"/>
  <outline>
    <contour>
      <point x="119" y="-12" type="curve" smooth="yes"/>
      <point x="214" y="-12"/>
      <point x="283" y="20"/>
      <point x="283" y="152" type="curve" smooth="yes"/>
      <point x="283" y="525" type="line" smooth="yes"/>
      <point x="283" y="603"/>
      <point x="292" y="627"/>
      <point x="375" y="627" type="curve"/>
      <point x="375" y="657" type="line"/>
      <point x="93" y="657" type="line"/>
      <point x="93" y="627" type="line"/>
      <point x="188" y="627"/>
      <point x="191" y="603"/>
      <point x="191" y="525" type="curve" smooth="yes"/>
      <point x="191" y="123" type="line" smooth="yes"/>
      <point x="191" y="53"/>
      <point x="183" y="23"/>
      <point x="144" y="23" type="curve" smooth="yes"/>
      <point x="98" y="23"/>
      <point x="103" y="116"/>
      <point x="44" y="116" type="curve" smooth="yes"/>
      <point x="16" y="116"/>
      <point x="0" y="97"/>
      <point x="0" y="67" type="curve" smooth="yes"/>
      <point x="0" y="13"/>
      <point x="54" y="-12"/>
    </contour>
  </outline>
</glyph>
<glyph name="K" format="2">
  <advance width="702"/>
  <unicode hex="004B"/>
  <anchor x="353" y="0" name="bottom"/>
  <anchor x="353" y="0" name="cedilla"/>
  <anchor x="573" y="0" name="ogonek"/>
  <anchor x="353" y="657" name="top"/>
  <outline>
    <contour>
      <point x="322" y="0" type="line"/>
      <point x="322" y="30" type="line"/>
      <point x="234" y="30"/>
      <point x="224" y="47"/>
      <point x="224" y="131" type="curve" smooth="yes"/>
      <point x="224" y="311" type="line"/>
      <point x="233" y="311" type="line"/>
      <point x="321" y="223" type="line" smooth="yes"/>
      <point x="422" y="124"/>
      <point x="466" y="83"/>
      <point x="466" y="50" type="curve" smooth="yes"/>
      <point x="466" y="35"/>
      <point x="455" y="30"/>
      <point x="427" y="30" type="curve" smooth="yes"/>
      <point x="407" y="30" type="line"/>
      <point x="407" y="0" type="line"/>
      <point x="696" y="0" type="line"/>
      <point x="696" y="30" type="line"/>
      <point x="647" y="30"/>
      <point x="625" y="42"/>
      <point x="592" y="73" type="curve"/>
      <point x="305" y="355" type="line"/>
      <point x="522" y="558" type="line" smooth="yes"/>
      <point x="576" y="608"/>
      <point x="596" y="624"/>
      <point x="653" y="627" type="curve"/>
      <point x="653" y="657" type="line"/>
      <point x="408" y="657" type="line"/>
      <point x="408" y="627" type="line"/>
      <point x="424" y="627" type="line" smooth="yes"/>
      <point x="452" y="627"/>
      <point x="462" y="617"/>
      <point x="462" y="596" type="curve" smooth="yes"/>
      <point x="462" y="566"/>
      <point x="437" y="539"/>
      <point x="391" y="495" type="curve" smooth="yes"/>
      <point x="229" y="337" type="line"/>
      <point x="224" y="337" type="line"/>
      <point x="224" y="525" type="line" smooth="yes"/>
      <point x="224" y="603"/>
      <point x="227" y="627"/>
      <point x="322" y="627" type="curve"/>
      <point x="322" y="657" type="line"/>
      <point x="34" y="657" type="line"/>
      <point x="34" y="627" type="line"/>
      <point x="129" y="627"/>
      <point x="133" y="603"/>
      <point x="133" y="525" type="curve" smooth="yes"/>
      <point x="133" y="131" type="line" smooth="yes"/>
      <point x="133" y="43"/>
      <point x="125" y="30"/>
      <point x="34" y="30" type="curve"/>
      <point x="34" y="0" type="line"/>
    </contour>
  </outline>
</glyph>
<glyph name="M" format="2">
  <advance width="895"/>
  <unicode hex="004D"/>
  <anchor x="424" y="0" name="bottom"/>
  <anchor x="424" y="0" name="cedilla"/>
  <anchor x="721" y="0" name="ogonek"/>
  <anchor x="436" y="657" name="top"/>
  <outline>
    <contour>
      <point x="263" y="0" type="line"/>
      <point x="263" y="30" type="line"/>
      <point x="187" y="30"/>
      <point x="172" y="43"/>
      <point x="172" y="146" type="curve" smooth="yes"/>
      <point x="172" y="549" type="line"/>
      <point x="176" y="549" type="line"/>
      <point x="412" y="0" type="line"/>
      <point x="436" y="0" type="line"/>
      <point x="669" y="550" type="line"/>
      <point x="673" y="550" type="line"/>
      <point x="673" y="119" type="line" smooth="yes"/>
      <point x="673" y="46"/>
      <point x="661" y="30"/>
      <point x="584" y="30" type="curve"/>
      <point x="584" y="0" type="line"/>
      <point x="850" y="0" type="line"/>
      <point x="850" y="30" type="line"/>
      <point x="778" y="30"/>
      <point x="762" y="46"/>
      <point x="762" y="119" type="curve" smooth="yes"/>
      <point x="762" y="536" type="line" smooth="yes"/>
      <point x="762" y="610"/>
      <point x="778" y="627"/>
      <point x="849" y="627" type="curve"/>
      <point x="849" y="657" type="line"/>
      <point x="659" y="657" type="line"/>
      <point x="449" y="154" type="line"/>
      <point x="445" y="154" type="line"/>
      <point x="234" y="657" type="line"/>
      <point x="30" y="657" type="line"/>
      <point x="30" y="627" type="line"/>
      <point x="109" y="627"/>
      <point x="123" y="610"/>
      <point x="123" y="535" type="curve" smooth="yes"/>
      <point x="123" y="146" type="line" smooth="yes"/>
      <point x="123" y="43"/>
      <point x="109" y="30"/>
      <point x="28" y="30" type="curve"/>
      <point x="28" y="0" type="line"/>
    </contour>
  </outline>
</glyph>
<glyph name="N" format="2">
  <advance width="742"/>
  <unicode hex="004E"/>
  <anchor x="357" y="0" name="bottom"/>
  <anchor x="358" y="0" name="cedilla"/>
  <anchor x="357" y="0" name="ogonek"/>
  <anchor x="379" y="657" name="top"/>
  <outline>
    <contour>
      <point x="624" y="-8" type="line"/>
      <point x="624" y="493" type="line" smooth="yes"/>
      <point x="624" y="588"/>
      <point x="638" y="627"/>
      <point x="715" y="627" type="curve"/>
      <point x="715" y="657" type="line"/>
      <point x="479" y="657" type="line"/>
      <point x="479" y="627" type="line"/>
      <point x="565" y="627"/>
      <point x="574" y="591"/>
      <point x="574" y="498" type="curve" smooth="yes"/>
      <point x="574" y="174" type="line"/>
      <point x="569" y="174" type="line"/>
      <point x="199" y="657" type="line"/>
      <point x="29" y="657" type="line"/>
      <point x="29" y="627" type="line"/>
      <point x="74" y="627"/>
      <point x="93" y="617"/>
      <point x="131" y="566" type="curve"/>
      <point x="149" y="527" type="line"/>
      <point x="177" y="527" type="line"/>
      <point x="591" y="-8" type="line"/>
    </contour>
    <contour>
      <point x="263" y="0" type="line"/>
      <point x="263" y="30" type="line"/>
      <point x="188" y="30"/>
      <point x="172" y="49"/>
      <point x="172" y="149" type="curve" smooth="yes"/>
      <point x="172" y="597" type="line"/>
      <point x="123" y="597" type="line"/>
      <point x="123" y="149" type="line" smooth="yes"/>
      <point x="123" y="48"/>
      <point x="108" y="30"/>
      <point x="29" y="30" type="curve"/>
      <point x="29" y="0" type="line"/>
    </contour>
  </outline>
</glyph>
<glyph name="O" format="2">
  <advance width="737"/>
  <unicode hex="004F"/>
  <anchor x="369" y="0" name="bottom"/>
  <anchor x="382" y="0" name="cedilla"/>
  <anchor x="419" y="0" name="ogonek"/>
  <anchor x="369" y="657" name="top"/>
  <outline>
    <contour>
      <point x="369" y="-12" type="curve" smooth="yes"/>
      <point x="566" y="-12"/>
      <point x="687" y="129"/>
      <point x="687" y="338" type="curve" smooth="yes"/>
      <point x="687" y="536"/>
      <point x="568" y="669"/>
      <point x="369" y="669" type="curve" smooth="yes"/>
      <point x="171" y="669"/>
      <point x="50" y="532"/>
      <point x="50" y="329" type="curve" smooth="yes"/>
      <point x="50" y="117"/>
      <point x="170" y="-12"/>
    </contour>
    <contour>
      <point x="370" y="30" type="curve" smooth="yes"/>
      <point x="226" y="30"/>
      <point x="155" y="147"/>
      <point x="155" y="335" type="curve" smooth="yes"/>
      <point x="155" y="518"/>
      <point x="237" y="627"/>
      <point x="366" y="627" type="curve" smooth="yes"/>
      <point x="496" y="627"/>
      <point x="582" y="515"/>
      <point x="582" y="335" type="curve" smooth="yes"/>
      <point x="582" y="134"/>
      <point x="512" y="30"/>
    </contour>
  </outline>
</glyph>
<glyph name="P" format="2">
  <advance width="569"/>
  <unicode hex="0050"/>
  <anchor x="172" y="0" name="bottom"/>
  <anchor x="190" y="0" name="cedilla"/>
  <anchor x="167" y="0" name="ogonek"/>
  <anchor x="292" y="657" name="top"/>
  <outline>
    <contour>
      <point x="326" y="0" type="line"/>
      <point x="326" y="30" type="line"/>
      <point x="245" y="30"/>
      <point x="225" y="41"/>
      <point x="225" y="123" type="curve" smooth="yes"/>
      <point x="225" y="294" type="line"/>
      <point x="236" y="289"/>
      <point x="262" y="286"/>
      <point x="282" y="286" type="curve" smooth="yes"/>
      <point x="413" y="286"/>
      <point x="544" y="335"/>
      <point x="544" y="491" type="curve" smooth="yes"/>
      <point x="544" y="624"/>
      <point x="425" y="657"/>
      <point x="297" y="657" type="curve" smooth="yes"/>
      <point x="48" y="657" type="line"/>
      <point x="48" y="627" type="line"/>
      <point x="112" y="627"/>
      <point x="133" y="616"/>
      <point x="133" y="557" type="curve" smooth="yes"/>
      <point x="133" y="127" type="line" smooth="yes"/>
      <point x="133" y="43"/>
      <point x="122" y="30"/>
      <point x="44" y="30" type="curve"/>
      <point x="44" y="0" type="line"/>
    </contour>
    <contour>
      <point x="279" y="327" type="curve" smooth="yes"/>
      <point x="259" y="327"/>
      <point x="236" y="329"/>
      <point x="225" y="331" type="curve"/>
      <point x="225" y="614" type="line"/>
      <point x="246" y="616"/>
      <point x="265" y="618"/>
      <point x="285" y="618" type="curve" smooth="yes"/>
      <point x="393" y="618"/>
      <point x="445" y="567"/>
      <point x="445" y="477" type="curve" smooth="yes"/>
      <point x="445" y="361"/>
      <point x="387" y="327"/>
    </contour>
  </outline>
</glyph>
<glyph name="Q" format="2">
  <advance width="737"/>
  <unicode hex="0051"/>
  <anchor x="369" y="-120" name="bottom"/>
  <anchor x="370" y="-120" name="cedilla"/>
  <anchor x="369" y="-120" name="ogonek"/>
  <anchor x="369" y="657" name="top"/>
  <outline>
    <contour>
      <point x="443" y="-1" type="line"/>
      <point x="593" y="26"/>
      <point x="687" y="159"/>
      <point x="687" y="339" type="curve" smooth="yes"/>
      <point x="687" y="535"/>
      <point x="568" y="669"/>
      <point x="369" y="669" type="curve" smooth="yes"/>
      <point x="171" y="669"/>
      <point x="50" y="532"/>
      <point x="50" y="329" type="curve" smooth="yes"/>
      <point x="50" y="119"/>
      <point x="169" y="-7"/>
      <point x="362" y="-12" type="curve"/>
    </contour>
    <contour>
      <point x="714" y="-173" type="line"/>
      <point x="714" y="-140" type="line"/>
      <point x="594" y="-140"/>
      <point x="530" y="-100"/>
      <point x="459" y="0" type="curve"/>
      <point x="459" y="18" type="line"/>
      <point x="336" y="3" type="line"/>
      <point x="368" y="-52" type="line" smooth="yes"/>
      <point x="421" y="-143"/>
      <point x="498" y="-173"/>
      <point x="664" y="-173" type="curve" smooth="yes"/>
    </contour>
    <contour>
      <point x="370" y="30" type="curve" smooth="yes"/>
      <point x="226" y="30"/>
      <point x="155" y="147"/>
      <point x="155" y="335" type="curve" smooth="yes"/>
      <point x="155" y="518"/>
      <point x="237" y="627"/>
      <point x="366" y="627" type="curve" smooth="yes"/>
      <point x="495" y="627"/>
      <point x="582" y="515"/>
      <point x="582" y="335" type="curve" smooth="yes"/>
      <point x="582" y="134"/>
      <point x="512" y="30"/>
    </contour>
  </outline>
</glyph>
<glyph name="R" format="2">
  <advance width="659"/>
  <unicode hex="0052"/>
  <anchor x="332" y="0" name="bottom"/>
  <anchor x="346" y="0" name="cedilla"/>
  <anchor x="348" y="0" name="ogonek"/>
  <anchor x="312" y="657" name="top"/>
  <outline>
    <contour>
      <point x="324" y="0" type="line"/>
      <point x="324" y="30" type="line"/>
      <point x="238" y="30"/>
      <point x="225" y="41"/>
      <point x="225" y="124" type="curve" smooth="yes"/>
      <point x="225" y="301" type="line"/>
      <point x="253" y="301" type="line" smooth="yes"/>
      <point x="289" y="301"/>
      <point x="300" y="298"/>
      <point x="320" y="268" type="curve" smooth="yes"/>
      <point x="361" y="208"/>
      <point x="390" y="165"/>
      <point x="499" y="0" type="curve"/>
      <point x="664" y="0" type="line"/>
      <point x="664" y="30" type="line"/>
      <point x="618" y="30"/>
      <point x="593" y="37"/>
      <point x="561" y="81" type="curve"/>
      <point x="451" y="238"/>
      <point x="412" y="294"/>
      <point x="378" y="314" type="curve"/>
      <point x="378" y="318" type="line"/>
      <point x="459" y="337"/>
      <point x="547" y="381"/>
      <point x="547" y="493" type="curve" smooth="yes"/>
      <point x="547" y="620"/>
      <point x="439" y="657"/>
      <point x="289" y="657" type="curve" smooth="yes"/>
      <point x="43" y="657" type="line"/>
      <point x="43" y="627" type="line"/>
      <point x="123" y="627"/>
      <point x="132" y="608"/>
      <point x="132" y="553" type="curve" smooth="yes"/>
      <point x="132" y="124" type="line" smooth="yes"/>
      <point x="132" y="40"/>
      <point x="118" y="30"/>
      <point x="43" y="30" type="curve"/>
      <point x="43" y="0" type="line"/>
    </contour>
    <contour>
      <point x="225" y="340" type="line"/>
      <point x="225" y="615" type="line"/>
      <point x="246" y="617"/>
      <point x="269" y="618"/>
      <point x="291" y="618" type="curve" smooth="yes"/>
      <point x="399" y="618"/>
      <point x="446" y="569"/>
      <point x="446" y="489" type="curve" smooth="yes"/>
      <point x="446" y="383"/>
      <point x="373" y="344"/>
      <point x="263" y="339" type="curve"/>
    </contour>
  </outline>
</glyph>
<glyph name="S" format="2">
  <advance width="504"/>
  <unicode hex="0053"/>
  <anchor x="245" y="0" name="bottom"/>
  <anchor x="250" y="0" name="cedilla"/>
  <anchor x="250" y="0" name="ogonek"/>
  <anchor x="254" y="657" name="top"/>
  <outline>
    <contour>
      <point x="75" y="-15" type="line"/>
      <point x="76" y="5"/>
      <point x="88" y="18"/>
      <point x="102" y="18" type="curve" smooth="yes"/>
      <point x="125" y="18"/>
      <point x="164" y="-12"/>
      <point x="268" y="-12" type="curve" smooth="yes"/>
      <point x="384" y="-12"/>
      <point x="471" y="51"/>
      <point x="471" y="167" type="curve" smooth="yes"/>
      <point x="471" y="286"/>
      <point x="372" y="331"/>
      <point x="283" y="381" type="curve" smooth="yes"/>
      <point x="208" y="424"/>
      <point x="136" y="460"/>
      <point x="136" y="535" type="curve" smooth="yes"/>
      <point x="136" y="597"/>
      <point x="175" y="629"/>
      <point x="243" y="629" type="curve"/>
      <point x="344" y="630"/>
      <point x="382" y="577"/>
      <point x="410" y="467" type="curve"/>
      <point x="440" y="467" type="line"/>
      <point x="433" y="667" type="line"/>
      <point x="407" y="667" type="line"/>
      <point x="402" y="646"/>
      <point x="392" y="638"/>
      <point x="376" y="638" type="curve" smooth="yes"/>
      <point x="352" y="638"/>
      <point x="330" y="669"/>
      <point x="239" y="669" type="curve"/>
      <point x="135" y="668"/>
      <point x="49" y="612"/>
      <point x="49" y="507" type="curve" smooth="yes"/>
      <point x="49" y="402"/>
      <point x="130" y="354"/>
      <point x="210" y="308" type="curve" smooth="yes"/>
      <point x="292" y="261"/>
      <point x="376" y="226"/>
      <point x="376" y="138" type="curve" smooth="yes"/>
      <point x="376" y="62"/>
      <point x="329" y="32"/>
      <point x="254" y="32" type="curve"/>
      <point x="152" y="31"/>
      <point x="101" y="63"/>
      <point x="66" y="201" type="curve"/>
      <point x="35" y="201" type="line"/>
      <point x="44" y="-15" type="line"/>
    </contour>
  </outline>
</glyph>
<glyph name="T" format="2">
  <advance width="603"/>
  <unicode hex="0054"/>
  <anchor x="302" y="0" name="bottom"/>
  <anchor x="307" y="0" name="cedilla"/>
  <anchor x="300" y="0" name="ogonek"/>
  <anchor x="302" y="657" name="top"/>
  <outline>
    <contour>
      <point x="447" y="0" type="line"/>
      <point x="447" y="30" type="line"/>
      <point x="361" y="30"/>
      <point x="348" y="40"/>
      <point x="348" y="131" type="curve" smooth="yes"/>
      <point x="348" y="612" type="line"/>
      <point x="411" y="612" type="line" smooth="yes"/>
      <point x="522" y="612"/>
      <point x="534" y="586"/>
      <point x="556" y="477" type="curve"/>
      <point x="587" y="477" type="line"/>
      <point x="579" y="657" type="line"/>
      <point x="26" y="657" type="line"/>
      <point x="15" y="477" type="line"/>
      <point x="46" y="477" type="line"/>
      <point x="67" y="586"/>
      <point x="81" y="612"/>
      <point x="191" y="612" type="curve" smooth="yes"/>
      <point x="255" y="612" type="line"/>
      <point x="255" y="131" type="line" smooth="yes"/>
      <point x="255" y="40"/>
      <point x="241" y="30"/>
      <point x="157" y="30" type="curve"/>
      <point x="157" y="0" type="line"/>
    </contour>
  </outline>
</glyph>
<glyph name="U" format="2">
  <advance width="752"/>
  <unicode hex="0055"/>
  <anchor x="379" y="0" name="bottom"/>
  <anchor x="381" y="0" name="cedilla"/>
  <anchor x="435" y="0" name="ogonek"/>
  <anchor x="399" y="657" name="top"/>
  <outline>
    <contour>
      <point x="373" y="-12" type="curve" smooth="yes"/>
      <point x="562" y="-12"/>
      <point x="640" y="79"/>
      <point x="640" y="261" type="curve" smooth="yes"/>
      <point x="640" y="502" type="line" smooth="yes"/>
      <point x="640" y="605"/>
      <point x="648" y="627"/>
      <point x="734" y="627" type="curve"/>
      <point x="734" y="657" type="line"/>
      <point x="489" y="657" type="line"/>
      <point x="489" y="627" type="line"/>
      <point x="573" y="627"/>
      <point x="583" y="604"/>
      <point x="583" y="499" type="curve" smooth="yes"/>
      <point x="583" y="247" type="line" smooth="yes"/>
      <point x="583" y="109"/>
      <point x="529" y="51"/>
      <point x="398" y="51" type="curve" smooth="yes"/>
      <point x="255" y="51"/>
      <point x="210" y="121"/>
      <point x="210" y="251" type="curve" smooth="yes"/>
      <point x="210" y="534" type="line" smooth="yes"/>
      <point x="210" y="609"/>
      <point x="223" y="627"/>
      <point x="308" y="627" type="curve"/>
      <point x="308" y="657" type="line"/>
      <point x="20" y="657" type="line"/>
      <point x="20" y="627" type="line"/>
      <point x="99" y="627"/>
      <point x="118" y="609"/>
      <point x="118" y="539" type="curve" smooth="yes"/>
      <point x="118" y="250" type="line" smooth="yes"/>
      <point x="118" y="64"/>
      <point x="196" y="-12"/>
    </contour>
  </outline>
</glyph>
<glyph name="V" format="2">
  <advance width="680"/>
  <unicode hex="0056"/>
  <anchor x="343" y="0" name="bottom"/>
  <anchor x="344" y="0" name="cedilla"/>
  <anchor x="317" y="0" name="ogonek"/>
  <anchor x="342" y="657" name="top"/>
  <outline>
    <contour>
      <point x="364" y="-5" type="line"/>
      <point x="570" y="497" type="line" smooth="yes"/>
      <point x="618" y="610"/>
      <point x="631" y="627"/>
      <point x="687" y="627" type="curve"/>
      <point x="687" y="657" type="line"/>
      <point x="477" y="657" type="line"/>
      <point x="477" y="627" type="line"/>
      <point x="524" y="627"/>
      <point x="544" y="620"/>
      <point x="544" y="593" type="curve" smooth="yes"/>
      <point x="544" y="575"/>
      <point x="539" y="559"/>
      <point x="533" y="544" type="curve" smooth="yes"/>
      <point x="407" y="226" type="line"/>
      <point x="372" y="126" type="line"/>
      <point x="367" y="126" type="line"/>
      <point x="328" y="231" type="line"/>
      <point x="207" y="528" type="line" smooth="yes"/>
      <point x="195" y="557"/>
      <point x="190" y="576"/>
      <point x="190" y="589" type="curve" smooth="yes"/>
      <point x="190" y="626"/>
      <point x="232" y="627"/>
      <point x="258" y="627" type="curve"/>
      <point x="258" y="657" type="line"/>
      <point x="-10" y="657" type="line"/>
      <point x="-10" y="627" type="line"/>
      <point x="44" y="627"/>
      <point x="66" y="603"/>
      <point x="95" y="536" type="curve" smooth="yes"/>
      <point x="324" y="-5" type="line"/>
    </contour>
  </outline>
</glyph>
<glyph name="W" format="2">
  <advance width="944"/>
  <unicode hex="0057"/>
  <anchor x="480" y="0" name="bottom"/>
  <anchor x="480" y="0" name="cedilla"/>
  <anchor x="614" y="0" name="ogonek"/>
  <anchor x="460" y="657" name="top"/>
  <outline>
    <contour>
      <point x="665" y="-6" type="line"/>
      <point x="858" y="558" type="line" smooth="yes"/>
      <point x="876" y="609"/>
      <point x="896" y="626"/>
      <point x="943" y="627" type="curve"/>
      <point x="943" y="657" type="line"/>
      <point x="737" y="657" type="line"/>
      <point x="737" y="627" type="line"/>
      <point x="783" y="627"/>
      <point x="804" y="615"/>
      <point x="804" y="585" type="curve" smooth="yes"/>
      <point x="804" y="560"/>
      <point x="796" y="530"/>
      <point x="786" y="498" type="curve"/>
      <point x="672" y="166" type="line"/>
      <point x="667" y="166" type="line"/>
      <point x="634" y="265" type="line"/>
      <point x="530" y="535" type="line" smooth="yes"/>
      <point x="523" y="553"/>
      <point x="513" y="577"/>
      <point x="513" y="593" type="curve" smooth="yes"/>
      <point x="513" y="615"/>
      <point x="539" y="627"/>
      <point x="589" y="627" type="curve"/>
      <point x="589" y="657" type="line"/>
      <point x="328" y="657" type="line"/>
      <point x="328" y="627" type="line"/>
      <point x="385" y="627"/>
      <point x="401" y="619"/>
      <point x="433" y="532" type="curve" smooth="yes"/>
      <point x="466" y="440" type="line"/>
      <point x="482" y="406" type="line"/>
      <point x="638" y="-6" type="line"/>
    </contour>
    <contour>
      <point x="333" y="-6" type="line"/>
      <point x="484" y="391" type="line"/>
      <point x="513" y="391" type="line"/>
      <point x="466" y="468" type="line"/>
      <point x="348" y="163" type="line"/>
      <point x="343" y="163" type="line"/>
      <point x="312" y="247" type="line"/>
      <point x="196" y="539" type="line" smooth="yes"/>
      <point x="186" y="565"/>
      <point x="182" y="582"/>
      <point x="182" y="594" type="curve" smooth="yes"/>
      <point x="182" y="615"/>
      <point x="197" y="627"/>
      <point x="248" y="627" type="curve"/>
      <point x="248" y="657" type="line"/>
      <point x="-10" y="657" type="line"/>
      <point x="-10" y="627" type="line"/>
      <point x="42" y="625"/>
      <point x="69" y="602"/>
      <point x="100" y="518" type="curve"/>
      <point x="308" y="-6" type="line"/>
    </contour>
  </outline>
</glyph>
<glyph name="X" format="2">
  <advance width="664"/>
  <unicode hex="0058"/>
  <anchor x="316" y="0" name="bottom"/>
  <anchor x="316" y="0" name="cedilla"/>
  <anchor x="521" y="0" name="ogonek"/>
  <anchor x="342" y="657" name="top"/>
  <outline>
    <contour>
      <point x="660" y="0" type="line"/>
      <point x="660" y="29" type="line"/>
      <point x="610" y="30"/>
      <point x="590" y="41"/>
      <point x="557" y="89" type="curve" smooth="yes"/>
      <point x="368" y="366" type="line"/>
      <point x="353" y="382" type="line"/>
      <point x="291" y="486" type="line"/>
      <point x="267" y="533"/>
      <point x="232" y="574"/>
      <point x="232" y="598" type="curve" smooth="yes"/>
      <point x="232" y="619"/>
      <point x="247" y="627"/>
      <point x="284" y="627" type="curve" smooth="yes"/>
      <point x="295" y="627" type="line"/>
      <point x="295" y="657" type="line"/>
      <point x="17" y="657" type="line"/>
      <point x="17" y="627" type="line"/>
      <point x="86" y="627"/>
      <point x="96" y="612"/>
      <point x="144" y="542" type="curve"/>
      <point x="293" y="318" type="line"/>
      <point x="309" y="301" type="line"/>
      <point x="344" y="241" type="line"/>
      <point x="407" y="142" type="line" smooth="yes"/>
      <point x="433" y="101"/>
      <point x="443" y="78"/>
      <point x="443" y="57" type="curve" smooth="yes"/>
      <point x="443" y="35"/>
      <point x="429" y="29"/>
      <point x="390" y="29" type="curve" smooth="yes"/>
      <point x="380" y="29" type="line"/>
      <point x="380" y="0" type="line"/>
    </contour>
    <contour>
      <point x="223" y="0" type="line"/>
      <point x="223" y="29" type="line"/>
      <point x="170" y="29"/>
      <point x="159" y="40"/>
      <point x="159" y="57" type="curve" smooth="yes"/>
      <point x="159" y="76"/>
      <point x="179" y="103"/>
      <point x="192" y="120" type="curve"/>
      <point x="313" y="291" type="line"/>
      <point x="327" y="291" type="line"/>
      <point x="294" y="337" type="line"/>
      <point x="120" y="108" type="line" smooth="yes"/>
      <point x="72" y="45"/>
      <point x="55" y="31"/>
      <point x="2" y="29" type="curve"/>
      <point x="2" y="0" type="line"/>
    </contour>
    <contour>
      <point x="513" y="538" type="line" smooth="yes"/>
      <point x="568" y="611"/>
      <point x="588" y="625"/>
      <point x="652" y="627" type="curve"/>
      <point x="652" y="657" type="line"/>
      <point x="422" y="657" type="line"/>
      <point x="422" y="627" type="line"/>
      <point x="470" y="627"/>
      <point x="481" y="619"/>
      <point x="481" y="604" type="curve" smooth="yes"/>
      <point x="481" y="588"/>
      <point x="470" y="568"/>
      <point x="454" y="542" type="curve"/>
      <point x="349" y="391" type="line"/>
      <point x="336" y="391" type="line"/>
      <point x="367" y="348" type="line"/>
    </contour>
  </outline>
</glyph>
<glyph name="Z" format="2">
  <advance width="594"/>
  <unicode hex="005A"/>
  <anchor x="289" y="0" name="bottom"/>
  <anchor x="289" y="0" name="cedilla"/>
  <anchor x="395" y="0" name="ogonek"/>
  <anchor x="314" y="657" name="top"/>
  <outline>
    <contour>
      <point x="538" y="0" type="line"/>
      <point x="567" y="186" type="line"/>
      <point x="536" y="186" type="line"/>
      <point x="503" y="75"/>
      <point x="478" y="44"/>
      <point x="364" y="44" type="curve" smooth="yes"/>
      <point x="155" y="44" type="line"/>
      <point x="155" y="50" type="line"/>
      <point x="560" y="629" type="line"/>
      <point x="560" y="657" type="line"/>
      <point x="71" y="657" type="line"/>
      <point x="60" y="482" type="line"/>
      <point x="92" y="482" type="line"/>
      <point x="112" y="593"/>
      <point x="152" y="612"/>
      <point x="255" y="612" type="curve" smooth="yes"/>
      <point x="436" y="612" type="line"/>
      <point x="436" y="604" type="line"/>
      <point x="28" y="29" type="line"/>
      <point x="28" y="0" type="line"/>
    </contour>
  </outline>
</glyph>
<glyph name="bracketleft" format="2">
  <advance width="347"/>
  <unicode hex="005B"/>
  <outline>
    <contour>
      <point x="300" y="-186" type="line"/>
      <point x="300" y="-156" type="line"/>
      <point x="170" y="-156" type="line"/>
      <point x="170" y="702" type="line"/>
      <point x="300" y="702" type="line"/>
      <point x="300" y="732" type="line"/>
      <point x="91" y="732" type="line"/>
      <point x="91" y="-186" type="line"/>
    </contour>
  </outline>
</glyph>
<glyph name="backslash" format="2">
  <advance width="385"/>
  <unicode hex="005C"/>
  <outline>
    <contour>
      <point x="350" y="-89" type="line"/>
      <point x="90" y="709" type="line"/>
      <point x="35" y="709" type="line"/>
      <point x="295" y="-89" type="line"/>
    </contour>
  </outline>
</glyph>
<glyph name="bracketright" format="2">
  <advance width="347"/>
  <unicode hex="005D"/>
  <outline>
    <contour>
      <point x="256" y="-186" type="line"/>
      <point x="256" y="732" type="line"/>
      <point x="47" y="732" type="line"/>
      <point x="47" y="702" type="line"/>
      <point x="177" y="702" type="line"/>
      <point x="177" y="-156" type="line"/>
      <point x="47" y="-156" type="line"/>
      <point x="47" y="-186" type="line"/>
    </contour>
  </outline>
</glyph>
<glyph name="underscore" format="2">
  <advance width="512"/>
  <unicode hex="005F"/>
  <outline>
    <contour>
      <point x="512" y="-128" type="line"/>
      <point x="512" y="-77" type="line"/>
      <point x="0" y="-77" type="line"/>
      <point x="0" y="-128" type="line"/>
    </contour>
  </outline>
</glyph>
<glyph name="grave" format="2">
  <advance width="222"/>
  <unicode hex="0060"/>
  <outline>
    <contour>
      <point x="192" y="521" type="line"/>
      <point x="122" y="674" type="line"/>
      <point x="30" y="674" type="line"/>
      <point x="30" y="656" type="line"/>
      <point x="153" y="521" type="line"/>
    </contour>
  </outline>
</glyph>
<glyph name="b" format="2">
  <advance width="522"/>
  <unicode hex="0062"/>
  <anchor x="253" y="0" name="bottom"/>
  <anchor x="253" y="0" name="cedilla"/>
  <anchor x="253" y="0" name="ogonek"/>
  <anchor x="253" y="693" name="top"/>
  <outline>
    <contour>
      <point x="137" y="706" type="line"/>
      <point x="8" y="671" type="line"/>
      <point x="8" y="643" type="line"/>
      <point x="8" y="643"/>
      <point x="20" y="645"/>
      <point x="36" y="645" type="curve" smooth="yes"/>
      <point x="74" y="645"/>
      <point x="80" y="637"/>
      <point x="80" y="592" type="curve" smooth="yes"/>
      <point x="80" y="30" type="line"/>
      <point x="104" y="17"/>
      <point x="162" y="-10"/>
      <point x="247" y="-10" type="curve" smooth="yes"/>
      <point x="386" y="-10"/>
      <point x="487" y="84"/>
      <point x="487" y="263" type="curve" smooth="yes"/>
      <point x="487" y="393"/>
      <point x="419" y="485"/>
      <point x="320" y="485" type="curve" smooth="yes"/>
      <point x="253" y="485"/>
      <point x="201" y="442"/>
      <point x="166" y="400" type="curve"/>
      <point x="163" y="400" type="line"/>
      <point x="163" y="706" type="line"/>
    </contour>
    <contour>
      <point x="163" y="356" type="line"/>
      <point x="181" y="380"/>
      <point x="225" y="417"/>
      <point x="276" y="417" type="curve" smooth="yes"/>
      <point x="371" y="417"/>
      <point x="396" y="327"/>
      <point x="396" y="231" type="curve" smooth="yes"/>
      <point x="396" y="120"/>
      <point x="360" y="31"/>
      <point x="265" y="31" type="curve" smooth="yes"/>
      <point x="212" y="31"/>
      <point x="182" y="55"/>
      <point x="163" y="78" type="curve"/>
    </contour>
  </outline>
</glyph>
<glyph name="c" format="2">
  <advance width="446"/>
  <unicode hex="0063"/>
  <anchor x="249" y="0" name="bottom"/>
  <anchor x="249" y="0" name="cedilla"/>
  <anchor x="251" y="0" name="ogonek"/>
  <anchor x="241" y="473" name="top"/>
  <outline>
    <contour>
      <point x="408" y="148" type="line"/>
      <point x="363" y="90"/>
      <point x="329" y="65"/>
      <point x="264" y="65" type="curve" smooth="yes"/>
      <point x="161" y="65"/>
      <point x="112" y="151"/>
      <point x="112" y="273" type="curve" smooth="yes"/>
      <point x="112" y="388"/>
      <point x="161" y="448"/>
      <point x="242" y="448" type="curve" smooth="yes"/>
      <point x="328" y="448"/>
      <point x="295" y="334"/>
      <point x="369" y="334" type="curve" smooth="yes"/>
      <point x="397" y="334"/>
      <point x="411" y="350"/>
      <point x="411" y="379" type="curve" smooth="yes"/>
      <point x="411" y="437"/>
      <point x="353" y="485"/>
      <point x="259" y="485" type="curve" smooth="yes"/>
      <point x="115" y="485"/>
      <point x="33" y="383"/>
      <point x="33" y="226" type="curve" smooth="yes"/>
      <point x="33" y="87"/>
      <point x="108" y="-10"/>
      <point x="233" y="-10" type="curve" smooth="yes"/>
      <point x="340" y="-10"/>
      <point x="389" y="53"/>
      <point x="427" y="134" type="curve"/>
    </contour>
  </outline>
</glyph>
<glyph name="e" format="2">
  <advance width="464"/>
  <unicode hex="0065"/>
  <anchor x="242" y="0" name="bottom"/>
  <anchor x="242" y="0" name="cedilla"/>
  <anchor x="252" y="0" name="ogonek"/>
  <anchor x="242" y="473" name="top"/>
  <outline>
    <contour>
      <point x="247" y="-10" type="curve" smooth="yes"/>
      <point x="350" y="-10"/>
      <point x="398" y="53"/>
      <point x="434" y="129" type="curve"/>
      <point x="415" y="143" type="line"/>
      <point x="383" y="101"/>
      <point x="352" y="65"/>
      <point x="271" y="65" type="curve" smooth="yes"/>
      <point x="188" y="65"/>
      <point x="114" y="132"/>
      <point x="114" y="271" type="curve" smooth="yes"/>
      <point x="114" y="382"/>
      <point x="152" y="445"/>
      <point x="230" y="445" type="curve" smooth="yes"/>
      <point x="301" y="445"/>
      <point x="334" y="377"/>
      <point x="337" y="303" type="curve"/>
      <point x="105" y="303" type="line"/>
      <point x="106" y="266" type="line"/>
      <point x="431" y="266" type="line"/>
      <point x="426" y="406"/>
      <point x="354" y="485"/>
      <point x="245" y="485" type="curve" smooth="yes"/>
      <point x="128" y="485"/>
      <point x="34" y="405"/>
      <point x="34" y="238" type="curve" smooth="yes"/>
      <point x="34" y="77"/>
      <point x="127" y="-10"/>
    </contour>
  </outline>
</glyph>
<glyph name="f" format="2">
  <advance width="307"/>
  <unicode hex="0066"/>
  <anchor x="139" y="0" name="bottom"/>
  <anchor x="155" y="0" name="cedilla"/>
  <anchor x="147" y="0" name="ogonek"/>
  <anchor x="149" y="693" name="top"/>
  <outline>
    <contour>
      <point x="287" y="0" type="line"/>
      <point x="287" y="29" type="line"/>
      <point x="204" y="29"/>
      <point x="185" y="41"/>
      <point x="185" y="119" type="curve" smooth="yes"/>
      <point x="185" y="562" type="line" smooth="yes"/>
      <point x="185" y="646"/>
      <point x="196" y="676"/>
      <point x="233" y="676" type="curve" smooth="yes"/>
      <point x="257" y="676"/>
      <point x="271" y="658"/>
      <point x="284" y="639" type="curve"/>
      <point x="299" y="620"/>
      <point x="312" y="600"/>
      <point x="338" y="600" type="curve" smooth="yes"/>
      <point x="361" y="600"/>
      <point x="379" y="614"/>
      <point x="379" y="643" type="curve" smooth="yes"/>
      <point x="379" y="688"/>
      <point x="332" y="713"/>
      <point x="267" y="713" type="curve" smooth="yes"/>
      <point x="197" y="713"/>
      <point x="161" y="686"/>
      <point x="134" y="640" type="curve" smooth="yes"/>
      <point x="108" y="594"/>
      <point x="102" y="551"/>
      <point x="102" y="437" type="curve" smooth="yes"/>
      <point x="102" y="119" type="line" smooth="yes"/>
      <point x="102" y="41"/>
      <point x="91" y="29"/>
      <point x="18" y="29" type="curve"/>
      <point x="18" y="0" type="line"/>
    </contour>
    <contour>
      <point x="307" y="426" type="line"/>
      <point x="307" y="468" type="line"/>
      <point x="26" y="468" type="line"/>
      <point x="26" y="426" type="line"/>
    </contour>
  </outline>
</glyph>
<glyph name="g" format="2">
  <advance width="484"/>
  <unicode hex="0067"/>
  <anchor x="226" y="-220" name="bottom"/>
  <anchor x="226" y="-220" name="cedilla"/>
  <anchor x="246" y="-220" name="ogonek"/>
  <anchor x="242" y="473" name="top"/>
  <outline>
    <contour>
      <point x="191" y="-235" type="curve" smooth="yes"/>
      <point x="317" y="-235"/>
      <point x="465" y="-189"/>
      <point x="465" y="-55" type="curve" smooth="yes"/>
      <point x="465" y="60"/>
      <point x="369" y="64"/>
      <point x="243" y="64" type="curve" smooth="yes"/>
      <point x="151" y="64"/>
      <point x="125" y="74"/>
      <point x="125" y="104" type="curve" smooth="yes"/>
      <point x="125" y="123"/>
      <point x="144" y="164"/>
      <point x="154" y="174" type="curve"/>
      <point x="128" y="193" type="line"/>
      <point x="128" y="184" type="line"/>
      <point x="81" y="148"/>
      <point x="46" y="106"/>
      <point x="46" y="70" type="curve" smooth="yes"/>
      <point x="46" y="36"/>
      <point x="80" y="4"/>
      <point x="111" y="-5" type="curve"/>
      <point x="121" y="-10" type="line"/>
      <point x="137" y="-10"/>
      <point x="149" y="-11"/>
      <point x="240" y="-12" type="curve" smooth="yes"/>
      <point x="307" y="-13"/>
      <point x="414" y="-11"/>
      <point x="414" y="-83" type="curve" smooth="yes"/>
      <point x="414" y="-126"/>
      <point x="367" y="-178"/>
      <point x="249" y="-178" type="curve" smooth="yes"/>
      <point x="147" y="-178"/>
      <point x="99" y="-149"/>
      <point x="99" y="-91" type="curve" smooth="yes"/>
      <point x="99" y="-68"/>
      <point x="107" y="-44"/>
      <point x="132" y="-1" type="curve"/>
      <point x="102" y="5" type="line"/>
      <point x="102" y="-6" type="line"/>
      <point x="48" y="-58"/>
      <point x="21" y="-92"/>
      <point x="21" y="-125" type="curve" smooth="yes"/>
      <point x="21" y="-180"/>
      <point x="60" y="-235"/>
    </contour>
    <contour>
      <point x="237" y="156" type="curve" smooth="yes"/>
      <point x="342" y="156"/>
      <point x="414" y="215"/>
      <point x="414" y="308" type="curve" smooth="yes"/>
      <point x="414" y="358"/>
      <point x="392" y="391"/>
      <point x="378" y="411" type="curve"/>
      <point x="378" y="437" type="line"/>
      <point x="343" y="467"/>
      <point x="291" y="485"/>
      <point x="232" y="485" type="curve" smooth="yes"/>
      <point x="126" y="485"/>
      <point x="51" y="422"/>
      <point x="51" y="322" type="curve" smooth="yes"/>
      <point x="51" y="254"/>
      <point x="82" y="210"/>
      <point x="134" y="183" type="curve"/>
      <point x="145" y="173" type="line"/>
      <point x="173" y="163"/>
      <point x="202" y="156"/>
    </contour>
    <contour>
      <point x="238" y="191" type="curve" smooth="yes"/>
      <point x="173" y="191"/>
      <point x="139" y="240"/>
      <point x="139" y="326" type="curve" smooth="yes"/>
      <point x="139" y="410"/>
      <point x="173" y="449"/>
      <point x="225" y="449" type="curve" smooth="yes"/>
      <point x="289" y="449"/>
      <point x="325" y="395"/>
      <point x="325" y="314" type="curve" smooth="yes"/>
      <point x="325" y="219"/>
      <point x="288" y="191"/>
    </contour>
    <contour>
      <point x="472" y="467" type="line"/>
      <point x="329" y="459" type="line"/>
      <point x="364" y="416" type="line"/>
      <point x="472" y="413" type="line"/>
    </contour>
  </outline>
</glyph>
<glyph name="i" format="2">
  <advance width="285"/>
  <unicode hex="0069"/>
  <anchor x="145" y="0" name="bottom"/>
  <anchor x="149" y="0" name="cedilla"/>
  <anchor x="144" y="0" name="ogonek"/>
  <anchor x="145" y="673" name="top.mkmk"/>
  <outline>
    <contour>
      <point x="257" y="0" type="line"/>
      <point x="257" y="28" type="line"/>
      <point x="190" y="28"/>
      <point x="185" y="43"/>
      <point x="185" y="101" type="curve" smooth="yes"/>
      <point x="185" y="482" type="line"/>
      <point x="159" y="482" type="line"/>
      <point x="33" y="454" type="line"/>
      <point x="33" y="425" type="line"/>
      <point x="33" y="425"/>
      <point x="44" y="427"/>
      <point x="58" y="427" type="curve" smooth="yes"/>
      <point x="87" y="427"/>
      <point x="102" y="423"/>
      <point x="102" y="380" type="curve" smooth="yes"/>
      <point x="102" y="101" type="line" smooth="yes"/>
      <point x="102" y="44"/>
      <point x="99" y="28"/>
      <point x="32" y="28" type="curve"/>
      <point x="32" y="0" type="line"/>
    </contour>
    <contour>
      <point x="145" y="560" type="curve" smooth="yes"/>
      <point x="180" y="560"/>
      <point x="202" y="586"/>
      <point x="202" y="617" type="curve" smooth="yes"/>
      <point x="202" y="647"/>
      <point x="180" y="673"/>
      <point x="145" y="673" type="curve" smooth="yes"/>
      <point x="110" y="673"/>
      <point x="88" y="647"/>
      <point x="88" y="617" type="curve" smooth="yes"/>
      <point x="88" y="586"/>
      <point x="111" y="560"/>
    </contour>
  </outline>
</glyph>
<glyph name="k" format="2">
  <advance width="542"/>
  <unicode hex="006B"/>
  <anchor x="273" y="0" name="bottom"/>
  <anchor x="272" y="0" name="cedilla"/>
  <anchor x="410" y="0" name="ogonek"/>
  <anchor x="273" y="693" name="top"/>
  <outline>
    <contour>
      <point x="257" y="0" type="line"/>
      <point x="257" y="29" type="line"/>
      <point x="194" y="29"/>
      <point x="183" y="40"/>
      <point x="183" y="91" type="curve" smooth="yes"/>
      <point x="183" y="243" type="line"/>
      <point x="189" y="243" type="line"/>
      <point x="346" y="65" type="line"/>
      <point x="351" y="60"/>
      <point x="357" y="50"/>
      <point x="357" y="41" type="curve" smooth="yes"/>
      <point x="357" y="32"/>
      <point x="347" y="29"/>
      <point x="318" y="29" type="curve"/>
      <point x="318" y="0" type="line"/>
      <point x="539" y="0" type="line"/>
      <point x="539" y="29" type="line"/>
      <point x="497" y="29"/>
      <point x="481" y="32"/>
      <point x="433" y="87" type="curve" smooth="yes"/>
      <point x="257" y="285" type="line"/>
      <point x="307" y="326" type="line"/>
      <point x="420" y="425"/>
      <point x="438" y="443"/>
      <point x="503" y="443" type="curve"/>
      <point x="503" y="473" type="line"/>
      <point x="287" y="473" type="line"/>
      <point x="287" y="443" type="line"/>
      <point x="325" y="443"/>
      <point x="336" y="438"/>
      <point x="336" y="425" type="curve" smooth="yes"/>
      <point x="336" y="409"/>
      <point x="322" y="397"/>
      <point x="318" y="393" type="curve" smooth="yes"/>
      <point x="189" y="265" type="line"/>
      <point x="183" y="265" type="line"/>
      <point x="183" y="706" type="line"/>
      <point x="156" y="706" type="line"/>
      <point x="26" y="671" type="line"/>
      <point x="26" y="644" type="line"/>
      <point x="26" y="644"/>
      <point x="46" y="646"/>
      <point x="60" y="646" type="curve" smooth="yes"/>
      <point x="93" y="646"/>
      <point x="100" y="637"/>
      <point x="100" y="595" type="curve" smooth="yes"/>
      <point x="100" y="95" type="line" smooth="yes"/>
      <point x="100" y="40"/>
      <point x="90" y="29"/>
      <point x="30" y="29" type="curve"/>
      <point x="30" y="0" type="line"/>
    </contour>
  </outline>
</glyph>
<glyph name="l" format="2">
  <advance width="283"/>
  <unicode hex="006C"/>
  <anchor x="140" y="0" name="bottom"/>
  <anchor x="142" y="0" name="cedilla"/>
  <anchor x="144" y="0" name="ogonek"/>
  <anchor x="140" y="693" name="top"/>
  <outline>
    <contour>
      <point x="260" y="0" type="line"/>
      <point x="260" y="29" type="line"/>
      <point x="188" y="29"/>
      <point x="183" y="43"/>
      <point x="183" y="101" type="curve" smooth="yes"/>
      <point x="183" y="706" type="line"/>
      <point x="158" y="706" type="line"/>
      <point x="26" y="671" type="line"/>
      <point x="26" y="644" type="line"/>
      <point x="26" y="644"/>
      <point x="41" y="646"/>
      <point x="58" y="646" type="curve" smooth="yes"/>
      <point x="83" y="646"/>
      <point x="100" y="644"/>
      <point x="100" y="603" type="curve" smooth="yes"/>
      <point x="100" y="101" type="line" smooth="yes"/>
      <point x="100" y="45"/>
      <point x="96" y="29"/>
      <point x="30" y="29" type="curve"/>
      <point x="30" y="0" type="line"/>
    </contour>
  </outline>
</glyph>
<glyph name="m" format="2">
  <advance width="852"/>
  <unicode hex="006D"/>
  <anchor x="431" y="0" name="bottom"/>
  <anchor x="434" y="0" name="cedilla"/>
  <anchor x="430" y="0" name="ogonek"/>
  <anchor x="432" y="473" name="top"/>
  <outline>
    <contour>
      <point x="550" y="0" type="line"/>
      <point x="550" y="29" type="line"/>
      <point x="478" y="29"/>
      <point x="473" y="47"/>
      <point x="473" y="116" type="curve" smooth="yes"/>
      <point x="473" y="380" type="line"/>
      <point x="472" y="385"/>
      <point x="470" y="390"/>
      <point x="468" y="394" type="curve"/>
      <point x="449" y="446"/>
      <point x="414" y="485"/>
      <point x="354" y="485" type="curve" smooth="yes"/>
      <point x="286" y="485"/>
      <point x="240" y="448"/>
      <point x="186" y="401" type="curve"/>
      <point x="171" y="401" type="line"/>
      <point x="179" y="351" type="line"/>
      <point x="207" y="378"/>
      <point x="254" y="421"/>
      <point x="310" y="421" type="curve" smooth="yes"/>
      <point x="356" y="421"/>
      <point x="390" y="399"/>
      <point x="390" y="314" type="curve" smooth="yes"/>
      <point x="390" y="116" type="line" smooth="yes"/>
      <point x="390" y="46"/>
      <point x="384" y="29"/>
      <point x="313" y="29" type="curve"/>
      <point x="313" y="0" type="line"/>
    </contour>
    <contour>
      <point x="260" y="0" type="line"/>
      <point x="260" y="29" type="line"/>
      <point x="198" y="29"/>
      <point x="185" y="41"/>
      <point x="185" y="97" type="curve" smooth="yes"/>
      <point x="185" y="368" type="line"/>
      <point x="182" y="390" type="line"/>
      <point x="182" y="482" type="line"/>
      <point x="158" y="482" type="line"/>
      <point x="33" y="453" type="line"/>
      <point x="33" y="424" type="line"/>
      <point x="33" y="424"/>
      <point x="45" y="426"/>
      <point x="60" y="426" type="curve" smooth="yes"/>
      <point x="88" y="426"/>
      <point x="102" y="417"/>
      <point x="102" y="381" type="curve" smooth="yes"/>
      <point x="102" y="101" type="line" smooth="yes"/>
      <point x="102" y="41"/>
      <point x="95" y="29"/>
      <point x="32" y="29" type="curve"/>
      <point x="32" y="0" type="line"/>
    </contour>
    <contour>
      <point x="829" y="0" type="line"/>
      <point x="829" y="29" type="line"/>
      <point x="760" y="29"/>
      <point x="757" y="53"/>
      <point x="757" y="116" type="curve" smooth="yes"/>
      <point x="757" y="320" type="line" smooth="yes"/>
      <point x="757" y="441"/>
      <point x="706" y="485"/>
      <point x="628" y="485" type="curve" smooth="yes"/>
      <point x="575" y="485"/>
      <point x="524" y="456"/>
      <point x="469" y="402" type="curve"/>
      <point x="454" y="402" type="line"/>
      <point x="465" y="352" type="line"/>
      <point x="499" y="381"/>
      <point x="544" y="421"/>
      <point x="588" y="421" type="curve" smooth="yes"/>
      <point x="635" y="421"/>
      <point x="674" y="399"/>
      <point x="674" y="308" type="curve" smooth="yes"/>
      <point x="674" y="116" type="line" smooth="yes"/>
      <point x="674" y="55"/>
      <point x="671" y="29"/>
      <point x="603" y="29" type="curve"/>
      <point x="603" y="0" type="line"/>
    </contour>
  </outline>
</glyph>
<glyph name="n" format="2">
  <advance width="576"/>
  <unicode hex="006E"/>
  <anchor x="290" y="0" name="bottom"/>
  <anchor x="290" y="0" name="cedilla"/>
  <anchor x="434" y="0" name="ogonek"/>
  <anchor x="301" y="473" name="top"/>
  <outline>
    <contour>
      <point x="555" y="0" type="line"/>
      <point x="555" y="28" type="line"/>
      <point x="488" y="28"/>
      <point x="481" y="45"/>
      <point x="481" y="101" type="curve" smooth="yes"/>
      <point x="481" y="307" type="line" smooth="yes"/>
      <point x="481" y="422"/>
      <point x="438" y="485"/>
      <point x="347" y="485" type="curve" smooth="yes"/>
      <point x="284" y="485"/>
      <point x="240" y="449"/>
      <point x="186" y="401" type="curve"/>
      <point x="171" y="401" type="line"/>
      <point x="178" y="352" type="line"/>
      <point x="209" y="379"/>
      <point x="248" y="421"/>
      <point x="306" y="421" type="curve" smooth="yes"/>
      <point x="351" y="421"/>
      <point x="398" y="402"/>
      <point x="398" y="282" type="curve" smooth="yes"/>
      <point x="398" y="101" type="line" smooth="yes"/>
      <point x="398" y="45"/>
      <point x="395" y="28"/>
      <point x="324" y="28" type="curve"/>
      <point x="324" y="0" type="line"/>
    </contour>
    <contour>
      <point x="261" y="0" type="line"/>
      <point x="261" y="28" type="line"/>
      <point x="189" y="28"/>
      <point x="185" y="45"/>
      <point x="185" y="101" type="curve" smooth="yes"/>
      <point x="185" y="369" type="line"/>
      <point x="182" y="390" type="line"/>
      <point x="183" y="482" type="line"/>
      <point x="160" y="482" type="line"/>
      <point x="33" y="453" type="line"/>
      <point x="33" y="424" type="line"/>
      <point x="33" y="424"/>
      <point x="43" y="426"/>
      <point x="60" y="426" type="curve" smooth="yes"/>
      <point x="87" y="426"/>
      <point x="102" y="418"/>
      <point x="102" y="382" type="curve" smooth="yes"/>
      <point x="102" y="101" type="line" smooth="yes"/>
      <point x="102" y="45"/>
      <point x="99" y="28"/>
      <point x="32" y="28" type="curve"/>
      <point x="32" y="0" type="line"/>
    </contour>
  </outline>
</glyph>
<glyph name="o" format="2">
  <advance width="514"/>
  <unicode hex="006F"/>
  <anchor x="261" y="0" name="bottom"/>
  <anchor x="261" y="0" name="cedilla"/>
  <anchor x="287" y="0" name="ogonek"/>
  <anchor x="261" y="473" name="top"/>
  <outline>
    <contour>
      <point x="258" y="-10" type="curve" smooth="yes"/>
      <point x="388" y="-10"/>
      <point x="480" y="78"/>
      <point x="480" y="246" type="curve" smooth="yes"/>
      <point x="480" y="394"/>
      <point x="395" y="485"/>
      <point x="258" y="485" type="curve" smooth="yes"/>
      <point x="123" y="485"/>
      <point x="34" y="387"/>
      <point x="34" y="242" type="curve" smooth="yes"/>
      <point x="34" y="80"/>
      <point x="118" y="-10"/>
    </contour>
    <contour>
      <point x="262" y="30" type="curve"/>
      <point x="176" y="29"/>
      <point x="127" y="96"/>
      <point x="127" y="255" type="curve" smooth="yes"/>
      <point x="127" y="383"/>
      <point x="178" y="447"/>
      <point x="254" y="447" type="curve" smooth="yes"/>
      <point x="343" y="447"/>
      <point x="388" y="364"/>
      <point x="388" y="241" type="curve" smooth="yes"/>
      <point x="388" y="78"/>
      <point x="344" y="30"/>
    </contour>
  </outline>
</glyph>
<glyph name="p" format="2">
  <advance width="537"/>
  <unicode hex="0070"/>
  <anchor x="234" y="-220" name="bottom"/>
  <anchor x="143" y="-220" name="cedilla"/>
  <anchor x="144" y="-220" name="ogonek"/>
  <anchor x="270" y="473" name="top"/>
  <outline>
    <contour>
      <point x="275" y="-220" type="line"/>
      <point x="275" y="-191" type="line"/>
      <point x="197" y="-191"/>
      <point x="178" y="-178"/>
      <point x="178" y="-113" type="curve" smooth="yes"/>
      <point x="178" y="18" type="line"/>
      <point x="182" y="18" type="line"/>
      <point x="211" y="-2"/>
      <point x="245" y="-10"/>
      <point x="283" y="-10" type="curve" smooth="yes"/>
      <point x="403" y="-10"/>
      <point x="502" y="91"/>
      <point x="502" y="261" type="curve" smooth="yes"/>
      <point x="502" y="392"/>
      <point x="433" y="485"/>
      <point x="334" y="485" type="curve" smooth="yes"/>
      <point x="275" y="485"/>
      <point x="227" y="454"/>
      <point x="179" y="398" type="curve"/>
      <point x="176" y="398" type="line"/>
      <point x="176" y="482" type="line"/>
      <point x="151" y="482" type="line"/>
      <point x="25" y="454" type="line"/>
      <point x="25" y="425" type="line"/>
      <point x="25" y="425"/>
      <point x="44" y="427"/>
      <point x="57" y="427" type="curve" smooth="yes"/>
      <point x="90" y="427"/>
      <point x="95" y="414"/>
      <point x="95" y="376" type="curve" smooth="yes"/>
      <point x="95" y="-119" type="line" smooth="yes"/>
      <point x="95" y="-175"/>
      <point x="85" y="-192"/>
      <point x="22" y="-192" type="curve"/>
      <point x="22" y="-220" type="line"/>
    </contour>
    <contour>
      <point x="288" y="29" type="curve" smooth="yes"/>
      <point x="232" y="29"/>
      <point x="197" y="74"/>
      <point x="178" y="95" type="curve"/>
      <point x="178" y="356" type="line"/>
      <point x="197" y="381"/>
      <point x="240" y="417"/>
      <point x="293" y="417" type="curve" smooth="yes"/>
      <point x="367" y="417"/>
      <point x="411" y="359"/>
      <point x="411" y="233" type="curve" smooth="yes"/>
      <point x="411" y="94"/>
      <point x="358" y="29"/>
    </contour>
  </outline>
</glyph>
<glyph name="q" format="2">
  <advance width="521"/>
  <unicode hex="0071"/>
  <anchor x="277" y="-220" name="bottom"/>
  <anchor x="388" y="-220" name="cedilla"/>
  <anchor x="387" y="-220" name="ogonek"/>
  <anchor x="257" y="473" name="top"/>
  <outline>
    <contour>
      <point x="507" y="-220" type="line"/>
      <point x="507" y="-192" type="line"/>
      <point x="451" y="-192"/>
      <point x="441" y="-175"/>
      <point x="441" y="-124" type="curve" smooth="yes"/>
      <point x="441" y="481" type="line"/>
      <point x="404" y="481" type="line"/>
      <point x="377" y="448" type="line"/>
      <point x="335" y="476"/>
      <point x="301" y="485"/>
      <point x="259" y="485" type="curve" smooth="yes"/>
      <point x="132" y="485"/>
      <point x="33" y="380"/>
      <point x="33" y="220" type="curve" smooth="yes"/>
      <point x="33" y="81"/>
      <point x="99" y="-8"/>
      <point x="203" y="-8" type="curve" smooth="yes"/>
      <point x="268" y="-8"/>
      <point x="311" y="24"/>
      <point x="355" y="63" type="curve"/>
      <point x="358" y="63" type="line"/>
      <point x="358" y="-113" type="line" smooth="yes"/>
      <point x="358" y="-175"/>
      <point x="346" y="-192"/>
      <point x="265" y="-192" type="curve"/>
      <point x="265" y="-220" type="line"/>
    </contour>
    <contour>
      <point x="251" y="65" type="curve" smooth="yes"/>
      <point x="151" y="65"/>
      <point x="119" y="149"/>
      <point x="119" y="258" type="curve" smooth="yes"/>
      <point x="119" y="383"/>
      <point x="174" y="445"/>
      <point x="258" y="445" type="curve" smooth="yes"/>
      <point x="311" y="445"/>
      <point x="345" y="416"/>
      <point x="358" y="366" type="curve"/>
      <point x="358" y="103" type="line"/>
      <point x="330" y="80"/>
      <point x="300" y="65"/>
    </contour>
  </outline>
</glyph>
<glyph name="r" format="2">
  <advance width="380"/>
  <unicode hex="0072"/>
  <anchor x="153" y="0" name="bottom"/>
  <anchor x="153" y="0" name="cedilla"/>
  <anchor x="156" y="0" name="ogonek"/>
  <anchor x="195" y="473" name="top"/>
  <outline>
    <contour>
      <point x="279" y="0" type="line"/>
      <point x="279" y="29" type="line"/>
      <point x="204" y="29"/>
      <point x="185" y="39"/>
      <point x="185" y="102" type="curve" smooth="yes"/>
      <point x="185" y="330" type="line"/>
      <point x="209" y="370"/>
      <point x="241" y="412"/>
      <point x="264" y="412" type="curve" smooth="yes"/>
      <point x="276" y="412"/>
      <point x="296" y="378"/>
      <point x="329" y="378" type="curve" smooth="yes"/>
      <point x="351" y="378"/>
      <point x="373" y="394"/>
      <point x="373" y="432" type="curve" smooth="yes"/>
      <point x="373" y="466"/>
      <point x="354" y="488"/>
      <point x="315" y="488" type="curve" smooth="yes"/>
      <point x="267" y="488"/>
      <point x="237" y="453"/>
      <point x="186" y="379" type="curve"/>
      <point x="183" y="379" type="line"/>
      <point x="183" y="482" type="line"/>
      <point x="159" y="482" type="line"/>
      <point x="35" y="452" type="line"/>
      <point x="35" y="424" type="line"/>
      <point x="35" y="424"/>
      <point x="46" y="426"/>
      <point x="66" y="426" type="curve" smooth="yes"/>
      <point x="102" y="426"/>
      <point x="102" y="408"/>
      <point x="102" y="372" type="curve" smooth="yes"/>
      <point x="102" y="97" type="line" smooth="yes"/>
      <point x="102" y="41"/>
      <point x="95" y="29"/>
      <point x="29" y="29" type="curve"/>
      <point x="29" y="0" type="line"/>
    </contour>
  </outline>
</glyph>
<glyph name="t" format="2">
  <advance width="315"/>
  <unicode hex="0074"/>
  <anchor x="187" y="0" name="bottom"/>
  <anchor x="191" y="0" name="cedilla"/>
  <anchor x="191" y="0" name="ogonek"/>
  <anchor x="161" y="573" name="top"/>
  <outline>
    <contour>
      <point x="293" y="90" type="line"/>
      <point x="268" y="62"/>
      <point x="255" y="49"/>
      <point x="223" y="49" type="curve" smooth="yes"/>
      <point x="184" y="49"/>
      <point x="175" y="73"/>
      <point x="175" y="144" type="curve" smooth="yes"/>
      <point x="175" y="426" type="line"/>
      <point x="288" y="426" type="line"/>
      <point x="288" y="468" type="line"/>
      <point x="175" y="468" type="line"/>
      <point x="175" y="610" type="line"/>
      <point x="150" y="610" type="line"/>
      <point x="114" y="525"/>
      <point x="84" y="478"/>
      <point x="37" y="449" type="curve"/>
      <point x="37" y="426" type="line"/>
      <point x="92" y="426" type="line"/>
      <point x="92" y="116" type="line" smooth="yes"/>
      <point x="92" y="26"/>
      <point x="121" y="-10"/>
      <point x="188" y="-10" type="curve" smooth="yes"/>
      <point x="252" y="-10"/>
      <point x="273" y="20"/>
      <point x="312" y="74" type="curve"/>
    </contour>
  </outline>
</glyph>
<glyph name="u" format="2">
  <advance width="570"/>
  <unicode hex="0075"/>
  <anchor x="275" y="0" name="bottom"/>
  <anchor x="276" y="0" name="cedilla"/>
  <anchor x="411" y="0" name="ogonek"/>
  <anchor x="275" y="473" name="top"/>
  <outline>
    <contour>
      <point x="222" y="-10" type="curve" smooth="yes"/>
      <point x="286" y="-10"/>
      <point x="333" y="20"/>
      <point x="386" y="72" type="curve"/>
      <point x="391" y="72" type="line"/>
      <point x="391" y="-5" type="line"/>
      <point x="413" y="-5" type="line"/>
      <point x="540" y="18" type="line"/>
      <point x="540" y="45" type="line"/>
      <point x="530" y="45" type="line" smooth="yes"/>
      <point x="482" y="45"/>
      <point x="470" y="52"/>
      <point x="470" y="111" type="curve" smooth="yes"/>
      <point x="470" y="478" type="line"/>
      <point x="446" y="478" type="line"/>
      <point x="306" y="463" type="line"/>
      <point x="306" y="435" type="line"/>
      <point x="370" y="435"/>
      <point x="387" y="430"/>
      <point x="387" y="377" type="curve" smooth="yes"/>
      <point x="387" y="114" type="line"/>
      <point x="347" y="79"/>
      <point x="315" y="54"/>
      <point x="264" y="54" type="curve" smooth="yes"/>
      <point x="212" y="54"/>
      <point x="174" y="84"/>
      <point x="174" y="186" type="curve" smooth="yes"/>
      <point x="174" y="478" type="line"/>
      <point x="152" y="478" type="line"/>
      <point x="23" y="463" type="line"/>
      <point x="23" y="435" type="line"/>
      <point x="77" y="434"/>
      <point x="91" y="430"/>
      <point x="91" y="376" type="curve" smooth="yes"/>
      <point x="91" y="173" type="line" smooth="yes"/>
      <point x="91" y="37"/>
      <point x="139" y="-10"/>
    </contour>
  </outline>
</glyph>
<glyph name="v" format="2">
  <advance width="481"/>
  <unicode hex="0076"/>
  <anchor x="241" y="0" name="bottom"/>
  <anchor x="242" y="0" name="cedilla"/>
  <anchor x="220" y="0" name="ogonek"/>
  <anchor x="251" y="473" name="top"/>
  <outline>
    <contour>
      <point x="265" y="-6" type="line"/>
      <point x="423" y="378" type="line"/>
      <point x="443" y="430"/>
      <point x="459" y="444"/>
      <point x="498" y="444" type="curve"/>
      <point x="498" y="473" type="line"/>
      <point x="323" y="473" type="line"/>
      <point x="323" y="444" type="line"/>
      <point x="359" y="444"/>
      <point x="380" y="439"/>
      <point x="380" y="417" type="curve" smooth="yes"/>
      <point x="380" y="401"/>
      <point x="374" y="389"/>
      <point x="373" y="384" type="curve"/>
      <point x="287" y="158" type="line"/>
      <point x="266" y="97" type="line"/>
      <point x="260" y="97" type="line"/>
      <point x="241" y="157" type="line"/>
      <point x="156" y="380" type="line"/>
      <point x="150" y="394"/>
      <point x="146" y="406"/>
      <point x="146" y="419" type="curve" smooth="yes"/>
      <point x="146" y="435"/>
      <point x="159" y="444"/>
      <point x="198" y="444" type="curve"/>
      <point x="198" y="473" type="line"/>
      <point x="-13" y="473" type="line"/>
      <point x="-13" y="444" type="line"/>
      <point x="30" y="444"/>
      <point x="42" y="433"/>
      <point x="68" y="371" type="curve"/>
      <point x="217" y="-6" type="line"/>
    </contour>
  </outline>
</glyph>
<glyph name="w" format="2">
  <advance width="749"/>
  <unicode hex="0077"/>
  <anchor x="374" y="0" name="bottom"/>
  <anchor x="373" y="0" name="cedilla"/>
  <anchor x="374" y="0" name="ogonek"/>
  <anchor x="374" y="473" name="top"/>
  <outline>
    <contour>
      <point x="539" y="-6" type="line"/>
      <point x="688" y="378" type="line" smooth="yes"/>
      <point x="708" y="430"/>
      <point x="723" y="444"/>
      <point x="762" y="444" type="curve"/>
      <point x="762" y="473" type="line"/>
      <point x="589" y="473" type="line"/>
      <point x="589" y="444" type="line"/>
      <point x="626" y="444"/>
      <point x="645" y="438"/>
      <point x="645" y="419" type="curve" smooth="yes"/>
      <point x="645" y="402"/>
      <point x="640" y="388"/>
      <point x="639" y="383" type="curve"/>
      <point x="560" y="159" type="line"/>
      <point x="540" y="101" type="line"/>
      <point x="534" y="101" type="line"/>
      <point x="516" y="159" type="line"/>
      <point x="435" y="378" type="line" smooth="yes"/>
      <point x="430" y="393"/>
      <point x="426" y="407"/>
      <point x="426" y="419" type="curve" smooth="yes"/>
      <point x="426" y="435"/>
      <point x="438" y="444"/>
      <point x="476" y="444" type="curve"/>
      <point x="476" y="473" type="line"/>
      <point x="267" y="473" type="line"/>
      <point x="267" y="444" type="line"/>
      <point x="311" y="444"/>
      <point x="326" y="436"/>
      <point x="350" y="371" type="curve" smooth="yes"/>
      <point x="366" y="327" type="line"/>
      <point x="380" y="299" type="line"/>
      <point x="491" y="-6" type="line"/>
    </contour>
    <contour>
      <point x="264" y="-6" type="line"/>
      <point x="381" y="285" type="line"/>
      <point x="398" y="285" type="line"/>
      <point x="365" y="351" type="line"/>
      <point x="289" y="159" type="line"/>
      <point x="268" y="101" type="line"/>
      <point x="261" y="101" type="line"/>
      <point x="243" y="159" type="line"/>
      <point x="156" y="380" type="line" smooth="yes"/>
      <point x="150" y="395"/>
      <point x="145" y="406"/>
      <point x="145" y="419" type="curve" smooth="yes"/>
      <point x="145" y="435"/>
      <point x="158" y="444"/>
      <point x="198" y="444" type="curve"/>
      <point x="198" y="473" type="line"/>
      <point x="-17" y="473" type="line"/>
      <point x="-17" y="444" type="line"/>
      <point x="27" y="444"/>
      <point x="42" y="433"/>
      <point x="68" y="371" type="curve"/>
      <point x="218" y="-6" type="line"/>
    </contour>
  </outline>
</glyph>
<glyph name="x" format="2">
  <advance width="479"/>
  <unicode hex="0078"/>
  <anchor x="235" y="0" name="bottom"/>
  <anchor x="235" y="0" name="cedilla"/>
  <anchor x="235" y="0" name="ogonek"/>
  <anchor x="244" y="473" name="top"/>
  <outline>
    <contour>
      <point x="482" y="0" type="line"/>
      <point x="482" y="29" type="line"/>
      <point x="445" y="29"/>
      <point x="430" y="47"/>
      <point x="402" y="87" type="curve" smooth="yes"/>
      <point x="274" y="268" type="line"/>
      <point x="258" y="277" type="line"/>
      <point x="230" y="329" type="line"/>
      <point x="196" y="385"/>
      <point x="178" y="406"/>
      <point x="178" y="422" type="curve" smooth="yes"/>
      <point x="178" y="437"/>
      <point x="194" y="445"/>
      <point x="226" y="445" type="curve"/>
      <point x="226" y="473" type="line"/>
      <point x="11" y="473" type="line"/>
      <point x="11" y="444" type="line"/>
      <point x="52" y="444"/>
      <point x="64" y="434"/>
      <point x="99" y="384" type="curve" smooth="yes"/>
      <point x="209" y="227" type="line"/>
      <point x="225" y="213" type="line"/>
      <point x="250" y="169" type="line"/>
      <point x="313" y="72" type="line" smooth="yes"/>
      <point x="318" y="64"/>
      <point x="320" y="58"/>
      <point x="320" y="51" type="curve" smooth="yes"/>
      <point x="320" y="34"/>
      <point x="308" y="29"/>
      <point x="273" y="29" type="curve"/>
      <point x="273" y="0" type="line"/>
    </contour>
    <contour>
      <point x="165" y="0" type="line"/>
      <point x="165" y="29" type="line"/>
      <point x="132" y="29"/>
      <point x="120" y="33"/>
      <point x="120" y="44" type="curve" smooth="yes"/>
      <point x="120" y="52"/>
      <point x="134" y="70"/>
      <point x="144" y="86" type="curve"/>
      <point x="226" y="204" type="line"/>
      <point x="240" y="204" type="line"/>
      <point x="209" y="243" type="line"/>
      <point x="83" y="79" type="line"/>
      <point x="50" y="40"/>
      <point x="32" y="29"/>
      <point x="-2" y="29" type="curve"/>
      <point x="-2" y="0" type="line"/>
    </contour>
    <contour>
      <point x="385" y="397" type="line" smooth="yes"/>
      <point x="408" y="426"/>
      <point x="431" y="444"/>
      <point x="465" y="444" type="curve"/>
      <point x="465" y="473" type="line"/>
      <point x="300" y="473" type="line"/>
      <point x="300" y="445" type="line"/>
      <point x="332" y="445"/>
      <point x="341" y="436"/>
      <point x="341" y="421" type="curve" smooth="yes"/>
      <point x="341" y="405"/>
      <point x="332" y="390"/>
      <point x="305" y="353" type="curve"/>
      <point x="258" y="285" type="line"/>
      <point x="245" y="285" type="line"/>
      <point x="274" y="254" type="line"/>
    </contour>
  </outline>
</glyph>
<glyph name="y" format="2">
  <advance width="483"/>
  <unicode hex="0079"/>
  <anchor x="216" y="-220" name="bottom"/>
  <anchor x="216" y="-220" name="cedilla"/>
  <anchor x="216" y="-220" name="ogonek"/>
  <anchor x="261" y="473" name="top"/>
  <outline>
    <contour>
      <point x="77" y="-235" type="curve" smooth="yes"/>
      <point x="162" y="-235"/>
      <point x="210" y="-175"/>
      <point x="268" y="-22" type="curve" smooth="yes"/>
      <point x="424" y="388" type="line"/>
      <point x="438" y="427"/>
      <point x="453" y="444"/>
      <point x="493" y="444" type="curve"/>
      <point x="493" y="473" type="line"/>
      <point x="323" y="473" type="line"/>
      <point x="323" y="444" type="line"/>
      <point x="356" y="444"/>
      <point x="379" y="439"/>
      <point x="379" y="419" type="curve" smooth="yes"/>
      <point x="379" y="412"/>
      <point x="376" y="401"/>
      <point x="374" y="394" type="curve" smooth="yes"/>
      <point x="277" y="104" type="line"/>
      <point x="270" y="104" type="line"/>
      <point x="257" y="153" type="line"/>
      <point x="159" y="373" type="line" smooth="yes"/>
      <point x="153" y="387"/>
      <point x="145" y="404"/>
      <point x="145" y="417" type="curve" smooth="yes"/>
      <point x="145" y="434"/>
      <point x="157" y="443"/>
      <point x="202" y="443" type="curve"/>
      <point x="202" y="473" type="line"/>
      <point x="-12" y="473" type="line"/>
      <point x="-12" y="444" type="line"/>
      <point x="24" y="444"/>
      <point x="38" y="431"/>
      <point x="48" y="408" type="curve" smooth="yes"/>
      <point x="195" y="87" type="line" smooth="yes"/>
      <point x="207" y="60"/>
      <point x="225" y="18"/>
      <point x="225" y="5" type="curve" smooth="yes"/>
      <point x="225" y="-24"/>
      <point x="165" y="-162"/>
      <point x="129" y="-162" type="curve" smooth="yes"/>
      <point x="115" y="-162"/>
      <point x="86" y="-140"/>
      <point x="52" y="-140" type="curve" smooth="yes"/>
      <point x="26" y="-140"/>
      <point x="6" y="-153"/>
      <point x="6" y="-183" type="curve" smooth="yes"/>
      <point x="6" y="-221"/>
      <point x="36" y="-235"/>
    </contour>
  </outline>
</glyph>
<glyph name="braceleft" format="2">
  <advance width="312"/>
  <unicode hex="007B"/>
  <outline>
    <contour>
      <point x="264" y="-156" type="line"/>
      <point x="207" y="-156"/>
      <point x="155" y="-111"/>
      <point x="155" y="-45" type="curve" smooth="yes"/>
      <point x="155" y="27"/>
      <point x="175" y="64"/>
      <point x="175" y="144" type="curve" smooth="yes"/>
      <point x="175" y="217"/>
      <point x="138" y="253"/>
      <point x="89" y="268" type="curve"/>
      <point x="89" y="274" type="line"/>
      <point x="138" y="291"/>
      <point x="178" y="334"/>
      <point x="178" y="405" type="curve" smooth="yes"/>
      <point x="178" y="480"/>
      <point x="155" y="534"/>
      <point x="155" y="588" type="curve" smooth="yes"/>
      <point x="155" y="670"/>
      <point x="207" y="702"/>
      <point x="264" y="702" type="curve"/>
      <point x="264" y="732" type="line"/>
      <point x="167" y="732"/>
      <point x="82" y="687"/>
      <point x="82" y="578" type="curve" smooth="yes"/>
      <point x="82" y="514"/>
      <point x="108" y="415"/>
      <point x="108" y="357" type="curve" smooth="yes"/>
      <point x="108" y="304"/>
      <point x="71" y="293"/>
      <point x="26" y="291" type="curve"/>
      <point x="26" y="246" type="line"/>
      <point x="71" y="245"/>
      <point x="108" y="236"/>
      <point x="108" y="185" type="curve" smooth="yes"/>
      <point x="108" y="131"/>
      <point x="82" y="31"/>
      <point x="82" y="-34" type="curve" smooth="yes"/>
      <point x="82" y="-141"/>
      <point x="167" y="-186"/>
      <point x="264" y="-186" type="curve"/>
    </contour>
  </outline>
</glyph>
<glyph name="bar" format="2">
  <advance width="267"/>
  <unicode hex="007C"/>
  <outline>
    <contour>
      <point x="162" y="-220" type="line"/>
      <point x="162" y="706" type="line"/>
      <point x="105" y="706" type="line"/>
      <point x="105" y="-220" type="line"/>
    </contour>
  </outline>
</glyph>
<glyph name="braceright" format="2">
  <advance width="312"/>
  <unicode hex="007D"/>
  <outline>
    <contour>
      <point x="48" y="-186" type="line"/>
      <point x="145" y="-186"/>
      <point x="230" y="-141"/>
      <point x="230" y="-34" type="curve" smooth="yes"/>
      <point x="230" y="31"/>
      <point x="204" y="131"/>
      <point x="204" y="185" type="curve" smooth="yes"/>
      <point x="204" y="236"/>
      <point x="241" y="245"/>
      <point x="286" y="246" type="curve"/>
      <point x="286" y="291" type="line"/>
      <point x="241" y="293"/>
      <point x="204" y="304"/>
      <point x="204" y="357" type="curve" smooth="yes"/>
      <point x="204" y="415"/>
      <point x="230" y="514"/>
      <point x="230" y="578" type="curve" smooth="yes"/>
      <point x="230" y="687"/>
      <point x="145" y="732"/>
      <point x="48" y="732" type="curve"/>
      <point x="48" y="702" type="line"/>
      <point x="105" y="702"/>
      <point x="157" y="670"/>
      <point x="157" y="588" type="curve" smooth="yes"/>
      <point x="157" y="534"/>
      <point x="134" y="480"/>
      <point x="134" y="405" type="curve" smooth="yes"/>
      <point x="134" y="334"/>
      <point x="174" y="291"/>
      <point x="223" y="274" type="curve"/>
      <point x="223" y="268" type="line"/>
      <point x="174" y="253"/>
      <point x="137" y="217"/>
      <point x="137" y="144" type="curve" smooth="yes"/>
      <point x="137" y="64"/>
      <point x="157" y="27"/>
      <point x="157" y="-45" type="curve" smooth="yes"/>
      <point x="157" y="-111"/>
      <point x="105" y="-156"/>
      <point x="48" y="-156" type="curve"/>
    </contour>
  </outline>
</glyph>
<glyph name="cent" format="2">
  <advance width="495"/>
  <unicode hex="00A2"/>
  <outline>
    <contour>
      <point x="250" y="72" type="curve" smooth="yes"/>
      <point x="336" y="72"/>
      <point x="396" y="102"/>
      <point x="448" y="214" type="curve"/>
      <point x="429" y="228" type="line"/>
      <point x="384" y="170"/>
      <point x="354" y="143"/>
      <point x="289" y="143" type="curve" smooth="yes"/>
      <point x="196" y="143"/>
      <point x="125" y="219"/>
      <point x="125" y="353" type="curve" smooth="yes"/>
      <point x="125" y="459"/>
      <point x="176" y="528"/>
      <point x="258" y="528" type="curve"/>
      <point x="274" y="526" type="line"/>
      <point x="276" y="528" type="line"/>
      <point x="346" y="517"/>
      <point x="320" y="414"/>
      <point x="390" y="414" type="curve" smooth="yes"/>
      <point x="418" y="414"/>
      <point x="432" y="430"/>
      <point x="432" y="459" type="curve" smooth="yes"/>
      <point x="432" y="519"/>
      <point x="374" y="563"/>
      <point x="284" y="563" type="curve" smooth="yes"/>
      <point x="142" y="563"/>
      <point x="46" y="464"/>
      <point x="46" y="306" type="curve" smooth="yes"/>
      <point x="46" y="172"/>
      <point x="125" y="72"/>
    </contour>
    <contour>
      <point x="268" y="-25" type="line"/>
      <point x="293" y="657" type="line"/>
      <point x="250" y="657" type="line"/>
      <point x="225" y="-25" type="line"/>
    </contour>
  </outline>
</glyph>
<glyph name="sterling" format="2">
  <advance width="495"/>
  <unicode hex="00A3"/>
  <outline>
    <contour>
      <point x="213" y="91" type="line"/>
      <point x="232" y="148"/>
      <point x="241" y="196"/>
      <point x="241" y="242" type="curve"/>
      <point x="235" y="365"/>
      <point x="219" y="414"/>
      <point x="219" y="496" type="curve" smooth="yes"/>
      <point x="219" y="577"/>
      <point x="245" y="601"/>
      <point x="295" y="601" type="curve" smooth="yes"/>
      <point x="364" y="601"/>
      <point x="365" y="512"/>
      <point x="422" y="512" type="curve" smooth="yes"/>
      <point x="442" y="512"/>
      <point x="462" y="524"/>
      <point x="462" y="553" type="curve" smooth="yes"/>
      <point x="462" y="600"/>
      <point x="405" y="644"/>
      <point x="323" y="644" type="curve" smooth="yes"/>
      <point x="201" y="644"/>
      <point x="136" y="547"/>
      <point x="136" y="427" type="curve" smooth="yes"/>
      <point x="136" y="346"/>
      <point x="168" y="191"/>
      <point x="162" y="114" type="curve"/>
    </contour>
    <contour>
      <point x="92" y="-8" type="curve" smooth="yes"/>
      <point x="134" y="-8"/>
      <point x="163" y="10"/>
      <point x="197" y="62" type="curve"/>
      <point x="159" y="87" type="line"/>
      <point x="159" y="75" type="line"/>
      <point x="145" y="48"/>
      <point x="124" y="27"/>
      <point x="97" y="27" type="curve" smooth="yes"/>
      <point x="73" y="27"/>
      <point x="53" y="36"/>
      <point x="53" y="61" type="curve" smooth="yes"/>
      <point x="53" y="83"/>
      <point x="69" y="98"/>
      <point x="104" y="98" type="curve" smooth="yes"/>
      <point x="133" y="98"/>
      <point x="150" y="84"/>
      <point x="166" y="71" type="curve"/>
      <point x="175" y="59" type="line"/>
      <point x="251" y="9"/>
      <point x="275" y="-6"/>
      <point x="322" y="-6" type="curve" smooth="yes"/>
      <point x="408" y="-6"/>
      <point x="454" y="55"/>
      <point x="480" y="120" type="curve"/>
      <point x="460" y="132" type="line"/>
      <point x="432" y="93"/>
      <point x="398" y="66"/>
      <point x="339" y="66" type="curve" smooth="yes"/>
      <point x="285" y="66"/>
      <point x="271" y="83"/>
      <point x="198" y="117" type="curve"/>
      <point x="176" y="120" type="line"/>
      <point x="154" y="129"/>
      <point x="135" y="135"/>
      <point x="106" y="135" type="curve" smooth="yes"/>
      <point x="64" y="135"/>
      <point x="14" y="116"/>
      <point x="14" y="58" type="curve" smooth="yes"/>
      <point x="14" y="10"/>
      <point x="51" y="-8"/>
    </contour>
    <contour>
      <point x="372" y="304" type="line"/>
      <point x="372" y="347" type="line"/>
      <point x="51" y="347" type="line"/>
      <point x="51" y="304" type="line"/>
    </contour>
  </outline>
</glyph>
<glyph name="currency" format="2">
  <advance width="617"/>
  <unicode hex="00A4"/>
  <outline>
    <contour>
      <point x="310" y="55" type="curve" smooth="yes"/>
      <point x="424" y="55"/>
      <point x="522" y="146"/>
      <point x="522" y="269" type="curve" smooth="yes"/>
      <point x="522" y="393"/>
      <point x="430" y="481"/>
      <point x="310" y="481" type="curve" smooth="yes"/>
      <point x="186" y="481"/>
      <point x="96" y="388"/>
      <point x="96" y="268" type="curve" smooth="yes"/>
      <point x="96" y="151"/>
      <point x="187" y="55"/>
    </contour>
    <contour>
      <point x="189" y="109" type="line"/>
      <point x="150" y="148" type="line"/>
      <point x="40" y="41" type="line"/>
      <point x="81" y="0" type="line"/>
    </contour>
    <contour>
      <point x="310" y="106" type="curve" smooth="yes"/>
      <point x="222" y="106"/>
      <point x="151" y="179"/>
      <point x="151" y="269" type="curve" smooth="yes"/>
      <point x="151" y="357"/>
      <point x="222" y="430"/>
      <point x="308" y="430" type="curve" smooth="yes"/>
      <point x="397" y="430"/>
      <point x="466" y="359"/>
      <point x="466" y="270" type="curve" smooth="yes"/>
      <point x="466" y="178"/>
      <point x="398" y="106"/>
    </contour>
    <contour>
      <point x="189" y="429" type="line"/>
      <point x="81" y="537" type="line"/>
      <point x="40" y="497" type="line"/>
      <point x="150" y="388" type="line"/>
    </contour>
    <contour>
      <point x="577" y="41" type="line"/>
      <point x="470" y="148" type="line"/>
      <point x="429" y="109" type="line"/>
      <point x="538" y="0" type="line"/>
    </contour>
    <contour>
      <point x="577" y="497" type="line"/>
      <point x="538" y="537" type="line"/>
      <point x="429" y="429" type="line"/>
      <point x="470" y="388" type="line"/>
    </contour>
  </outline>
</glyph>
<glyph name="yen" format="2">
  <advance width="495"/>
  <unicode hex="00A5"/>
  <outline>
    <contour>
      <point x="387" y="0" type="line"/>
      <point x="386" y="28" type="line"/>
      <point x="306" y="28"/>
      <point x="298" y="44"/>
      <point x="299" y="162" type="curve"/>
      <point x="299" y="288" type="line"/>
      <point x="399" y="506" type="line" smooth="yes"/>
      <point x="434" y="582"/>
      <point x="446" y="599"/>
      <point x="494" y="601" type="curve"/>
      <point x="494" y="630" type="line"/>
      <point x="325" y="630" type="line"/>
      <point x="325" y="601" type="line"/>
      <point x="366" y="601"/>
      <point x="376" y="594"/>
      <point x="376" y="576" type="curve" smooth="yes"/>
      <point x="376" y="560"/>
      <point x="371" y="547"/>
      <point x="365" y="534" type="curve" smooth="yes"/>
      <point x="280" y="335" type="line"/>
      <point x="276" y="335" type="line"/>
      <point x="246" y="408" type="line"/>
      <point x="187" y="518" type="line"/>
      <point x="177" y="538"/>
      <point x="165" y="560"/>
      <point x="165" y="578" type="curve" smooth="yes"/>
      <point x="165" y="593"/>
      <point x="175" y="601"/>
      <point x="220" y="601" type="curve"/>
      <point x="220" y="629" type="line"/>
      <point x="1" y="630" type="line"/>
      <point x="1" y="601" type="line"/>
      <point x="34" y="601"/>
      <point x="40" y="589"/>
      <point x="94" y="491" type="curve" smooth="yes"/>
      <point x="207" y="289" type="line"/>
      <point x="207" y="133" type="line" smooth="yes"/>
      <point x="207" y="41"/>
      <point x="200" y="28"/>
      <point x="123" y="28" type="curve"/>
      <point x="123" y="0" type="line"/>
    </contour>
    <contour>
      <point x="429" y="142" type="line"/>
      <point x="429" y="186" type="line"/>
      <point x="75" y="186" type="line"/>
      <point x="75" y="142" type="line"/>
    </contour>
    <contour>
      <point x="429" y="261" type="line"/>
      <point x="429" y="305" type="line"/>
      <point x="75" y="305" type="line"/>
      <point x="75" y="261" type="line"/>
    </contour>
  </outline>
</glyph>
<glyph name="brokenbar" format="2">
  <advance width="267"/>
  <unicode hex="00A6"/>
  <outline>
    <contour>
      <point x="162" y="387" type="line"/>
      <point x="162" y="679" type="line"/>
      <point x="105" y="679" type="line"/>
      <point x="105" y="387" type="line"/>
    </contour>
    <contour>
      <point x="162" y="-38" type="line"/>
      <point x="162" y="254" type="line"/>
      <point x="105" y="254" type="line"/>
      <point x="105" y="-38" type="line"/>
    </contour>
  </outline>
</glyph>
<glyph name="section" format="2">
  <advance width="491"/>
  <unicode hex="00A7"/>
  <outline>
    <contour>
      <point x="308" y="71" type="line"/>
      <point x="379" y="90"/>
      <point x="416" y="130"/>
      <point x="416" y="195" type="curve" smooth="yes"/>
      <point x="416" y="377"/>
      <point x="167" y="430"/>
      <point x="167" y="549" type="curve" smooth="yes"/>
      <point x="167" y="607"/>
      <point x="214" y="623"/>
      <point x="266" y="623" type="curve" smooth="yes"/>
      <point x="313" y="623"/>
      <point x="340" y="601"/>
      <point x="340" y="576" type="curve" smooth="yes"/>
      <point x="340" y="548"/>
      <point x="323" y="546"/>
      <point x="323" y="517" type="curve" smooth="yes"/>
      <point x="323" y="491"/>
      <point x="340" y="481"/>
      <point x="360" y="481" type="curve" smooth="yes"/>
      <point x="386" y="481"/>
      <point x="402" y="500"/>
      <point x="402" y="538" type="curve" smooth="yes"/>
      <point x="402" y="604"/>
      <point x="346" y="652"/>
      <point x="265" y="652" type="curve" smooth="yes"/>
      <point x="180" y="652"/>
      <point x="103" y="606"/>
      <point x="103" y="522" type="curve" smooth="yes"/>
      <point x="103" y="471"/>
      <point x="130" y="429"/>
      <point x="199" y="365" type="curve" smooth="yes"/>
      <point x="274" y="296"/>
      <point x="363" y="235"/>
      <point x="363" y="166" type="curve" smooth="yes"/>
      <point x="363" y="110"/>
      <point x="320" y="94"/>
      <point x="285" y="84" type="curve"/>
      <point x="308" y="62" type="line"/>
    </contour>
    <contour>
      <point x="213" y="-203" type="curve" smooth="yes"/>
      <point x="299" y="-203"/>
      <point x="388" y="-171"/>
      <point x="388" y="-69" type="curve" smooth="yes"/>
      <point x="388" y="-11"/>
      <point x="349" y="29"/>
      <point x="303" y="73" type="curve" smooth="yes"/>
      <point x="295" y="81" type="line"/>
      <point x="220" y="150"/>
      <point x="135" y="211"/>
      <point x="135" y="282" type="curve" smooth="yes"/>
      <point x="135" y="325"/>
      <point x="155" y="346"/>
      <point x="213" y="363" type="curve"/>
      <point x="185" y="383" type="line"/>
      <point x="185" y="375" type="line"/>
      <point x="123" y="356"/>
      <point x="82" y="317"/>
      <point x="82" y="243" type="curve" smooth="yes"/>
      <point x="82" y="70"/>
      <point x="324" y="17"/>
      <point x="324" y="-100" type="curve" smooth="yes"/>
      <point x="324" y="-160"/>
      <point x="266" y="-175"/>
      <point x="214" y="-175" type="curve" smooth="yes"/>
      <point x="167" y="-175"/>
      <point x="137" y="-148"/>
      <point x="137" y="-123" type="curve" smooth="yes"/>
      <point x="137" y="-95"/>
      <point x="154" y="-93"/>
      <point x="154" y="-64" type="curve" smooth="yes"/>
      <point x="154" y="-38"/>
      <point x="137" y="-28"/>
      <point x="121" y="-28" type="curve" smooth="yes"/>
      <point x="91" y="-28"/>
      <point x="75" y="-47"/>
      <point x="75" y="-85" type="curve" smooth="yes"/>
      <point x="75" y="-151"/>
      <point x="133" y="-203"/>
    </contour>
  </outline>
</glyph>
<glyph name="logicalnot" format="2">
  <advance width="614"/>
  <unicode hex="00AC"/>
  <outline>
    <contour>
      <point x="565" y="118" type="line"/>
      <point x="565" y="402" type="line"/>
      <point x="49" y="402" type="line"/>
      <point x="49" y="335" type="line"/>
      <point x="497" y="335" type="line"/>
      <point x="497" y="118" type="line"/>
    </contour>
  </outline>
</glyph>
<glyph name="degree" format="2">
  <advance width="405"/>
  <unicode hex="00B0"/>
  <outline>
    <contour>
      <point x="203" y="394" type="curve" smooth="yes"/>
      <point x="291" y="394"/>
      <point x="355" y="449"/>
      <point x="355" y="546" type="curve" smooth="yes"/>
      <point x="355" y="643"/>
      <point x="291" y="697"/>
      <point x="205" y="697" type="curve" smooth="yes"/>
      <point x="119" y="697"/>
      <point x="50" y="645"/>
      <point x="50" y="547" type="curve" smooth="yes"/>
      <point x="50" y="449"/>
      <point x="115" y="394"/>
    </contour>
    <contour>
      <point x="203" y="441" type="curve" smooth="yes"/>
      <point x="142" y="441"/>
      <point x="106" y="482"/>
      <point x="106" y="546" type="curve" smooth="yes"/>
      <point x="106" y="610"/>
      <point x="141" y="650"/>
      <point x="201" y="650" type="curve" smooth="yes"/>
      <point x="261" y="650"/>
      <point x="299" y="612"/>
      <point x="299" y="547" type="curve" smooth="yes"/>
      <point x="299" y="482"/>
      <point x="264" y="441"/>
    </contour>
  </outline>
</glyph>
<glyph name="plusminus" format="2">
  <advance width="720"/>
  <unicode hex="00B1"/>
  <outline>
    <contour>
      <point x="394" y="92" type="line"/>
      <point x="394" y="306" type="line"/>
      <point x="658" y="306" type="line"/>
      <point x="658" y="373" type="line"/>
      <point x="394" y="373" type="line"/>
      <point x="394" y="576" type="line"/>
      <point x="326" y="576" type="line"/>
      <point x="326" y="373" type="line"/>
      <point x="62" y="373" type="line"/>
      <point x="62" y="306" type="line"/>
      <point x="326" y="306" type="line"/>
      <point x="326" y="92" type="line"/>
    </contour>
    <contour>
      <point x="658" y="-31" type="line"/>
      <point x="658" y="36" type="line"/>
      <point x="62" y="36" type="line"/>
      <point x="62" y="-31" type="line"/>
    </contour>
  </outline>
</glyph>
<glyph name="twosuperior" format="2">
  <advance width="373"/>
  <unicode hex="00B2"/>
  <anchor x="180" y="252" name="bottom"/>
  <anchor x="184" y="726" name="top"/>
  <outline>
    <contour>
      <point x="330" y="252" type="line"/>
      <point x="355" y="379" type="line"/>
      <point x="328" y="379" type="line"/>
      <point x="309" y="333"/>
      <point x="301" y="316"/>
      <point x="258" y="316" type="curve" smooth="yes"/>
      <point x="163" y="316" type="line"/>
      <point x="106" y="313" type="line"/>
      <point x="106" y="318" type="line"/>
      <point x="196" y="405" type="line" smooth="yes"/>
      <point x="278" y="483"/>
      <point x="332" y="536"/>
      <point x="332" y="606" type="curve" smooth="yes"/>
      <point x="332" y="689"/>
      <point x="269" y="738"/>
      <point x="180" y="738" type="curve" smooth="yes"/>
      <point x="104" y="738"/>
      <point x="52" y="697"/>
      <point x="27" y="631" type="curve"/>
      <point x="47" y="620" type="line"/>
      <point x="74" y="665"/>
      <point x="108" y="683"/>
      <point x="161" y="683" type="curve" smooth="yes"/>
      <point x="220" y="683"/>
      <point x="252" y="649"/>
      <point x="252" y="598" type="curve" smooth="yes"/>
      <point x="252" y="516"/>
      <point x="214" y="473"/>
      <point x="129" y="393" type="curve"/>
      <point x="27" y="291" type="line"/>
      <point x="27" y="252" type="line"/>
    </contour>
  </outline>
</glyph>
<glyph name="threesuperior" format="2">
  <advance width="374"/>
  <unicode hex="00B3"/>
  <anchor x="179" y="252" name="bottom"/>
  <anchor x="176" y="726" name="top"/>
  <outline>
    <contour>
      <point x="120" y="244" type="curve" smooth="yes"/>
      <point x="232" y="244"/>
      <point x="338" y="291"/>
      <point x="338" y="398" type="curve" smooth="yes"/>
      <point x="338" y="467"/>
      <point x="282" y="507"/>
      <point x="221" y="523" type="curve"/>
      <point x="221" y="528" type="line"/>
      <point x="270" y="556"/>
      <point x="307" y="584"/>
      <point x="307" y="637" type="curve" smooth="yes"/>
      <point x="307" y="694"/>
      <point x="257" y="738"/>
      <point x="175" y="738" type="curve" smooth="yes"/>
      <point x="113" y="738"/>
      <point x="63" y="704"/>
      <point x="33" y="638" type="curve"/>
      <point x="55" y="628" type="line"/>
      <point x="79" y="667"/>
      <point x="113" y="683"/>
      <point x="156" y="683" type="curve" smooth="yes"/>
      <point x="201" y="683"/>
      <point x="235" y="660"/>
      <point x="235" y="618" type="curve" smooth="yes"/>
      <point x="235" y="556"/>
      <point x="178" y="521"/>
      <point x="126" y="521" type="curve" smooth="yes"/>
      <point x="110" y="521" type="line"/>
      <point x="110" y="485" type="line"/>
      <point x="127" y="485" type="line" smooth="yes"/>
      <point x="203" y="485"/>
      <point x="266" y="443"/>
      <point x="266" y="378" type="curve" smooth="yes"/>
      <point x="266" y="303"/>
      <point x="213" y="283"/>
      <point x="171" y="283" type="curve" smooth="yes"/>
      <point x="133" y="283"/>
      <point x="86" y="324"/>
      <point x="64" y="324" type="curve" smooth="yes"/>
      <point x="42" y="324"/>
      <point x="32" y="303"/>
      <point x="32" y="285" type="curve" smooth="yes"/>
      <point x="32" y="265"/>
      <point x="49" y="244"/>
    </contour>
  </outline>
</glyph>
<glyph name="acute" format="2">
  <advance width="222"/>
  <unicode hex="00B4"/>
  <outline>
    <contour>
      <point x="69" y="521" type="line"/>
      <point x="193" y="656" type="line"/>
      <point x="193" y="674" type="line"/>
      <point x="100" y="674" type="line"/>
      <point x="30" y="521" type="line"/>
    </contour>
  </outline>
</glyph>
<glyph name="paragraph" format="2">
  <advance width="605"/>
  <unicode hex="00B6"/>
  <outline>
    <contour>
      <point x="327" y="-148" type="line"/>
      <point x="327" y="621" type="line"/>
      <point x="387" y="621" type="line"/>
      <point x="387" y="-148" type="line"/>
      <point x="545" y="-148" type="line"/>
      <point x="545" y="-119" type="line"/>
      <point x="467" y="-113"/>
      <point x="454" y="-99"/>
      <point x="454" y="-26" type="curve" smooth="yes"/>
      <point x="454" y="528" type="line" smooth="yes"/>
      <point x="454" y="604"/>
      <point x="466" y="624"/>
      <point x="545" y="631" type="curve"/>
      <point x="545" y="657" type="line"/>
      <point x="275" y="657" type="line" smooth="yes"/>
      <point x="125" y="657"/>
      <point x="55" y="594"/>
      <point x="55" y="461" type="curve" smooth="yes"/>
      <point x="55" y="315"/>
      <point x="134" y="267"/>
      <point x="269" y="257" type="curve"/>
      <point x="268" y="286" type="line"/>
      <point x="174" y="293"/>
      <point x="139" y="341"/>
      <point x="139" y="463" type="curve" smooth="yes"/>
      <point x="139" y="578"/>
      <point x="163" y="613"/>
      <point x="260" y="622" type="curve"/>
      <point x="260" y="-14" type="line" smooth="yes"/>
      <point x="260" y="-100"/>
      <point x="249" y="-114"/>
      <point x="169" y="-119" type="curve"/>
      <point x="169" y="-148" type="line"/>
    </contour>
  </outline>
</glyph>
<glyph name="periodcentered" format="2">
  <advance width="282"/>
  <unicode hex="00B7"/>
  <outline>
    <contour>
      <point x="140" y="198" type="curve" smooth="yes"/>
      <point x="179" y="198"/>
      <point x="200" y="224"/>
      <point x="200" y="255" type="curve" smooth="yes"/>
      <point x="200" y="288"/>
      <point x="179" y="317"/>
      <point x="141" y="317" type="curve" smooth="yes"/>
      <point x="104" y="317"/>
      <point x="82" y="289"/>
      <point x="82" y="256" type="curve" smooth="yes"/>
      <point x="82" y="222"/>
      <point x="101" y="198"/>
    </contour>
  </outline>
</glyph>
<glyph name="cedilla" format="2">
  <advance width="247"/>
  <unicode hex="00B8"/>
  <outline>
    <contour>
      <point x="113" y="-215" type="curve" smooth="yes"/>
      <point x="175" y="-215"/>
      <point x="217" y="-182"/>
      <point x="217" y="-128" type="curve" smooth="yes"/>
      <point x="217" y="-81"/>
      <point x="186" y="-55"/>
      <point x="135" y="-55" type="curve" smooth="yes"/>
      <point x="119" y="-55"/>
      <point x="107" y="-57"/>
      <point x="107" y="-57" type="curve"/>
      <point x="121" y="4" type="line"/>
      <point x="92" y="4" type="line"/>
      <point x="71" y="-82" type="line"/>
      <point x="85" y="-93" type="line"/>
      <point x="85" y="-93"/>
      <point x="100" y="-90"/>
      <point x="116" y="-90" type="curve" smooth="yes"/>
      <point x="149" y="-90"/>
      <point x="159" y="-109"/>
      <point x="159" y="-132" type="curve" smooth="yes"/>
      <point x="159" y="-164"/>
      <point x="138" y="-176"/>
      <point x="104" y="-176" type="curve" smooth="yes"/>
      <point x="79" y="-176"/>
      <point x="58" y="-168"/>
      <point x="40" y="-157" type="curve"/>
      <point x="30" y="-180" type="line"/>
      <point x="52" y="-197"/>
      <point x="76" y="-215"/>
    </contour>
  </outline>
</glyph>
<glyph name="onesuperior" format="2">
  <advance width="343"/>
  <unicode hex="00B9"/>
  <anchor x="173" y="252" name="bottom"/>
  <anchor x="173" y="726" name="top"/>
  <outline>
    <contour>
      <point x="301" y="252" type="line"/>
      <point x="301" y="279" type="line"/>
      <point x="233" y="279"/>
      <point x="211" y="291"/>
      <point x="211" y="328" type="curve" smooth="yes"/>
      <point x="211" y="735" type="line"/>
      <point x="178" y="735" type="line"/>
      <point x="43" y="699" type="line"/>
      <point x="43" y="669" type="line"/>
      <point x="61" y="673"/>
      <point x="94" y="679"/>
      <point x="110" y="679" type="curve" smooth="yes"/>
      <point x="131" y="679"/>
      <point x="138" y="667"/>
      <point x="138" y="641" type="curve" smooth="yes"/>
      <point x="138" y="328" type="line" smooth="yes"/>
      <point x="138" y="291"/>
      <point x="119" y="279"/>
      <point x="49" y="279" type="curve"/>
      <point x="49" y="252" type="line"/>
    </contour>
  </outline>
</glyph>
<glyph name="guillemotright" format="2">
  <advance width="517"/>
  <unicode hex="00BB"/>
  <outline>
    <contour>
      <point x="284" y="34" type="line"/>
      <point x="352" y="102"/>
      <point x="416" y="165"/>
      <point x="484" y="226" type="curve"/>
      <point x="484" y="249" type="line"/>
      <point x="413" y="315"/>
      <point x="349" y="379"/>
      <point x="286" y="442" type="curve"/>
      <point x="264" y="422" type="line"/>
      <point x="399" y="243" type="line"/>
      <point x="399" y="237" type="line"/>
      <point x="261" y="55" type="line"/>
    </contour>
    <contour>
      <point x="74" y="34" type="line"/>
      <point x="142" y="102"/>
      <point x="206" y="165"/>
      <point x="274" y="226" type="curve"/>
      <point x="274" y="249" type="line"/>
      <point x="203" y="315"/>
      <point x="139" y="379"/>
      <point x="76" y="442" type="curve"/>
      <point x="53" y="422" type="line"/>
      <point x="189" y="243" type="line"/>
      <point x="189" y="237" type="line"/>
      <point x="51" y="55" type="line"/>
    </contour>
  </outline>
</glyph>
<glyph name="questiondown" format="2">
  <advance width="411"/>
  <unicode hex="00BF"/>
  <outline>
    <contour>
      <point x="215" y="-196" type="curve" smooth="yes"/>
      <point x="316" y="-196"/>
      <point x="385" y="-139"/>
      <point x="385" y="-58" type="curve" smooth="yes"/>
      <point x="385" y="-11"/>
      <point x="365" y="12"/>
      <point x="334" y="12" type="curve" smooth="yes"/>
      <point x="310" y="12"/>
      <point x="289" y="-1"/>
      <point x="289" y="-32" type="curve" smooth="yes"/>
      <point x="289" y="-69"/>
      <point x="310" y="-70"/>
      <point x="310" y="-104" type="curve" smooth="yes"/>
      <point x="310" y="-135"/>
      <point x="283" y="-158"/>
      <point x="224" y="-158" type="curve" smooth="yes"/>
      <point x="160" y="-158"/>
      <point x="119" y="-123"/>
      <point x="119" y="-44" type="curve" smooth="yes"/>
      <point x="119" y="110"/>
      <point x="230" y="148"/>
      <point x="230" y="277" type="curve" smooth="yes"/>
      <point x="230" y="303" type="line"/>
      <point x="191" y="303" type="line"/>
      <point x="191" y="287" type="line" smooth="yes"/>
      <point x="191" y="178"/>
      <point x="30" y="100"/>
      <point x="30" y="-47" type="curve" smooth="yes"/>
      <point x="30" y="-150"/>
      <point x="117" y="-196"/>
    </contour>
    <contour>
      <point x="210" y="366" type="curve" smooth="yes"/>
      <point x="246" y="366"/>
      <point x="268" y="392"/>
      <point x="268" y="425" type="curve" smooth="yes"/>
      <point x="268" y="459"/>
      <point x="249" y="482"/>
      <point x="210" y="482" type="curve" smooth="yes"/>
      <point x="173" y="482"/>
      <point x="153" y="457"/>
      <point x="153" y="426" type="curve" smooth="yes"/>
      <point x="153" y="394"/>
      <point x="173" y="366"/>
    </contour>
  </outline>
</glyph>
<glyph name="AE" format="2">
  <advance width="894"/>
  <unicode hex="00C6"/>
  <anchor x="460" y="0" name="bottom"/>
  <anchor x="592" y="0" name="cedilla"/>
  <anchor x="731" y="0" name="ogonek"/>
  <anchor x="562" y="657" name="top"/>
  <outline>
    <contour>
      <point x="194" y="0" type="line"/>
      <point x="194" y="30" type="line"/>
      <point x="147" y="30"/>
      <point x="126" y="37"/>
      <point x="126" y="68" type="curve" smooth="yes"/>
      <point x="126" y="82"/>
      <point x="133" y="105"/>
      <point x="142" y="119" type="curve"/>
      <point x="247" y="310" type="line"/>
      <point x="254" y="331" type="line"/>
      <point x="406" y="612" type="line"/>
      <point x="413" y="612" type="line"/>
      <point x="413" y="340" type="line"/>
      <point x="248" y="340" type="line"/>
      <point x="231" y="301" type="line"/>
      <point x="413" y="301" type="line"/>
      <point x="413" y="145" type="line" smooth="yes"/>
      <point x="413" y="43"/>
      <point x="407" y="30"/>
      <point x="316" y="30" type="curve"/>
      <point x="316" y="0" type="line"/>
      <point x="836" y="0" type="line"/>
      <point x="865" y="186" type="line"/>
      <point x="833" y="186" type="line"/>
      <point x="794" y="66"/>
      <point x="776" y="44"/>
      <point x="621" y="44" type="curve" smooth="yes"/>
      <point x="505" y="44" type="line"/>
      <point x="505" y="301" type="line"/>
      <point x="609" y="301" type="line" smooth="yes"/>
      <point x="701" y="301"/>
      <point x="720" y="292"/>
      <point x="720" y="212" type="curve"/>
      <point x="754" y="212" type="line"/>
      <point x="754" y="440" type="line"/>
      <point x="720" y="440" type="line"/>
      <point x="720" y="360"/>
      <point x="701" y="340"/>
      <point x="609" y="340" type="curve" smooth="yes"/>
      <point x="505" y="340" type="line"/>
      <point x="505" y="612" type="line"/>
      <point x="640" y="612" type="line" smooth="yes"/>
      <point x="761" y="612"/>
      <point x="788" y="593"/>
      <point x="802" y="493" type="curve"/>
      <point x="834" y="493" type="line"/>
      <point x="828" y="657" type="line"/>
      <point x="285" y="657" type="line"/>
      <point x="285" y="627" type="line"/>
      <point x="325" y="627"/>
      <point x="343" y="623"/>
      <point x="343" y="596" type="curve" smooth="yes"/>
      <point x="343" y="581"/>
      <point x="337" y="568"/>
      <point x="330" y="554" type="curve"/>
      <point x="96" y="134" type="line" smooth="yes"/>
      <point x="55" y="59"/>
      <point x="34" y="30"/>
      <point x="-22" y="30" type="curve"/>
      <point x="-22" y="0" type="line"/>
    </contour>
  </outline>
</glyph>
<glyph name="Oslash" format="2">
  <advance width="737"/>
  <unicode hex="00D8"/>
  <anchor x="369" y="0" name="bottom"/>
  <anchor x="371" y="0" name="cedilla"/>
  <anchor x="419" y="0" name="ogonek"/>
  <anchor x="367" y="657" name="top"/>
  <outline>
    <contour>
      <point x="369" y="-12" type="curve" smooth="yes"/>
      <point x="566" y="-12"/>
      <point x="687" y="129"/>
      <point x="687" y="338" type="curve" smooth="yes"/>
      <point x="687" y="536"/>
      <point x="566" y="669"/>
      <point x="369" y="669" type="curve" smooth="yes"/>
      <point x="171" y="669"/>
      <point x="50" y="532"/>
      <point x="50" y="329" type="curve" smooth="yes"/>
      <point x="50" y="119"/>
      <point x="168" y="-12"/>
    </contour>
    <contour>
      <point x="169" y="61" type="line"/>
      <point x="140" y="88" type="line"/>
      <point x="75" y="4" type="line"/>
      <point x="106" y="-20" type="line"/>
    </contour>
    <contour>
      <point x="549" y="550" type="line"/>
      <point x="517" y="570" type="line"/>
      <point x="176" y="131" type="line"/>
      <point x="202" y="102" type="line"/>
    </contour>
    <contour>
      <point x="370" y="30" type="curve" smooth="yes"/>
      <point x="217" y="30"/>
      <point x="155" y="161"/>
      <point x="155" y="335" type="curve" smooth="yes"/>
      <point x="155" y="518"/>
      <point x="237" y="627"/>
      <point x="366" y="627" type="curve" smooth="yes"/>
      <point x="505" y="627"/>
      <point x="582" y="498"/>
      <point x="582" y="335" type="curve" smooth="yes"/>
      <point x="582" y="134"/>
      <point x="512" y="30"/>
    </contour>
    <contour>
      <point x="630" y="651" type="line"/>
      <point x="599" y="675" type="line"/>
      <point x="548" y="610" type="line"/>
      <point x="580" y="586" type="line"/>
    </contour>
  </outline>
</glyph>
<glyph name="ae" format="2">
  <advance width="709"/>
  <unicode hex="00E6"/>
  <anchor x="319" y="0" name="bottom"/>
  <anchor x="319" y="0" name="cedilla"/>
  <anchor x="497" y="0" name="ogonek"/>
  <anchor x="322" y="473" name="top"/>
  <outline>
    <contour>
      <point x="492" y="-10" type="curve" smooth="yes"/>
      <point x="595" y="-10"/>
      <point x="643" y="53"/>
      <point x="679" y="129" type="curve"/>
      <point x="659" y="143" type="line"/>
      <point x="627" y="101"/>
      <point x="597" y="65"/>
      <point x="516" y="65" type="curve" smooth="yes"/>
      <point x="415" y="65"/>
      <point x="373" y="135"/>
      <point x="373" y="282" type="curve" smooth="yes"/>
      <point x="373" y="390"/>
      <point x="407" y="445"/>
      <point x="475" y="445" type="curve" smooth="yes"/>
      <point x="546" y="445"/>
      <point x="578" y="377"/>
      <point x="581" y="303" type="curve"/>
      <point x="365" y="303" type="line"/>
      <point x="365" y="266" type="line"/>
      <point x="675" y="266" type="line"/>
      <point x="670" y="406"/>
      <point x="598" y="485"/>
      <point x="494" y="485" type="curve" smooth="yes"/>
      <point x="431" y="485"/>
      <point x="388" y="464"/>
      <point x="354" y="423" type="curve"/>
      <point x="349" y="423" type="line"/>
      <point x="327" y="464"/>
      <point x="284" y="485"/>
      <point x="226" y="485" type="curve" smooth="yes"/>
      <point x="120" y="485"/>
      <point x="54" y="431"/>
      <point x="54" y="375" type="curve" smooth="yes"/>
      <point x="54" y="342"/>
      <point x="76" y="327"/>
      <point x="96" y="327" type="curve" smooth="yes"/>
      <point x="125" y="327"/>
      <point x="140" y="342"/>
      <point x="140" y="373" type="curve" smooth="yes"/>
      <point x="140" y="433"/>
      <point x="150" y="454"/>
      <point x="207" y="454" type="curve" smooth="yes"/>
      <point x="265" y="454"/>
      <point x="291" y="421"/>
      <point x="291" y="334" type="curve" smooth="yes"/>
      <point x="291" y="265" type="line" smooth="yes"/>
      <point x="291" y="203"/>
      <point x="293" y="152"/>
      <point x="306" y="100" type="curve"/>
      <point x="354" y="24"/>
      <point x="402" y="-10"/>
    </contour>
    <contour>
      <point x="150" y="-7" type="curve" smooth="yes"/>
      <point x="234" y="-7"/>
      <point x="286" y="41"/>
      <point x="317" y="78" type="curve"/>
      <point x="330" y="78" type="line"/>
      <point x="311" y="116" type="line"/>
      <point x="274" y="73"/>
      <point x="234" y="48"/>
      <point x="195" y="48" type="curve" smooth="yes"/>
      <point x="154" y="48"/>
      <point x="125" y="79"/>
      <point x="125" y="129" type="curve" smooth="yes"/>
      <point x="125" y="210"/>
      <point x="209" y="234"/>
      <point x="301" y="259" type="curve"/>
      <point x="297" y="291" type="line"/>
      <point x="212" y="263"/>
      <point x="38" y="236"/>
      <point x="38" y="103" type="curve" smooth="yes"/>
      <point x="38" y="37"/>
      <point x="85" y="-7"/>
    </contour>
  </outline>
</glyph>
<glyph name="icircumflex" format="2">
  <advance width="285"/>
  <unicode hex="00EE"/>
  <anchor x="145" y="0" name="bottom"/>
  <anchor x="144" y="0" name="cedilla"/>
  <anchor x="144" y="0" name="ogonek"/>
  <anchor x="125" y="673" name="top.mkmk"/>
  <outline>
    <contour>
      <point x="257" y="0" type="line"/>
      <point x="257" y="28" type="line"/>
      <point x="190" y="28"/>
      <point x="185" y="43"/>
      <point x="185" y="101" type="curve" smooth="yes"/>
      <point x="185" y="482" type="line"/>
      <point x="159" y="482" type="line"/>
      <point x="33" y="454" type="line"/>
      <point x="33" y="425" type="line"/>
      <point x="33" y="425"/>
      <point x="44" y="427"/>
      <point x="58" y="427" type="curve" smooth="yes"/>
      <point x="87" y="427"/>
      <point x="102" y="423"/>
      <point x="102" y="380" type="curve" smooth="yes"/>
      <point x="102" y="101" type="line" smooth="yes"/>
      <point x="102" y="44"/>
      <point x="99" y="28"/>
      <point x="32" y="28" type="curve"/>
      <point x="32" y="0" type="line"/>
    </contour>
    <contour>
      <point x="32" y="521" type="line"/>
      <point x="125" y="619" type="line"/>
      <point x="218" y="521" type="line"/>
      <point x="257" y="521" type="line"/>
      <point x="158" y="674" type="line"/>
      <point x="92" y="674" type="line"/>
      <point x="-6" y="521" type="line"/>
    </contour>
  </outline>
</glyph>
<glyph name="eth" format="2">
  <advance width="532"/>
  <unicode hex="00F0"/>
  <anchor x="261" y="0" name="bottom"/>
  <anchor x="261" y="0" name="cedilla"/>
  <anchor x="262" y="0" name="ogonek"/>
  <anchor x="261" y="693" name="top"/>
  <outline>
    <contour>
      <point x="253" y="-10" type="curve" smooth="yes"/>
      <point x="389" y="-10"/>
      <point x="483" y="85"/>
      <point x="483" y="299" type="curve" smooth="yes"/>
      <point x="483" y="503"/>
      <point x="390" y="713"/>
      <point x="204" y="713" type="curve" smooth="yes"/>
      <point x="163" y="713"/>
      <point x="125" y="703"/>
      <point x="88" y="681" type="curve"/>
      <point x="99" y="653" type="line"/>
      <point x="115" y="660"/>
      <point x="139" y="668"/>
      <point x="174" y="668" type="curve" smooth="yes"/>
      <point x="287" y="668"/>
      <point x="371" y="558"/>
      <point x="384" y="422" type="curve"/>
      <point x="378" y="419" type="line"/>
      <point x="345" y="447"/>
      <point x="306" y="464"/>
      <point x="253" y="464" type="curve" smooth="yes"/>
      <point x="120" y="464"/>
      <point x="34" y="369"/>
      <point x="34" y="230" type="curve" smooth="yes"/>
      <point x="34" y="74"/>
      <point x="115" y="-10"/>
    </contour>
    <contour>
      <point x="260" y="29" type="curve" smooth="yes"/>
      <point x="171" y="29"/>
      <point x="127" y="98"/>
      <point x="127" y="243" type="curve" smooth="yes"/>
      <point x="127" y="369"/>
      <point x="176" y="427"/>
      <point x="251" y="427" type="curve" smooth="yes"/>
      <point x="342" y="427"/>
      <point x="387" y="368"/>
      <point x="387" y="265" type="curve" smooth="yes"/>
      <point x="387" y="92"/>
      <point x="339" y="29"/>
    </contour>
    <contour>
      <point x="481" y="658" type="line"/>
      <point x="466" y="690" type="line"/>
      <point x="187" y="556" type="line"/>
      <point x="201" y="526" type="line"/>
    </contour>
  </outline>
</glyph>
<glyph name="oslash" format="2">
  <advance width="514"/>
  <unicode hex="00F8"/>
  <anchor x="261" y="0" name="bottom"/>
  <anchor x="261" y="0" name="cedilla"/>
  <anchor x="287" y="0" name="ogonek"/>
  <anchor x="240" y="473" name="top"/>
  <outline>
    <contour>
      <point x="258" y="-10" type="curve" smooth="yes"/>
      <point x="388" y="-10"/>
      <point x="480" y="78"/>
      <point x="480" y="246" type="curve" smooth="yes"/>
      <point x="480" y="391"/>
      <point x="397" y="485"/>
      <point x="258" y="485" type="curve" smooth="yes"/>
      <point x="123" y="485"/>
      <point x="34" y="387"/>
      <point x="34" y="242" type="curve" smooth="yes"/>
      <point x="34" y="93"/>
      <point x="106" y="-10"/>
    </contour>
    <contour>
      <point x="114" y="47" type="line"/>
      <point x="90" y="74" type="line"/>
      <point x="37" y="6" type="line"/>
      <point x="65" y="-16" type="line"/>
    </contour>
    <contour>
      <point x="262" y="30" type="curve" smooth="yes"/>
      <point x="159" y="30"/>
      <point x="127" y="123"/>
      <point x="127" y="255" type="curve" smooth="yes"/>
      <point x="127" y="383"/>
      <point x="178" y="447"/>
      <point x="254" y="447" type="curve" smooth="yes"/>
      <point x="348" y="447"/>
      <point x="388" y="351"/>
      <point x="388" y="241" type="curve" smooth="yes"/>
      <point x="388" y="78"/>
      <point x="343" y="30"/>
    </contour>
    <contour>
      <point x="370" y="379" type="line"/>
      <point x="350" y="412" type="line"/>
      <point x="132" y="130" type="line"/>
      <point x="146" y="89" type="line"/>
    </contour>
    <contour>
      <point x="442" y="472" type="line"/>
      <point x="413" y="494" type="line"/>
      <point x="375" y="446" type="line"/>
      <point x="404" y="424" type="line"/>
    </contour>
  </outline>
</glyph>
<glyph name="thorn" format="2">
  <advance width="524"/>
  <unicode hex="00FE"/>
  <anchor x="218" y="-220" name="bottom"/>
  <anchor x="144" y="-220" name="cedilla"/>
  <anchor x="144" y="-220" name="ogonek"/>
  <anchor x="226" y="693" name="top"/>
  <outline>
    <contour>
      <point x="261" y="-220" type="line"/>
      <point x="261" y="-192" type="line"/>
      <point x="182" y="-192"/>
      <point x="164" y="-178"/>
      <point x="164" y="-114" type="curve" smooth="yes"/>
      <point x="164" y="18" type="line"/>
      <point x="167" y="18" type="line"/>
      <point x="196" y="-2"/>
      <point x="231" y="-10"/>
      <point x="269" y="-10" type="curve" smooth="yes"/>
      <point x="390" y="-10"/>
      <point x="489" y="91"/>
      <point x="489" y="261" type="curve" smooth="yes"/>
      <point x="489" y="392"/>
      <point x="420" y="485"/>
      <point x="321" y="485" type="curve" smooth="yes"/>
      <point x="261" y="485"/>
      <point x="214" y="454"/>
      <point x="167" y="398" type="curve"/>
      <point x="164" y="398" type="line"/>
      <point x="164" y="706" type="line"/>
      <point x="138" y="706" type="line"/>
      <point x="7" y="671" type="line"/>
      <point x="7" y="644" type="line"/>
      <point x="7" y="644"/>
      <point x="27" y="646"/>
      <point x="40" y="646" type="curve" smooth="yes"/>
      <point x="73" y="646"/>
      <point x="80" y="632"/>
      <point x="80" y="594" type="curve" smooth="yes"/>
      <point x="80" y="-120" type="line" smooth="yes"/>
      <point x="80" y="-176"/>
      <point x="70" y="-193"/>
      <point x="7" y="-193" type="curve"/>
      <point x="7" y="-220" type="line"/>
    </contour>
    <contour>
      <point x="274" y="29" type="curve" smooth="yes"/>
      <point x="219" y="29"/>
      <point x="183" y="74"/>
      <point x="164" y="95" type="curve"/>
      <point x="164" y="356" type="line"/>
      <point x="183" y="381"/>
      <point x="227" y="417"/>
      <point x="279" y="417" type="curve" smooth="yes"/>
      <point x="354" y="417"/>
      <point x="398" y="358"/>
      <point x="398" y="233" type="curve" smooth="yes"/>
      <point x="398" y="94"/>
      <point x="344" y="29"/>
    </contour>
  </outline>
</glyph>
<glyph name="Aogonek" format="2">
  <advance width="719"/>
  <unicode hex="0104"/>
  <anchor x="336" y="-250" name="bottom.mkmk"/>
  <anchor x="338" y="-250" name="cedilla"/>
  <anchor x="336" y="-250" name="ogonek"/>
  <anchor x="354" y="657" name="top"/>
  <outline>
    <contour>
      <point x="438" y="-216" type="curve" smooth="yes"/>
      <point x="498" y="-216"/>
      <point x="527" y="-190"/>
      <point x="565" y="-151" type="curve"/>
      <point x="551" y="-134" type="line"/>
      <point x="521" y="-156"/>
      <point x="504" y="-165"/>
      <point x="467" y="-165" type="curve" smooth="yes"/>
      <point x="435" y="-165"/>
      <point x="416" y="-147"/>
      <point x="416" y="-110" type="curve" smooth="yes"/>
      <point x="416" y="-59"/>
      <point x="459" y="0"/>
      <point x="528" y="0" type="curve" smooth="yes"/>
      <point x="715" y="0" type="line"/>
      <point x="715" y="30" type="line"/>
      <point x="661" y="30"/>
      <point x="641" y="53"/>
      <point x="612" y="119" type="curve" smooth="yes"/>
      <point x="375" y="662" type="line"/>
      <point x="334" y="662" type="line"/>
      <point x="130" y="180" type="line" smooth="yes"/>
      <point x="75" y="48"/>
      <point x="64" y="30"/>
      <point x="4" y="30" type="curve"/>
      <point x="4" y="0" type="line"/>
      <point x="214" y="0" type="line"/>
      <point x="214" y="30" type="line"/>
      <point x="167" y="30"/>
      <point x="147" y="36"/>
      <point x="147" y="64" type="curve" smooth="yes"/>
      <point x="147" y="82"/>
      <point x="152" y="97"/>
      <point x="158" y="113" type="curve"/>
      <point x="207" y="229" type="line"/>
      <point x="214" y="249" type="line"/>
      <point x="331" y="539" type="line"/>
      <point x="334" y="539" type="line"/>
      <point x="448" y="249" type="line"/>
      <point x="455" y="229" type="line"/>
      <point x="489" y="148" type="line"/>
      <point x="510" y="103"/>
      <point x="515" y="83"/>
      <point x="515" y="67" type="curve" smooth="yes"/>
      <point x="515" y="45"/>
      <point x="488" y="34"/>
      <point x="451" y="15" type="curve" smooth="yes"/>
      <point x="414" y="-4"/>
      <point x="349" y="-46"/>
      <point x="349" y="-126" type="curve" smooth="yes"/>
      <point x="349" y="-185"/>
      <point x="385" y="-216"/>
    </contour>
    <contour>
      <point x="470" y="219" type="line"/>
      <point x="455" y="259" type="line"/>
      <point x="207" y="259" type="line"/>
      <point x="192" y="219" type="line"/>
    </contour>
  </outline>
</glyph>
<glyph name="aogonek" format="2">
  <advance width="480"/>
  <unicode hex="0105"/>
  <anchor x="221" y="-250" name="bottom.mkmk"/>
  <anchor x="222" y="-250" name="cedilla"/>
  <anchor x="221" y="-250" name="ogonek"/>
  <anchor x="231" y="473" name="top"/>
  <outline>
    <contour>
      <point x="356" y="-216" type="curve" smooth="yes"/>
      <point x="415" y="-216"/>
      <point x="445" y="-190"/>
      <point x="483" y="-151" type="curve"/>
      <point x="469" y="-134" type="line"/>
      <point x="439" y="-156"/>
      <point x="422" y="-165"/>
      <point x="385" y="-165" type="curve" smooth="yes"/>
      <point x="353" y="-165"/>
      <point x="334" y="-147"/>
      <point x="334" y="-110" type="curve" smooth="yes"/>
      <point x="334" y="-57"/>
      <point x="377" y="-21"/>
      <point x="415" y="3" type="curve"/>
      <point x="437" y="13"/>
      <point x="454" y="33"/>
      <point x="476" y="64" type="curve"/>
      <point x="461" y="80" type="line"/>
      <point x="447" y="65"/>
      <point x="433" y="55"/>
      <point x="414" y="55" type="curve" smooth="yes"/>
      <point x="393" y="55"/>
      <point x="384" y="63"/>
      <point x="384" y="104" type="curve" smooth="yes"/>
      <point x="384" y="331" type="line" smooth="yes"/>
      <point x="384" y="435"/>
      <point x="343" y="485"/>
      <point x="234" y="485" type="curve" smooth="yes"/>
      <point x="125" y="485"/>
      <point x="58" y="431"/>
      <point x="58" y="375" type="curve" smooth="yes"/>
      <point x="58" y="342"/>
      <point x="80" y="327"/>
      <point x="100" y="327" type="curve" smooth="yes"/>
      <point x="128" y="327"/>
      <point x="144" y="342"/>
      <point x="144" y="373" type="curve" smooth="yes"/>
      <point x="144" y="433"/>
      <point x="154" y="454"/>
      <point x="211" y="454" type="curve" smooth="yes"/>
      <point x="271" y="454"/>
      <point x="301" y="421"/>
      <point x="301" y="334" type="curve" smooth="yes"/>
      <point x="301" y="290" type="line"/>
      <point x="215" y="263"/>
      <point x="38" y="237"/>
      <point x="38" y="105" type="curve" smooth="yes"/>
      <point x="38" y="41"/>
      <point x="80" y="-7"/>
      <point x="157" y="-7" type="curve" smooth="yes"/>
      <point x="221" y="-7"/>
      <point x="257" y="21"/>
      <point x="304" y="62" type="curve"/>
      <point x="316" y="62" type="line"/>
      <point x="308" y="98" type="line"/>
      <point x="272" y="66"/>
      <point x="233" y="48"/>
      <point x="198" y="48" type="curve" smooth="yes"/>
      <point x="155" y="48"/>
      <point x="126" y="79"/>
      <point x="126" y="129" type="curve" smooth="yes"/>
      <point x="126" y="207"/>
      <point x="210" y="234"/>
      <point x="301" y="257" type="curve"/>
      <point x="301" y="84" type="line"/>
      <point x="307" y="73" type="line"/>
      <point x="312" y="25"/>
      <point x="319" y="0"/>
      <point x="358" y="-3" type="curve"/>
      <point x="358" y="-5" type="line"/>
      <point x="320" y="-35"/>
      <point x="266" y="-80"/>
      <point x="266" y="-134" type="curve" smooth="yes"/>
      <point x="266" y="-184"/>
      <point x="303" y="-216"/>
    </contour>
  </outline>
</glyph>
<glyph name="dcroat" format="2">
  <advance width="540"/>
  <unicode hex="0111"/>
  <anchor x="269" y="0" name="bottom"/>
  <anchor x="270" y="0" name="cedilla"/>
  <anchor x="371" y="0" name="ogonek"/>
  <anchor x="269" y="693" name="top"/>
  <outline>
    <contour>
      <point x="204" y="-8" type="curve" smooth="yes"/>
      <point x="270" y="-8"/>
      <point x="320" y="30"/>
      <point x="358" y="64" type="curve"/>
      <point x="362" y="64" type="line"/>
      <point x="362" y="-5" type="line"/>
      <point x="386" y="-5" type="line"/>
      <point x="515" y="18" type="line"/>
      <point x="515" y="45" type="line"/>
      <point x="494" y="45" type="line" smooth="yes"/>
      <point x="457" y="45"/>
      <point x="444" y="55"/>
      <point x="444" y="107" type="curve" smooth="yes"/>
      <point x="444" y="541" type="line"/>
      <point x="513" y="541" type="line"/>
      <point x="513" y="581" type="line"/>
      <point x="444" y="581" type="line"/>
      <point x="444" y="706" type="line"/>
      <point x="416" y="706" type="line"/>
      <point x="289" y="671" type="line"/>
      <point x="289" y="643" type="line"/>
      <point x="289" y="643"/>
      <point x="306" y="645"/>
      <point x="315" y="645" type="curve" smooth="yes"/>
      <point x="357" y="645"/>
      <point x="359" y="634"/>
      <point x="359" y="581" type="curve"/>
      <point x="209" y="581" type="line"/>
      <point x="209" y="541" type="line"/>
      <point x="359" y="541" type="line"/>
      <point x="359" y="451" type="line"/>
      <point x="328" y="468"/>
      <point x="295" y="476"/>
      <point x="262" y="476" type="curve" smooth="yes"/>
      <point x="136" y="476"/>
      <point x="33" y="376"/>
      <point x="33" y="216" type="curve" smooth="yes"/>
      <point x="33" y="89"/>
      <point x="91" y="-8"/>
    </contour>
    <contour>
      <point x="251" y="64" type="curve" smooth="yes"/>
      <point x="166" y="64"/>
      <point x="120" y="119"/>
      <point x="120" y="253" type="curve" smooth="yes"/>
      <point x="120" y="376"/>
      <point x="176" y="436"/>
      <point x="260" y="436" type="curve" smooth="yes"/>
      <point x="338" y="436"/>
      <point x="359" y="386"/>
      <point x="359" y="332" type="curve" smooth="yes"/>
      <point x="359" y="100" type="line"/>
      <point x="325" y="77"/>
      <point x="299" y="64"/>
    </contour>
  </outline>
</glyph>
<glyph name="eogonek" format="2">
  <advance width="464"/>
  <unicode hex="0119"/>
  <anchor x="242" y="-250" name="bottom.mkmk"/>
  <anchor x="243" y="-250" name="cedilla"/>
  <anchor x="243" y="-250" name="ogonek"/>
  <anchor x="242" y="473" name="top"/>
  <outline>
    <contour>
      <point x="263" y="-216" type="curve" smooth="yes"/>
      <point x="321" y="-216"/>
      <point x="351" y="-190"/>
      <point x="389" y="-151" type="curve"/>
      <point x="375" y="-134" type="line"/>
      <point x="346" y="-156"/>
      <point x="328" y="-165"/>
      <point x="291" y="-165" type="curve" smooth="yes"/>
      <point x="260" y="-165"/>
      <point x="240" y="-147"/>
      <point x="240" y="-110" type="curve" smooth="yes"/>
      <point x="240" y="-56"/>
      <point x="285" y="-18"/>
      <point x="321" y="3" type="curve"/>
      <point x="376" y="28"/>
      <point x="408" y="73"/>
      <point x="434" y="129" type="curve"/>
      <point x="415" y="143" type="line"/>
      <point x="383" y="101"/>
      <point x="352" y="65"/>
      <point x="271" y="65" type="curve" smooth="yes"/>
      <point x="188" y="65"/>
      <point x="115" y="132"/>
      <point x="115" y="272" type="curve" smooth="yes"/>
      <point x="115" y="387"/>
      <point x="152" y="445"/>
      <point x="230" y="445" type="curve" smooth="yes"/>
      <point x="301" y="445"/>
      <point x="334" y="377"/>
      <point x="337" y="303" type="curve"/>
      <point x="105" y="303" type="line"/>
      <point x="106" y="266" type="line"/>
      <point x="431" y="266" type="line"/>
      <point x="426" y="406"/>
      <point x="354" y="485"/>
      <point x="245" y="485" type="curve" smooth="yes"/>
      <point x="128" y="485"/>
      <point x="34" y="405"/>
      <point x="34" y="238" type="curve" smooth="yes"/>
      <point x="34" y="77"/>
      <point x="127" y="-10"/>
      <point x="246" y="-10" type="curve" smooth="yes"/>
      <point x="263" y="-10"/>
      <point x="292" y="-1"/>
      <point x="295" y="0" type="curve"/>
      <point x="258" y="28" type="line"/>
      <point x="258" y="-13" type="line"/>
      <point x="222" y="-42"/>
      <point x="173" y="-83"/>
      <point x="173" y="-134" type="curve" smooth="yes"/>
      <point x="173" y="-184"/>
      <point x="209" y="-216"/>
    </contour>
  </outline>
</glyph>
<glyph name="ibreve" format="2">
  <advance width="285"/>
  <unicode hex="012D"/>
  <anchor x="145" y="0" name="bottom"/>
  <anchor x="144" y="0" name="cedilla"/>
  <anchor x="144" y="0" name="ogonek"/>
  <anchor x="124" y="683" name="top.mkmk"/>
  <outline>
    <contour>
      <point x="257" y="0" type="line"/>
      <point x="257" y="28" type="line"/>
      <point x="190" y="28"/>
      <point x="185" y="43"/>
      <point x="185" y="101" type="curve" smooth="yes"/>
      <point x="185" y="482" type="line"/>
      <point x="159" y="482" type="line"/>
      <point x="33" y="454" type="line"/>
      <point x="33" y="425" type="line"/>
      <point x="33" y="425"/>
      <point x="44" y="427"/>
      <point x="58" y="427" type="curve" smooth="yes"/>
      <point x="87" y="427"/>
      <point x="102" y="423"/>
      <point x="102" y="380" type="curve" smooth="yes"/>
      <point x="102" y="101" type="line" smooth="yes"/>
      <point x="102" y="44"/>
      <point x="99" y="28"/>
      <point x="32" y="28" type="curve"/>
      <point x="32" y="0" type="line"/>
    </contour>
    <contour>
      <point x="124" y="529" type="curve" smooth="yes"/>
      <point x="203" y="529"/>
      <point x="246" y="577"/>
      <point x="256" y="683" type="curve"/>
      <point x="226" y="683" type="line"/>
      <point x="205" y="606"/>
      <point x="179" y="588"/>
      <point x="124" y="588" type="curve" smooth="yes"/>
      <point x="70" y="588"/>
      <point x="38" y="606"/>
      <point x="23" y="683" type="curve"/>
      <point x="-7" y="683" type="line"/>
      <point x="-3" y="577"/>
      <point x="45" y="529"/>
    </contour>
  </outline>
</glyph>
<glyph name="iogonek" format="2">
  <advance width="285"/>
  <unicode hex="012F"/>
  <anchor x="145" y="-250" name="bottom.mkmk"/>
  <anchor x="145" y="-250" name="cedilla"/>
  <anchor x="145" y="-250" name="ogonek"/>
  <anchor x="145" y="693" name="top.mkmk"/>
  <outline>
    <contour>
      <point x="133" y="-216" type="curve" smooth="yes"/>
      <point x="192" y="-216"/>
      <point x="221" y="-190"/>
      <point x="259" y="-151" type="curve"/>
      <point x="245" y="-134" type="line"/>
      <point x="216" y="-156"/>
      <point x="199" y="-165"/>
      <point x="161" y="-165" type="curve" smooth="yes"/>
      <point x="130" y="-165"/>
      <point x="111" y="-147"/>
      <point x="111" y="-110" type="curve" smooth="yes"/>
      <point x="111" y="-58"/>
      <point x="151" y="-26"/>
      <point x="187" y="0" type="curve"/>
      <point x="257" y="0" type="line"/>
      <point x="257" y="28" type="line"/>
      <point x="190" y="28"/>
      <point x="185" y="43"/>
      <point x="185" y="101" type="curve" smooth="yes"/>
      <point x="185" y="482" type="line"/>
      <point x="159" y="482" type="line"/>
      <point x="33" y="454" type="line"/>
      <point x="33" y="425" type="line"/>
      <point x="33" y="425"/>
      <point x="44" y="427"/>
      <point x="58" y="427" type="curve" smooth="yes"/>
      <point x="87" y="427"/>
      <point x="102" y="423"/>
      <point x="102" y="380" type="curve" smooth="yes"/>
      <point x="102" y="101" type="line" smooth="yes"/>
      <point x="102" y="44"/>
      <point x="99" y="28"/>
      <point x="32" y="28" type="curve"/>
      <point x="32" y="0" type="line"/>
      <point x="140" y="0" type="line"/>
      <point x="140" y="-3" type="line"/>
      <point x="103" y="-31"/>
      <point x="43" y="-77"/>
      <point x="43" y="-134" type="curve" smooth="yes"/>
      <point x="43" y="-184"/>
      <point x="79" y="-216"/>
    </contour>
    <contour>
      <point x="145" y="560" type="curve" smooth="yes"/>
      <point x="180" y="560"/>
      <point x="202" y="586"/>
      <point x="202" y="617" type="curve" smooth="yes"/>
      <point x="202" y="647"/>
      <point x="180" y="673"/>
      <point x="145" y="673" type="curve" smooth="yes"/>
      <point x="110" y="673"/>
      <point x="88" y="647"/>
      <point x="88" y="617" type="curve" smooth="yes"/>
      <point x="88" y="586"/>
      <point x="111" y="560"/>
    </contour>
  </outline>
</glyph>
<glyph name="kgreenlandic" format="2">
  <advance width="542"/>
  <unicode hex="0138"/>
  <anchor x="269" y="0" name="bottom"/>
  <anchor x="269" y="0" name="cedilla"/>
  <anchor x="410" y="0" name="ogonek"/>
  <anchor x="268" y="473" name="top"/>
  <outline>
    <contour>
      <point x="259" y="0" type="line"/>
      <point x="259" y="29" type="line"/>
      <point x="196" y="29"/>
      <point x="185" y="40"/>
      <point x="185" y="91" type="curve" smooth="yes"/>
      <point x="185" y="231" type="line"/>
      <point x="191" y="231" type="line"/>
      <point x="348" y="65" type="line"/>
      <point x="353" y="60"/>
      <point x="359" y="50"/>
      <point x="359" y="41" type="curve" smooth="yes"/>
      <point x="359" y="32"/>
      <point x="349" y="29"/>
      <point x="320" y="29" type="curve"/>
      <point x="320" y="0" type="line"/>
      <point x="541" y="0" type="line"/>
      <point x="541" y="29" type="line"/>
      <point x="499" y="29"/>
      <point x="485" y="33"/>
      <point x="435" y="87" type="curve" smooth="yes"/>
      <point x="261" y="272" type="line"/>
      <point x="309" y="314" type="line"/>
      <point x="419" y="414"/>
      <point x="442" y="443"/>
      <point x="505" y="443" type="curve"/>
      <point x="505" y="473" type="line"/>
      <point x="299" y="473" type="line"/>
      <point x="299" y="443" type="line"/>
      <point x="337" y="443"/>
      <point x="348" y="438"/>
      <point x="348" y="425" type="curve" smooth="yes"/>
      <point x="348" y="409"/>
      <point x="334" y="397"/>
      <point x="330" y="393" type="curve" smooth="yes"/>
      <point x="191" y="253" type="line"/>
      <point x="185" y="253" type="line"/>
      <point x="185" y="479" type="line"/>
      <point x="158" y="479" type="line"/>
      <point x="28" y="450" type="line"/>
      <point x="28" y="422" type="line"/>
      <point x="28" y="422"/>
      <point x="48" y="424"/>
      <point x="62" y="424" type="curve" smooth="yes"/>
      <point x="95" y="424"/>
      <point x="102" y="415"/>
      <point x="102" y="374" type="curve" smooth="yes"/>
      <point x="102" y="95" type="line" smooth="yes"/>
      <point x="102" y="40"/>
      <point x="92" y="29"/>
      <point x="32" y="29" type="curve"/>
      <point x="32" y="0" type="line"/>
    </contour>
  </outline>
</glyph>
<glyph name="lslash" format="2">
  <advance width="290"/>
  <unicode hex="0142"/>
  <anchor x="141" y="0" name="bottom"/>
  <anchor x="141" y="0" name="cedilla"/>
  <anchor x="150" y="0" name="ogonek"/>
  <anchor x="140" y="693" name="top"/>
  <outline>
    <contour>
      <point x="265" y="0" type="line"/>
      <point x="265" y="29" type="line"/>
      <point x="193" y="29"/>
      <point x="188" y="43"/>
      <point x="188" y="101" type="curve" smooth="yes"/>
      <point x="188" y="706" type="line"/>
      <point x="163" y="706" type="line"/>
      <point x="31" y="671" type="line"/>
      <point x="31" y="644" type="line"/>
      <point x="31" y="644"/>
      <point x="46" y="646"/>
      <point x="63" y="646" type="curve" smooth="yes"/>
      <point x="88" y="646"/>
      <point x="105" y="644"/>
      <point x="105" y="603" type="curve" smooth="yes"/>
      <point x="105" y="101" type="line" smooth="yes"/>
      <point x="105" y="45"/>
      <point x="101" y="29"/>
      <point x="35" y="29" type="curve"/>
      <point x="35" y="0" type="line"/>
    </contour>
    <contour>
      <point x="115" y="327" type="line"/>
      <point x="115" y="376" type="line"/>
      <point x="8" y="299" type="line"/>
      <point x="30" y="267" type="line"/>
    </contour>
    <contour>
      <point x="281" y="448" type="line"/>
      <point x="258" y="479" type="line"/>
      <point x="178" y="423" type="line"/>
      <point x="178" y="374" type="line"/>
    </contour>
  </outline>
</glyph>
<glyph name="Eng" format="2">
  <advance width="742"/>
  <unicode hex="014A"/>
  <anchor x="357" y="-220" name="bottom"/>
  <anchor x="357" y="-220" name="cedilla"/>
  <anchor x="357" y="-220" name="ogonek"/>
  <anchor x="379" y="657" name="top"/>
  <outline>
    <contour>
      <point x="451" y="-235" type="curve" smooth="yes"/>
      <point x="570" y="-235"/>
      <point x="624" y="-179"/>
      <point x="624" y="-15" type="curve" smooth="yes"/>
      <point x="624" y="493" type="line" smooth="yes"/>
      <point x="624" y="622"/>
      <point x="658" y="627"/>
      <point x="715" y="627" type="curve"/>
      <point x="715" y="657" type="line"/>
      <point x="479" y="657" type="line"/>
      <point x="479" y="627" type="line"/>
      <point x="549" y="627"/>
      <point x="574" y="616"/>
      <point x="574" y="498" type="curve" smooth="yes"/>
      <point x="574" y="165" type="line"/>
      <point x="546" y="195" type="line"/>
      <point x="199" y="657" type="line"/>
      <point x="29" y="657" type="line"/>
      <point x="29" y="627" type="line"/>
      <point x="80" y="627"/>
      <point x="95" y="614"/>
      <point x="138" y="557" type="curve"/>
      <point x="166" y="527" type="line"/>
      <point x="177" y="527" type="line"/>
      <point x="579" y="-7" type="line"/>
      <point x="596" y="-7" type="line"/>
      <point x="574" y="37" type="line"/>
      <point x="574" y="-37" type="line" smooth="yes"/>
      <point x="574" y="-148"/>
      <point x="535" y="-187"/>
      <point x="487" y="-187" type="curve" smooth="yes"/>
      <point x="442" y="-187"/>
      <point x="443" y="-117"/>
      <point x="388" y="-117" type="curve" smooth="yes"/>
      <point x="360" y="-117"/>
      <point x="340" y="-136"/>
      <point x="340" y="-163" type="curve" smooth="yes"/>
      <point x="340" y="-211"/>
      <point x="386" y="-235"/>
    </contour>
    <contour>
      <point x="263" y="0" type="line"/>
      <point x="263" y="30" type="line"/>
      <point x="188" y="30"/>
      <point x="172" y="49"/>
      <point x="172" y="149" type="curve" smooth="yes"/>
      <point x="172" y="577" type="line"/>
      <point x="123" y="577" type="line"/>
      <point x="123" y="149" type="line" smooth="yes"/>
      <point x="123" y="48"/>
      <point x="108" y="30"/>
      <point x="29" y="30" type="curve"/>
      <point x="29" y="0" type="line"/>
    </contour>
  </outline>
</glyph>
<glyph name="eng" format="2">
  <advance width="559"/>
  <unicode hex="014B"/>
  <anchor x="311" y="-220" name="bottom"/>
  <anchor x="312" y="-220" name="cedilla"/>
  <anchor x="342" y="-220" name="ogonek"/>
  <anchor x="301" y="473" name="top"/>
  <outline>
    <contour>
      <point x="309" y="-235" type="curve" smooth="yes"/>
      <point x="427" y="-235"/>
      <point x="481" y="-160"/>
      <point x="481" y="-2" type="curve" smooth="yes"/>
      <point x="481" y="307" type="line" smooth="yes"/>
      <point x="481" y="422"/>
      <point x="438" y="485"/>
      <point x="347" y="485" type="curve" smooth="yes"/>
      <point x="284" y="485"/>
      <point x="240" y="449"/>
      <point x="186" y="401" type="curve"/>
      <point x="182" y="401" type="line"/>
      <point x="183" y="482" type="line"/>
      <point x="160" y="482" type="line"/>
      <point x="33" y="453" type="line"/>
      <point x="33" y="424" type="line"/>
      <point x="33" y="424"/>
      <point x="43" y="426"/>
      <point x="60" y="426" type="curve" smooth="yes"/>
      <point x="87" y="426"/>
      <point x="102" y="418"/>
      <point x="102" y="382" type="curve" smooth="yes"/>
      <point x="102" y="101" type="line" smooth="yes"/>
      <point x="102" y="45"/>
      <point x="99" y="28"/>
      <point x="32" y="28" type="curve"/>
      <point x="32" y="0" type="line"/>
      <point x="261" y="0" type="line"/>
      <point x="261" y="28" type="line"/>
      <point x="189" y="28"/>
      <point x="185" y="45"/>
      <point x="185" y="101" type="curve" smooth="yes"/>
      <point x="185" y="358" type="line"/>
      <point x="215" y="385"/>
      <point x="252" y="421"/>
      <point x="306" y="421" type="curve" smooth="yes"/>
      <point x="351" y="421"/>
      <point x="398" y="402"/>
      <point x="398" y="282" type="curve" smooth="yes"/>
      <point x="398" y="-32" type="line" smooth="yes"/>
      <point x="398" y="-139"/>
      <point x="394" y="-191"/>
      <point x="345" y="-191" type="curve" smooth="yes"/>
      <point x="299" y="-191"/>
      <point x="295" y="-121"/>
      <point x="247" y="-121" type="curve" smooth="yes"/>
      <point x="220" y="-121"/>
      <point x="203" y="-138"/>
      <point x="203" y="-163" type="curve" smooth="yes"/>
      <point x="203" y="-207"/>
      <point x="243" y="-235"/>
    </contour>
  </outline>
</glyph>
<glyph name="OE" format="2">
  <advance width="945"/>
  <unicode hex="0152"/>
  <anchor x="492" y="0" name="bottom"/>
  <anchor x="493" y="0" name="cedilla"/>
  <anchor x="783" y="0" name="ogonek"/>
  <anchor x="514" y="657" name="top"/>
  <outline>
    <contour>
      <point x="362" y="-12" type="curve" smooth="yes"/>
      <point x="403" y="-12"/>
      <point x="465" y="-5"/>
      <point x="493" y="0" type="curve"/>
      <point x="888" y="0" type="line"/>
      <point x="917" y="186" type="line"/>
      <point x="885" y="186" type="line"/>
      <point x="846" y="66"/>
      <point x="828" y="44"/>
      <point x="673" y="44" type="curve" smooth="yes"/>
      <point x="554" y="44" type="line"/>
      <point x="554" y="319" type="line"/>
      <point x="660" y="319" type="line" smooth="yes"/>
      <point x="753" y="319"/>
      <point x="772" y="308"/>
      <point x="772" y="226" type="curve"/>
      <point x="805" y="226" type="line"/>
      <point x="805" y="458" type="line"/>
      <point x="772" y="458" type="line"/>
      <point x="772" y="377"/>
      <point x="753" y="358"/>
      <point x="660" y="358" type="curve" smooth="yes"/>
      <point x="554" y="358" type="line"/>
      <point x="554" y="612" type="line"/>
      <point x="668" y="612" type="line" smooth="yes"/>
      <point x="810" y="612"/>
      <point x="839" y="599"/>
      <point x="855" y="493" type="curve"/>
      <point x="886" y="493" type="line"/>
      <point x="880" y="657" type="line"/>
      <point x="489" y="657" type="line"/>
      <point x="460" y="663"/>
      <point x="416" y="669"/>
      <point x="367" y="669" type="curve" smooth="yes"/>
      <point x="173" y="669"/>
      <point x="50" y="532"/>
      <point x="50" y="329" type="curve" smooth="yes"/>
      <point x="50" y="111"/>
      <point x="178" y="-12"/>
    </contour>
    <contour>
      <point x="369" y="30" type="curve" smooth="yes"/>
      <point x="200" y="30"/>
      <point x="155" y="191"/>
      <point x="155" y="335" type="curve" smooth="yes"/>
      <point x="155" y="501"/>
      <point x="231" y="627"/>
      <point x="366" y="627" type="curve" smooth="yes"/>
      <point x="431" y="627"/>
      <point x="462" y="595"/>
      <point x="462" y="558" type="curve" smooth="yes"/>
      <point x="462" y="106" type="line" smooth="yes"/>
      <point x="462" y="55"/>
      <point x="429" y="30"/>
    </contour>
  </outline>
</glyph>
<glyph name="oe" format="2">
  <advance width="807"/>
  <unicode hex="0153"/>
  <anchor x="415" y="0" name="bottom"/>
  <anchor x="414" y="0" name="cedilla"/>
  <anchor x="595" y="0" name="ogonek"/>
  <anchor x="426" y="473" name="top"/>
  <outline>
    <contour>
      <point x="254" y="-10" type="curve" smooth="yes"/>
      <point x="325" y="-10"/>
      <point x="388" y="28"/>
      <point x="426" y="80" type="curve"/>
      <point x="429" y="80" type="line"/>
      <point x="466" y="18"/>
      <point x="523" y="-10"/>
      <point x="593" y="-10" type="curve" smooth="yes"/>
      <point x="693" y="-10"/>
      <point x="741" y="53"/>
      <point x="777" y="129" type="curve"/>
      <point x="757" y="143" type="line"/>
      <point x="726" y="101"/>
      <point x="696" y="65"/>
      <point x="616" y="65" type="curve" smooth="yes"/>
      <point x="536" y="65"/>
      <point x="465" y="132"/>
      <point x="465" y="280" type="curve" smooth="yes"/>
      <point x="465" y="388"/>
      <point x="501" y="445"/>
      <point x="576" y="445" type="curve" smooth="yes"/>
      <point x="644" y="445"/>
      <point x="677" y="377"/>
      <point x="680" y="303" type="curve"/>
      <point x="455" y="303" type="line"/>
      <point x="456" y="266" type="line"/>
      <point x="774" y="266" type="line"/>
      <point x="769" y="406"/>
      <point x="697" y="485"/>
      <point x="591" y="485" type="curve" smooth="yes"/>
      <point x="523" y="485"/>
      <point x="467" y="455"/>
      <point x="429" y="396" type="curve"/>
      <point x="425" y="396" type="line"/>
      <point x="386" y="452"/>
      <point x="326" y="485"/>
      <point x="254" y="485" type="curve" smooth="yes"/>
      <point x="121" y="485"/>
      <point x="34" y="387"/>
      <point x="34" y="242" type="curve" smooth="yes"/>
      <point x="34" y="80"/>
      <point x="119" y="-10"/>
    </contour>
    <contour>
      <point x="260" y="29" type="curve"/>
      <point x="175" y="29"/>
      <point x="127" y="97"/>
      <point x="127" y="252" type="curve" smooth="yes"/>
      <point x="127" y="383"/>
      <point x="177" y="447"/>
      <point x="251" y="447" type="curve" smooth="yes"/>
      <point x="338" y="447"/>
      <point x="381" y="370"/>
      <point x="381" y="241" type="curve" smooth="yes"/>
      <point x="381" y="82"/>
      <point x="338" y="30"/>
    </contour>
  </outline>
</glyph>
<glyph name="tbar" format="2">
  <advance width="328"/>
  <unicode hex="0167"/>
  <anchor x="187" y="0" name="bottom"/>
  <anchor x="191" y="0" name="cedilla"/>
  <anchor x="191" y="0" name="ogonek"/>
  <anchor x="161" y="573" name="top"/>
  <outline>
    <contour>
      <point x="191" y="-10" type="curve" smooth="yes"/>
      <point x="255" y="-10"/>
      <point x="276" y="20"/>
      <point x="315" y="74" type="curve"/>
      <point x="296" y="90" type="line"/>
      <point x="271" y="62"/>
      <point x="258" y="49"/>
      <point x="226" y="49" type="curve" smooth="yes"/>
      <point x="187" y="49"/>
      <point x="178" y="73"/>
      <point x="178" y="144" type="curve" smooth="yes"/>
      <point x="178" y="281" type="line"/>
      <point x="291" y="281" type="line"/>
      <point x="291" y="323" type="line"/>
      <point x="178" y="323" type="line"/>
      <point x="178" y="426" type="line"/>
      <point x="291" y="426" type="line"/>
      <point x="291" y="468" type="line"/>
      <point x="178" y="468" type="line"/>
      <point x="179" y="610" type="line"/>
      <point x="153" y="610" type="line"/>
      <point x="117" y="525"/>
      <point x="87" y="478"/>
      <point x="40" y="449" type="curve"/>
      <point x="40" y="426" type="line"/>
      <point x="95" y="426" type="line"/>
      <point x="95" y="323" type="line"/>
      <point x="40" y="323" type="line"/>
      <point x="40" y="281" type="line"/>
      <point x="95" y="281" type="line"/>
      <point x="95" y="116" type="line" smooth="yes"/>
      <point x="95" y="26"/>
      <point x="124" y="-10"/>
    </contour>
  </outline>
</glyph>
<glyph name="uogonek" format="2">
  <advance width="570"/>
  <unicode hex="0173"/>
  <anchor x="275" y="-250" name="bottom.mkmk"/>
  <anchor x="276" y="-250" name="cedilla"/>
  <anchor x="276" y="-250" name="ogonek"/>
  <anchor x="275" y="473" name="top"/>
  <outline>
    <contour>
      <point x="498" y="-134" type="line"/>
      <point x="468" y="-156"/>
      <point x="451" y="-165"/>
      <point x="413" y="-165" type="curve" smooth="yes"/>
      <point x="382" y="-165"/>
      <point x="363" y="-147"/>
      <point x="363" y="-110" type="curve" smooth="yes"/>
      <point x="363" y="-59"/>
      <point x="404" y="-26"/>
      <point x="439" y="0" type="curve"/>
      <point x="540" y="18" type="line"/>
      <point x="540" y="45" type="line"/>
      <point x="530" y="45" type="line" smooth="yes"/>
      <point x="482" y="45"/>
      <point x="470" y="52"/>
      <point x="470" y="111" type="curve" smooth="yes"/>
      <point x="470" y="478" type="line"/>
      <point x="446" y="478" type="line"/>
      <point x="306" y="463" type="line"/>
      <point x="306" y="435" type="line"/>
      <point x="370" y="435"/>
      <point x="387" y="430"/>
      <point x="387" y="377" type="curve" smooth="yes"/>
      <point x="387" y="114" type="line"/>
      <point x="347" y="79"/>
      <point x="315" y="54"/>
      <point x="264" y="54" type="curve" smooth="yes"/>
      <point x="212" y="54"/>
      <point x="174" y="84"/>
      <point x="174" y="186" type="curve" smooth="yes"/>
      <point x="174" y="478" type="line"/>
      <point x="152" y="478" type="line"/>
      <point x="23" y="463" type="line"/>
      <point x="23" y="435" type="line"/>
      <point x="77" y="434"/>
      <point x="91" y="430"/>
      <point x="91" y="376" type="curve" smooth="yes"/>
      <point x="91" y="173" type="line" smooth="yes"/>
      <point x="91" y="37"/>
      <point x="139" y="-10"/>
      <point x="222" y="-10" type="curve" smooth="yes"/>
      <point x="286" y="-10"/>
      <point x="333" y="20"/>
      <point x="386" y="72" type="curve"/>
      <point x="391" y="72" type="line"/>
      <point x="391" y="-1" type="line"/>
      <point x="353" y="-29"/>
      <point x="295" y="-77"/>
      <point x="295" y="-134" type="curve" smooth="yes"/>
      <point x="295" y="-184"/>
      <point x="332" y="-216"/>
      <point x="385" y="-216" type="curve" smooth="yes"/>
      <point x="444" y="-216"/>
      <point x="473" y="-190"/>
      <point x="512" y="-151" type="curve"/>
    </contour>
  </outline>
</glyph>
<glyph name="longs" format="2">
  <advance width="285"/>
  <unicode hex="017F"/>
  <anchor x="139" y="0" name="bottom"/>
  <anchor x="139" y="0" name="cedilla"/>
  <anchor x="147" y="0" name="ogonek"/>
  <anchor x="149" y="693" name="top"/>
  <outline>
    <contour>
      <point x="287" y="0" type="line"/>
      <point x="287" y="29" type="line"/>
      <point x="204" y="29"/>
      <point x="185" y="41"/>
      <point x="185" y="119" type="curve" smooth="yes"/>
      <point x="185" y="562" type="line" smooth="yes"/>
      <point x="185" y="646"/>
      <point x="196" y="676"/>
      <point x="233" y="676" type="curve" smooth="yes"/>
      <point x="283" y="676"/>
      <point x="288" y="600"/>
      <point x="338" y="600" type="curve" smooth="yes"/>
      <point x="361" y="600"/>
      <point x="379" y="614"/>
      <point x="379" y="643" type="curve" smooth="yes"/>
      <point x="379" y="688"/>
      <point x="332" y="713"/>
      <point x="267" y="713" type="curve" smooth="yes"/>
      <point x="197" y="713"/>
      <point x="161" y="686"/>
      <point x="134" y="640" type="curve" smooth="yes"/>
      <point x="106" y="591"/>
      <point x="101" y="544"/>
      <point x="102" y="453" type="curve"/>
      <point x="102" y="119" type="line" smooth="yes"/>
      <point x="102" y="41"/>
      <point x="91" y="29"/>
      <point x="18" y="29" type="curve"/>
      <point x="18" y="0" type="line"/>
    </contour>
    <contour>
      <point x="113" y="426" type="line"/>
      <point x="113" y="468" type="line"/>
      <point x="26" y="468" type="line"/>
      <point x="26" y="426" type="line"/>
    </contour>
  </outline>
</glyph>
<glyph name="Eopen" format="2">
  <advance width="518"/>
  <unicode hex="0190"/>
  <anchor x="266" y="0" name="bottom"/>
  <anchor x="267" y="0" name="cedilla"/>
  <anchor x="298" y="0" name="ogonek"/>
  <anchor x="271" y="657" name="top"/>
  <outline>
    <contour>
      <point x="261" y="-11" type="curve" smooth="yes"/>
      <point x="375" y="-11"/>
      <point x="450" y="50"/>
      <point x="493" y="121" type="curve"/>
      <point x="471" y="141" type="line"/>
      <point x="424" y="86"/>
      <point x="370" y="56"/>
      <point x="292" y="56" type="curve" smooth="yes"/>
      <point x="206" y="56"/>
      <point x="139" y="84"/>
      <point x="139" y="182" type="curve" smooth="yes"/>
      <point x="139" y="277"/>
      <point x="193" y="323"/>
      <point x="308" y="323" type="curve" smooth="yes"/>
      <point x="361" y="323" type="line"/>
      <point x="361" y="373" type="line"/>
      <point x="311" y="373" type="line" smooth="yes"/>
      <point x="219" y="373"/>
      <point x="144" y="404"/>
      <point x="144" y="510" type="curve" smooth="yes"/>
      <point x="144" y="580"/>
      <point x="188" y="625"/>
      <point x="267" y="625" type="curve" smooth="yes"/>
      <point x="384" y="625"/>
      <point x="351" y="506"/>
      <point x="427" y="506" type="curve" smooth="yes"/>
      <point x="456" y="506"/>
      <point x="475" y="524"/>
      <point x="475" y="552" type="curve" smooth="yes"/>
      <point x="475" y="612"/>
      <point x="426" y="665"/>
      <point x="272" y="665" type="curve" smooth="yes"/>
      <point x="151" y="665"/>
      <point x="50" y="610"/>
      <point x="50" y="512" type="curve" smooth="yes"/>
      <point x="50" y="412"/>
      <point x="134" y="379"/>
      <point x="195" y="354" type="curve"/>
      <point x="195" y="348" type="line"/>
      <point x="127" y="336"/>
      <point x="40" y="278"/>
      <point x="40" y="170" type="curve" smooth="yes"/>
      <point x="40" y="30"/>
      <point x="144" y="-11"/>
    </contour>
  </outline>
</glyph>
<glyph name="fhook" format="2">
  <advance width="301"/>
  <unicode hex="0192"/>
  <anchor x="29" y="-220" name="bottom"/>
  <anchor x="29" y="-220" name="cedilla"/>
  <anchor x="29" y="-220" name="ogonek"/>
  <anchor x="149" y="693" name="top"/>
  <outline>
    <contour>
      <point x="26" y="-235" type="curve" smooth="yes"/>
      <point x="87" y="-235"/>
      <point x="124" y="-214"/>
      <point x="147" y="-179" type="curve" smooth="yes"/>
      <point x="175" y="-138"/>
      <point x="182" y="-78"/>
      <point x="182" y="-13" type="curve" smooth="yes"/>
      <point x="182" y="562" type="line" smooth="yes"/>
      <point x="182" y="646"/>
      <point x="193" y="676"/>
      <point x="230" y="676" type="curve" smooth="yes"/>
      <point x="255" y="676"/>
      <point x="268" y="657"/>
      <point x="282" y="639" type="curve" smooth="yes"/>
      <point x="296" y="620"/>
      <point x="310" y="600"/>
      <point x="335" y="600" type="curve" smooth="yes"/>
      <point x="358" y="600"/>
      <point x="376" y="614"/>
      <point x="376" y="643" type="curve" smooth="yes"/>
      <point x="376" y="688"/>
      <point x="329" y="713"/>
      <point x="264" y="713" type="curve" smooth="yes"/>
      <point x="194" y="713"/>
      <point x="158" y="686"/>
      <point x="131" y="640" type="curve" smooth="yes"/>
      <point x="103" y="591"/>
      <point x="98" y="544"/>
      <point x="99" y="453" type="curve"/>
      <point x="99" y="-84" type="line" smooth="yes"/>
      <point x="99" y="-166"/>
      <point x="93" y="-197"/>
      <point x="48" y="-197" type="curve" smooth="yes"/>
      <point x="19" y="-197"/>
      <point x="7" y="-175"/>
      <point x="-6" y="-155" type="curve" smooth="yes"/>
      <point x="-17" y="-138"/>
      <point x="-29" y="-122"/>
      <point x="-51" y="-122" type="curve" smooth="yes"/>
      <point x="-73" y="-122"/>
      <point x="-90" y="-135"/>
      <point x="-90" y="-165" type="curve" smooth="yes"/>
      <point x="-90" y="-209"/>
      <point x="-42" y="-235"/>
    </contour>
    <contour>
      <point x="304" y="426" type="line"/>
      <point x="304" y="468" type="line"/>
      <point x="23" y="468" type="line"/>
      <point x="23" y="426" type="line"/>
    </contour>
  </outline>
</glyph>
<glyph name="hwair" format="2">
  <advance width="798"/>
  <unicode hex="0195"/>
  <anchor x="439" y="0" name="bottom"/>
  <anchor x="140" y="0" name="cedilla"/>
  <anchor x="561" y="0" name="ogonek"/>
  <anchor x="438" y="693" name="top"/>
  <outline>
    <contour>
      <point x="544" y="-10" type="curve" smooth="yes"/>
      <point x="685" y="-10"/>
      <point x="751" y="104"/>
      <point x="751" y="278" type="curve" smooth="yes"/>
      <point x="751" y="338"/>
      <point x="733" y="483"/>
      <point x="652" y="483" type="curve" smooth="yes"/>
      <point x="627" y="483"/>
      <point x="615" y="466"/>
      <point x="615" y="447" type="curve" smooth="yes"/>
      <point x="615" y="395"/>
      <point x="707" y="364"/>
      <point x="707" y="231" type="curve" smooth="yes"/>
      <point x="707" y="118"/>
      <point x="678" y="49"/>
      <point x="559" y="49" type="curve" smooth="yes"/>
      <point x="487" y="49"/>
      <point x="473" y="78"/>
      <point x="473" y="181" type="curve" smooth="yes"/>
      <point x="473" y="300" type="line" smooth="yes"/>
      <point x="473" y="382"/>
      <point x="454" y="485"/>
      <point x="339" y="485" type="curve" smooth="yes"/>
      <point x="286" y="485"/>
      <point x="249" y="462"/>
      <point x="186" y="403" type="curve"/>
      <point x="183" y="403" type="line"/>
      <point x="183" y="706" type="line"/>
      <point x="156" y="706" type="line"/>
      <point x="22" y="671" type="line"/>
      <point x="22" y="643" type="line"/>
      <point x="22" y="643"/>
      <point x="35" y="645"/>
      <point x="51" y="645" type="curve" smooth="yes"/>
      <point x="78" y="645"/>
      <point x="100" y="640"/>
      <point x="100" y="605" type="curve" smooth="yes"/>
      <point x="100" y="93" type="line" smooth="yes"/>
      <point x="100" y="37"/>
      <point x="82" y="29"/>
      <point x="30" y="29" type="curve"/>
      <point x="30" y="0" type="line"/>
      <point x="257" y="0" type="line"/>
      <point x="257" y="29" type="line"/>
      <point x="188" y="29"/>
      <point x="183" y="45"/>
      <point x="183" y="97" type="curve" smooth="yes"/>
      <point x="183" y="359" type="line"/>
      <point x="232" y="404"/>
      <point x="259" y="421"/>
      <point x="298" y="421" type="curve" smooth="yes"/>
      <point x="379" y="421"/>
      <point x="390" y="352"/>
      <point x="390" y="270" type="curve" smooth="yes"/>
      <point x="390" y="151" type="line" smooth="yes"/>
      <point x="390" y="26"/>
      <point x="445" y="-10"/>
    </contour>
  </outline>
</glyph>
<glyph name="khook" format="2">
  <advance width="538"/>
  <unicode hex="0199"/>
  <anchor x="269" y="0" name="bottom"/>
  <anchor x="269" y="0" name="cedilla"/>
  <anchor x="410" y="0" name="ogonek"/>
  <anchor x="266" y="693" name="top"/>
  <outline>
    <contour>
      <point x="253" y="0" type="line"/>
      <point x="253" y="29" type="line"/>
      <point x="189" y="29"/>
      <point x="179" y="40"/>
      <point x="179" y="91" type="curve" smooth="yes"/>
      <point x="179" y="243" type="line"/>
      <point x="185" y="243" type="line"/>
      <point x="342" y="65" type="line" smooth="yes"/>
      <point x="347" y="60"/>
      <point x="353" y="50"/>
      <point x="353" y="41" type="curve" smooth="yes"/>
      <point x="353" y="32"/>
      <point x="343" y="29"/>
      <point x="315" y="29" type="curve"/>
      <point x="315" y="0" type="line"/>
      <point x="535" y="0" type="line"/>
      <point x="535" y="29" type="line"/>
      <point x="494" y="29"/>
      <point x="478" y="32"/>
      <point x="429" y="87" type="curve" smooth="yes"/>
      <point x="253" y="285" type="line"/>
      <point x="311" y="334" type="line" smooth="yes"/>
      <point x="425" y="431"/>
      <point x="439" y="443"/>
      <point x="499" y="443" type="curve"/>
      <point x="499" y="473" type="line"/>
      <point x="283" y="473" type="line"/>
      <point x="283" y="443" type="line"/>
      <point x="321" y="442"/>
      <point x="332" y="437"/>
      <point x="332" y="425" type="curve" smooth="yes"/>
      <point x="332" y="408"/>
      <point x="321" y="399"/>
      <point x="315" y="393" type="curve" smooth="yes"/>
      <point x="185" y="265" type="line"/>
      <point x="179" y="265" type="line"/>
      <point x="179" y="583" type="line" smooth="yes"/>
      <point x="179" y="650"/>
      <point x="201" y="676"/>
      <point x="242" y="676" type="curve" smooth="yes"/>
      <point x="273" y="676"/>
      <point x="291" y="657"/>
      <point x="307" y="639" type="curve" smooth="yes"/>
      <point x="324" y="619"/>
      <point x="339" y="600"/>
      <point x="365" y="600" type="curve" smooth="yes"/>
      <point x="389" y="600"/>
      <point x="408" y="614"/>
      <point x="408" y="643" type="curve" smooth="yes"/>
      <point x="408" y="688"/>
      <point x="356" y="713"/>
      <point x="283" y="713" type="curve" smooth="yes"/>
      <point x="206" y="713"/>
      <point x="162" y="685"/>
      <point x="132" y="639" type="curve" smooth="yes"/>
      <point x="104" y="594"/>
      <point x="96" y="553"/>
      <point x="96" y="483" type="curve" smooth="yes"/>
      <point x="96" y="95" type="line" smooth="yes"/>
      <point x="96" y="40"/>
      <point x="86" y="29"/>
      <point x="26" y="29" type="curve"/>
      <point x="26" y="0" type="line"/>
    </contour>
  </outline>
</glyph>
